<?xml version="1.0" standalone="no"?>
<!DOCTYPE svg PUBLIC "-//W3C//DTD SVG 20010904//EN"
 "http://www.w3.org/TR/2001/REC-SVG-20010904/DTD/svg10.dtd">
<svg version="1.0" xmlns="http://www.w3.org/2000/svg"
 width="1200.000000pt" height="600.000000pt" viewBox="0 0 1200.000000 600.000000"
 preserveAspectRatio="xMidYMid meet">

<g transform="translate(0.000000,600.000000) scale(0.100000,-0.100000)"
fill="#000000" stroke="none">
<path d="M2902 5967 c-8 -22 -9 -34 -1 -42 7 -7 8 -5 4 6 -4 11 1 18 16 22 15
4 20 11 16 22 -5 12 -3 14 12 5 14 -7 20 -6 24 3 3 8 -7 13 -27 14 -28 1 -34
-3 -44 -30z"/>
<path d="M3160 5778 c0 -123 -3 -425 -5 -673 -3 -247 -6 -602 -8 -787 -1 -185
-5 -339 -7 -341 -7 -6 -144 -27 -174 -27 -16 0 -26 6 -26 15 0 8 5 15 11 15 5
0 7 -4 4 -10 -3 -5 -4 -10 -1 -10 13 0 37 77 31 99 -5 21 -4 22 9 8 14 -14 14
-19 0 -52 -8 -21 -13 -39 -11 -42 3 -2 10 11 17 29 11 30 13 31 20 13 7 -16 9
-16 9 -4 1 18 27 33 41 24 4 -3 4 11 0 31 -9 40 -3 67 12 58 5 -3 7 -17 3 -31
-4 -17 -2 -23 6 -18 6 4 15 1 20 -6 7 -11 9 -11 9 2 0 8 -7 24 -15 35 -17 23
-20 48 -3 38 7 -4 8 -3 4 4 -4 7 -17 12 -30 12 -23 0 -178 -73 -273 -129 -43
-25 -52 -28 -57 -15 -9 24 -7 31 4 14 7 -11 10 -6 10 22 0 40 15 59 24 31 3
-10 4 2 2 27 -2 25 -2 37 1 28 2 -10 9 -18 14 -18 6 0 8 4 5 8 -8 14 14 83 24
77 5 -3 12 7 16 22 9 44 12 50 14 28 1 -11 7 3 15 30 7 28 12 69 10 92 -2 24
1 45 6 48 5 3 7 0 4 -7 -3 -7 -1 -26 4 -43 7 -21 10 -24 10 -10 1 17 3 17 11
5 8 -12 10 -10 10 8 0 15 -4 21 -12 16 -7 -4 -8 -3 -4 4 4 6 4 23 0 37 l-6 25
-19 -21 c-11 -12 -19 -28 -19 -35 0 -8 -8 -10 -22 -6 -14 3 -19 2 -14 -6 4 -7
3 -12 -3 -12 -6 0 -7 -7 -4 -17 4 -11 3 -14 -5 -9 -7 4 -12 1 -12 -9 0 -9 -4
-13 -10 -10 -5 3 -10 1 -10 -5 0 -7 -7 -9 -16 -6 -14 5 -15 4 -4 -9 11 -13 10
-14 -3 -10 -10 5 -15 1 -14 -12 2 -23 -25 -24 -29 -1 -1 10 3 16 9 15 6 -1 12
7 14 18 1 11 0 14 -3 8 -3 -7 -12 -13 -20 -13 -8 0 -17 -7 -20 -15 -10 -25
-34 2 -34 37 0 21 4 29 13 25 8 -3 14 1 14 8 0 8 -3 13 -6 12 -3 -1 -7 1 -8 6
-6 17 -2 27 10 27 8 0 22 10 33 21 19 21 19 21 -1 17 -11 -2 -19 -10 -18 -16
2 -7 -3 -12 -10 -12 -7 0 -14 10 -14 22 -2 16 0 19 6 9 10 -16 18 -4 15 27 0
12 1 22 3 22 2 0 8 -10 14 -22 l10 -23 -5 23 c-2 12 2 29 10 36 9 10 10 16 3
18 -18 6 -21 64 -4 78 13 11 15 10 9 -6 -4 -15 -3 -16 4 -4 15 24 8 53 -23
100 -30 43 -55 62 -55 40 0 -6 4 -9 9 -6 5 3 12 -1 15 -10 3 -8 2 -12 -4 -9
-6 4 -10 -9 -10 -30 0 -22 4 -34 10 -30 6 3 10 -2 10 -12 0 -11 6 -25 13 -32
6 -8 7 -11 2 -8 -7 3 -9 -7 -7 -29 2 -19 0 -34 -5 -34 -5 0 -8 12 -7 28 0 15
-10 56 -24 92 -28 74 -38 193 -18 213 7 7 13 27 13 44 0 28 -3 31 -19 22 -10
-5 -18 -12 -18 -15 0 -3 4 -2 10 1 6 3 7 -1 4 -9 -8 -21 -13 -17 -93 74 -52
58 -71 74 -74 62 -4 -15 -5 -14 -6 2 -1 17 -51 86 -51 71 0 -4 -8 -1 -17 6
-11 10 -14 10 -9 2 11 -20 -13 -15 -41 7 -51 40 -61 21 -32 -57 5 -12 4 -25
-1 -28 -5 -3 -13 18 -20 47 -6 29 -15 60 -20 68 -5 9 -5 19 1 27 8 9 5 11 -10
10 -13 -1 -20 -6 -17 -14 4 -9 -1 -10 -21 -2 -24 9 -25 8 -12 -8 9 -11 10 -14
2 -9 -20 12 -36 -3 -22 -20 7 -9 8 -14 3 -13 -22 4 -35 -2 -28 -13 5 -8 2 -9
-9 -5 -14 5 -31 -7 -32 -23 0 -3 -9 -17 -19 -32 -10 -15 -14 -33 -10 -39 4 -8
3 -9 -4 -5 -8 5 -12 -1 -12 -14 0 -12 -4 -18 -10 -15 -6 4 -10 -5 -10 -21 0
-27 0 -27 19 -8 10 10 18 21 18 24 0 3 5 16 12 30 10 22 11 22 7 3 -2 -12 3
-30 11 -40 14 -17 14 -17 9 0 -3 11 0 17 10 17 13 0 13 2 -2 17 -13 13 -14 18
-3 22 7 2 15 -1 17 -7 2 -7 11 -12 19 -12 13 0 13 3 2 16 -11 13 -10 15 3 12
10 -1 23 6 31 16 14 19 15 17 25 -29 8 -38 7 -55 -3 -75 -9 -18 -10 -31 -3
-41 8 -11 8 -9 3 6 -5 15 -3 17 6 8 9 -9 8 -19 -2 -42 -8 -17 -18 -31 -24 -31
-5 0 -3 -5 5 -10 12 -7 12 -12 2 -22 -23 -23 -34 5 -17 46 9 21 14 40 12 42
-2 2 -14 -21 -26 -51 -13 -30 -27 -52 -32 -49 -5 3 -9 -4 -9 -15 0 -22 -14
-28 -25 -11 -4 6 -1 18 7 27 9 12 9 15 1 9 -8 -4 -13 -1 -13 8 0 9 4 16 10 16
6 0 6 9 0 26 -6 14 -10 37 -10 51 0 43 -10 20 -17 -38 -6 -53 -6 -62 -4 -104
2 -26 -4 -63 -10 -69 -3 -3 -1 -53 4 -112 5 -67 5 -110 -1 -116 -17 -17 -32
192 -17 226 5 13 5 17 -2 13 -7 -4 -10 7 -9 30 1 31 -2 36 -24 40 -22 3 -23 2
-8 -9 12 -9 16 -23 14 -43 -2 -16 -4 -43 -5 -58 -1 -17 -5 -26 -11 -22 -6 4
-8 15 -5 25 3 10 2 21 -2 23 -5 3 -9 -2 -10 -11 -1 -9 -4 -28 -9 -41 -6 -19
-4 -23 7 -19 12 5 14 -8 14 -68 0 -45 -4 -73 -10 -70 -5 2 -9 21 -8 42 0 21
-1 29 -4 17 -2 -13 -7 -23 -11 -23 -12 0 -112 165 -112 184 0 7 -11 23 -24 35
l-24 23 -12 -22 c-10 -18 -9 -24 1 -31 11 -7 11 -11 2 -17 -9 -6 -10 -20 -4
-52 5 -25 9 -35 10 -23 2 43 16 30 18 -18 3 -43 0 -49 -17 -49 -17 0 -19 -5
-14 -35 3 -21 1 -35 -5 -36 -36 -4 -45 -3 -49 10 -3 10 2 13 20 9 19 -3 24 0
23 14 -2 27 -13 33 -40 18 -15 -8 -23 -21 -22 -34 1 -11 -4 -21 -10 -22 -7 -1
-16 -3 -20 -4 -5 -1 -10 -2 -13 -2 -3 0 -6 -14 -7 -31 l-2 -32 13 30 13 30 8
-45 c8 -43 8 -44 14 -15 l6 30 14 -33 c8 -18 12 -35 9 -37 -2 -2 -25 1 -51 8
-27 7 -46 15 -43 18 3 3 -11 3 -32 1 -20 -3 -40 -10 -44 -16 -5 -8 -8 -7 -8 2
0 9 -10 11 -37 7 -76 -13 -153 -38 -165 -53 -9 -11 -9 -14 -1 -9 7 4 16 0 21
-9 8 -15 11 -14 26 7 9 13 16 18 16 12 0 -7 7 -10 15 -7 11 5 15 -1 15 -22 0
-23 2 -26 10 -14 5 8 10 11 10 5 0 -5 5 -3 10 5 8 12 10 12 11 -5 1 -17 2 -16
9 5 7 23 8 22 10 -10 1 -29 3 -32 10 -15 5 11 9 16 9 10 1 -5 6 -3 11 5 8 12
10 12 11 -5 l0 -20 9 20 c7 17 9 16 9 -9 1 -34 17 -25 24 14 4 24 4 24 6 -2 0
-16 6 -28 11 -28 6 0 10 12 11 28 0 26 1 26 14 -8 9 -24 14 -29 15 -15 1 16 4
14 15 -10 11 -24 14 -26 15 -10 1 11 4 14 7 8 7 -19 23 -16 23 5 1 11 6 6 15
-13 7 -16 14 -24 14 -17 2 22 31 13 32 -10 1 -20 2 -20 6 -4 4 15 7 16 14 5 6
-9 9 3 10 36 l2 50 6 -40 c4 -22 12 -49 19 -60 11 -19 11 -19 12 6 0 14 7 34
15 45 14 18 14 18 15 -5 0 -13 10 -32 23 -43 21 -19 21 -20 2 -16 -14 2 -20
-3 -20 -17 0 -11 -8 -21 -18 -23 -9 -2 -15 -8 -12 -13 3 -5 -1 -6 -9 -3 -35
13 -287 -137 -357 -212 -55 -60 -65 -83 -58 -129 l6 -40 3 50 3 50 7 -40 8
-40 0 40 c-1 50 10 75 28 68 9 -3 14 2 14 17 0 11 4 19 9 16 5 -4 12 0 14 6 3
7 6 3 6 -10 1 -13 -3 -20 -9 -17 -6 4 -7 -1 -3 -11 5 -13 10 -10 25 17 11 19
16 25 13 14 -4 -11 -8 -33 -11 -50 -4 -27 -3 -27 7 5 l12 35 12 -29 13 -30 7
35 c8 33 9 33 17 9 6 -21 7 -20 3 8 -5 37 2 42 15 10 9 -23 9 -23 10 2 l2 25
8 -25 c7 -23 8 -23 10 10 l3 35 7 -40 c4 -23 8 -30 9 -17 0 13 6 20 11 17 6
-3 10 2 11 12 1 13 3 11 10 -7 7 -19 8 -15 5 20 -2 25 -2 37 1 28 2 -10 10
-15 19 -11 12 4 14 -1 9 -23 -3 -16 -2 -23 1 -16 4 8 11 6 25 -10 13 -17 19
-19 19 -8 1 10 4 9 10 -5 8 -18 9 -17 9 7 1 15 6 30 12 34 8 4 9 -1 4 -17 -8
-24 -8 -24 14 -5 11 11 21 25 21 33 0 7 7 13 15 13 9 0 15 -9 15 -22 0 -31 21
-8 23 25 1 15 7 23 15 20 6 -3 12 2 12 12 0 9 5 13 10 10 6 -3 10 2 10 11 0
16 1 16 15 -2 12 -15 16 -16 23 -6 12 18 22 -7 22 -51 0 -57 -11 -78 -41 -84
-27 -5 -29 -9 -28 -52 0 -33 3 -41 8 -26 5 11 7 23 5 26 -2 3 3 6 11 6 8 0 13
-3 12 -6 -2 -9 21 -71 27 -71 3 0 3 8 0 18 -5 13 -4 14 4 3 8 -12 11 -11 13 3
4 14 6 14 17 -4 10 -17 10 -21 0 -19 -7 1 -20 -1 -28 -4 -8 -3 -61 -18 -118
-33 -137 -36 -159 -56 -130 -119 11 -24 13 -25 19 -8 6 14 8 11 9 -12 l1 -30
11 25 11 25 7 -25 c7 -21 8 -22 9 -5 1 15 3 17 10 6 7 -11 11 -8 16 10 l8 24
10 -25 c11 -24 11 -23 15 15 l4 40 13 -35 c9 -22 14 -28 14 -16 1 19 2 19 14
2 16 -22 43 -12 56 22 10 26 10 25 5 -6 -4 -24 -2 -32 8 -30 7 2 16 8 20 13 5
6 8 5 8 -2 0 -22 18 -14 23 10 4 22 4 22 6 -2 1 -19 4 -21 15 -11 16 12 17
-68 17 -915 1 -301 0 -310 -20 -326 -21 -17 -54 -16 -78 4 -7 5 -20 7 -28 3
-9 -3 -15 0 -15 9 0 8 -9 15 -21 15 -13 0 -18 4 -13 12 5 7 0 9 -14 6 -12 -3
-23 -1 -26 6 -3 8 -5 8 -5 0 -1 -8 -16 -10 -45 -7 -26 3 -46 1 -50 -6 -4 -6
-14 -11 -23 -11 -15 0 -14 2 0 18 24 26 21 35 -8 28 -15 -4 -25 -2 -25 5 0 6
-12 1 -26 -10 -15 -12 -33 -21 -41 -21 -9 0 -13 -6 -10 -13 4 -12 -10 -14 -63
-9 -9 1 -24 16 -33 32 -10 17 -24 30 -32 30 -7 0 -28 8 -47 17 -18 9 -41 20
-51 25 -13 6 -26 4 -42 -6 -13 -9 -34 -16 -47 -15 -13 0 -44 -3 -71 -7 -29 -4
-47 -3 -47 3 0 6 11 8 25 5 15 -2 25 0 25 7 0 6 -6 11 -14 11 -8 0 -28 14 -46
30 -18 17 -41 30 -52 30 -17 0 -18 3 -8 15 11 14 6 35 -9 35 -4 0 -16 -6 -26
-14 -16 -11 -17 -16 -7 -29 11 -13 10 -15 -5 -11 -16 4 -18 -2 -19 -53 0 -32
1 -50 3 -40 6 23 20 22 33 -3 9 -17 8 -20 -10 -20 -13 0 -20 -7 -20 -20 0 -27
-16 -26 -23 1 -5 17 -11 20 -31 17 -24 -5 -26 -2 -27 31 0 20 -4 45 -9 56 -8
19 -9 19 -9 -2 -1 -26 -17 -39 -24 -19 -3 8 -6 99 -6 203 0 182 0 187 17 165
10 -13 25 -24 32 -26 33 -5 60 -18 60 -27 0 -6 5 -7 10 -4 6 3 10 -2 11 -12 0
-16 1 -16 9 2 8 20 9 20 9 -1 1 -28 7 -32 35 -27 31 6 39 37 15 59 -21 19 -26
40 -6 27 6 -4 22 -8 34 -8 21 -1 21 0 5 28 -9 16 -29 39 -44 50 -36 27 -26 41
17 23 31 -13 33 -13 39 7 6 22 -2 32 -50 65 -11 7 -12 10 -4 7 8 -4 4 3 -10
14 -14 11 -40 23 -58 27 -17 3 -32 10 -32 16 0 5 4 7 9 4 5 -3 20 6 35 21 14
14 26 22 27 17 1 -5 5 7 9 26 5 19 6 37 4 40 -4 3 -69 -17 -104 -33 -3 -1 -5
0 -6 3 0 3 -7 16 -14 30 -12 23 -12 24 4 11 9 -8 15 -20 12 -28 -3 -8 -1 -11
5 -8 5 4 7 16 3 27 -4 14 -2 18 5 14 7 -5 9 -1 5 8 -3 9 -10 16 -16 16 -5 0
-7 4 -4 8 6 11 43 9 53 -3 5 -4 1 -5 -7 0 -8 5 -12 4 -7 0 4 -5 18 -10 30 -11
12 -2 16 0 9 3 -9 3 -10 9 -2 18 8 9 6 14 -5 19 -9 3 -13 10 -10 16 3 5 4 10
2 10 -13 0 -84 -34 -98 -46 -14 -13 -17 -13 -22 0 -4 10 -1 13 8 10 7 -3 18 4
25 15 8 16 8 21 -2 21 -8 1 -5 7 7 16 18 13 17 14 -14 8 -23 -5 -32 -4 -27 4
3 5 2 12 -4 14 -6 2 -11 228 -12 643 -3 587 -2 643 14 667 12 19 14 28 5 37
-6 6 -7 11 -1 11 5 0 3 4 -5 9 -9 6 -11 18 -6 39 6 28 8 30 36 22 19 -6 27 -5
23 1 -3 5 -1 16 6 24 8 9 8 15 0 20 -6 4 -8 15 -5 26 4 11 2 19 -4 19 -6 0
-11 6 -11 14 0 8 -11 17 -25 20 l-25 6 0 153 c0 86 -5 159 -10 167 -8 11 -11
-9 -10 -70 0 -47 -3 -107 -6 -134 -5 -35 -2 -51 7 -57 10 -6 11 -9 2 -9 -7 0
-13 -9 -13 -20 0 -18 -10 -25 -32 -21 -5 0 -8 -3 -8 -8 0 -5 -9 -13 -20 -16
-11 -3 -20 -12 -20 -20 0 -7 -7 -20 -15 -28 -13 -13 -12 -17 10 -31 13 -9 31
-16 40 -16 8 0 15 -4 15 -10 0 -5 -5 -10 -11 -10 -7 0 -8 -7 -4 -17 4 -10 8
-25 10 -33 2 -8 4 -15 6 -15 1 0 3 -16 4 -35 2 -19 6 -42 9 -51 5 -12 0 -18
-18 -23 -32 -8 -32 -19 -4 -59 l23 -32 1 -600 c0 -330 -3 -607 -7 -615 -22
-43 -59 -130 -59 -139 0 -18 -15 -13 -38 12 -27 28 -28 38 -4 31 9 -3 5 2 -10
11 -16 8 -28 20 -28 25 0 6 -7 10 -15 10 -12 0 -14 -8 -8 -42 7 -48 21 -67 43
-61 13 4 13 3 1 -5 -12 -9 -12 -13 -2 -26 7 -9 17 -13 22 -10 5 3 6 -1 3 -9
-3 -9 -14 -12 -29 -9 -57 10 -101 -23 -70 -54 17 -17 20 -34 6 -34 -39 0 -135
-105 -129 -140 5 -25 61 -12 85 19 11 14 12 14 13 1 0 -12 3 -11 11 3 6 9 15
14 21 11 6 -4 17 1 25 11 8 12 13 14 13 6 0 -11 3 -11 15 -1 11 9 14 23 11 44
-6 30 -6 30 8 -4 l13 -35 16 38 c20 47 41 50 31 5 -3 -18 -6 -71 -6 -118 1
-76 -14 -192 -17 -132 -1 12 -5 22 -11 22 -5 0 -11 15 -11 33 -1 17 -3 25 -6
15 -6 -23 -35 -32 -45 -13 -12 21 -40 19 -36 -2 2 -11 -3 -18 -12 -18 -8 0
-18 -3 -21 -8 -3 -4 -30 -10 -60 -12 -30 -3 -48 -3 -41 1 18 9 4 24 -23 24
-18 0 -23 4 -18 15 3 9 2 15 -3 14 -21 -4 -26 2 -14 16 11 14 6 15 -39 14 -28
-1 -56 -8 -62 -16 -6 -7 -19 -13 -29 -13 -10 0 -23 -6 -29 -14 -15 -18 -68
-13 -84 8 -10 13 -18 14 -44 7 -29 -8 -34 -6 -56 22 -21 28 -26 30 -41 18 -14
-12 -18 -11 -30 5 -19 25 -93 30 -118 7 -17 -15 -18 -74 -18 -1420 l0 -1403
6000 0 6000 0 0 1905 0 1906 -21 -12 c-12 -6 -36 -8 -55 -4 -26 4 -42 1 -63
-14 -35 -25 -47 -26 -55 -6 -3 8 -15 15 -26 15 -11 0 -20 5 -20 10 0 7 -32 9
-97 4 -61 -4 -108 -2 -125 4 -18 7 -38 8 -60 1 -22 -6 -34 -6 -36 1 -2 5 -24
10 -48 10 -28 0 -44 5 -45 13 -1 6 -5 1 -9 -13 l-8 -25 -3 25 c-1 15 -4 8 -8
-20 -4 -25 -10 81 -14 235 -10 370 -10 485 -3 492 3 4 6 -3 6 -15 0 -41 15
-29 18 14 2 25 7 55 12 67 8 21 9 21 9 -5 1 -15 6 -30 11 -33 6 -3 10 -21 10
-38 0 -25 3 -29 11 -17 8 12 9 7 6 -17 -2 -18 -1 -33 3 -33 3 0 4 -15 2 -32
-2 -18 1 -44 7 -58 9 -23 10 -22 11 15 0 27 3 36 9 26 7 -11 10 -10 14 5 4 17
5 17 6 1 0 -10 6 -15 11 -12 6 3 10 3 10 -2 0 -4 10 -19 21 -33 18 -23 19 -23
9 -2 -12 24 -2 29 20 10 12 -11 12 -10 2 3 -6 9 -10 18 -7 21 3 3 -1 11 -9 17
-8 7 -13 18 -10 25 3 7 -3 19 -13 27 -17 13 -17 13 -3 -6 11 -15 7 -14 -13 4
-15 14 -25 27 -22 29 3 3 -2 17 -11 31 -13 23 -12 22 10 -3 14 -17 22 -35 18
-40 -3 -6 2 -5 11 3 14 11 15 16 5 29 -7 8 -11 17 -10 19 2 3 0 8 -4 11 -4 4
-4 1 1 -7 5 -10 4 -12 -4 -7 -6 4 -9 12 -5 17 3 5 -4 26 -15 45 -25 41 -29 83
-7 65 10 -8 16 -8 25 2 6 8 8 17 5 20 -3 3 -3 11 1 17 6 9 9 9 15 -1 5 -7 16
-14 25 -15 10 -1 26 -12 37 -24 19 -20 21 -20 32 -4 12 16 14 15 19 -8 8 -32
37 -46 37 -18 0 10 5 22 10 25 6 4 10 -7 10 -27 l1 -33 14 30 c12 27 13 28 14
8 1 -27 18 -31 24 -5 3 12 5 10 7 -8 l2 -25 8 25 c8 25 8 25 10 -5 l2 -30 12
29 13 28 6 -31 c8 -36 22 -41 31 -8 11 42 6 55 -39 98 -25 24 -45 48 -45 55 0
7 -16 18 -35 24 -19 6 -37 20 -40 31 -4 11 -10 17 -14 15 -4 -3 -5 9 -3 27 4
27 6 29 13 12 6 -16 8 -13 10 15 l2 35 7 -35 7 -35 3 40 c1 23 4 32 7 20 3
-11 10 -24 15 -30 8 -7 9 -6 5 1 -4 6 0 20 7 30 13 17 14 16 9 -11 -3 -21 -2
-26 5 -16 7 10 11 10 17 1 14 -22 22 8 15 55 -4 24 -4 42 0 40 4 -3 10 -23 14
-45 3 -22 11 -40 16 -40 11 0 2 80 -10 94 -5 4 -29 11 -54 13 -25 3 -46 9 -46
12 0 13 24 31 41 31 11 0 20 14 27 43 l11 42 -5 -39 c-5 -35 -4 -38 10 -27 9
8 16 23 17 35 0 20 1 21 9 1 8 -18 9 -17 9 8 1 16 -3 26 -9 22 -5 -3 -10 -1
-10 5 0 6 7 13 15 16 32 13 12 25 -34 21 -30 -3 -85 -22 -144 -50 -88 -41 -97
-44 -109 -29 -11 15 -11 15 4 4 18 -15 31 -2 22 21 -3 8 -1 18 5 21 11 7 3 36
-13 49 -7 5 -3 6 8 3 15 -5 18 -2 14 19 -3 14 -1 25 4 25 5 0 6 6 2 13 -8 13
14 -2 54 -37 19 -17 33 -10 15 8 -4 3 -8 15 -10 26 -2 14 2 18 15 14 9 -4 2 4
-16 15 -36 23 -63 21 -95 -7 -16 -15 -17 -14 -11 3 6 14 4 16 -6 10 -9 -5 -11
-4 -6 4 4 6 11 9 16 6 4 -3 14 3 21 12 8 9 9 14 4 11 -6 -4 -17 -3 -25 3 -12
7 -11 9 5 9 18 1 18 2 -3 10 -12 5 -28 8 -35 6 -6 -1 -9 -1 -4 1 4 3 5 8 3 12
-2 3 13 6 35 6 35 0 38 1 23 12 -17 12 -17 13 2 14 10 0 13 3 6 6 -6 2 -9 9
-6 15 4 6 1 8 -7 6 -8 -3 -23 2 -33 11 -14 11 -17 12 -11 2 6 -11 4 -13 -7 -9
-11 5 -14 0 -12 -19 1 -14 0 -22 -4 -19 -3 3 -17 -4 -31 -16 -14 -13 -19 -15
-12 -5 23 29 -3 19 -45 -18 -56 -50 -78 -46 -28 6 24 25 16 34 -13 16 -8 -5
-10 1 -7 20 l4 28 -14 -24 c-8 -14 -11 -32 -8 -40 3 -9 -5 -5 -16 8 -24 26
-28 22 -11 -11 8 -15 8 -19 0 -14 -18 11 -34 -4 -21 -19 10 -12 7 -12 -14 -2
-27 12 -37 31 -12 21 13 -5 14 -1 7 35 -1 2 -8 -2 -16 -9 -22 -18 -28 6 -21
85 3 38 1 65 -4 65 -6 0 -10 -12 -10 -26 0 -14 -4 -23 -9 -20 -5 4 -7 -8 -4
-26 4 -29 4 -30 -12 -15 -27 27 -27 20 -1 -22 22 -34 23 -41 11 -58 -8 -11
-11 -24 -7 -29 4 -5 0 -3 -8 3 -8 6 -24 7 -35 3 -17 -6 -16 -8 12 -14 18 -4
36 -5 41 -2 12 7 12 -26 0 -41 -7 -8 -3 -10 11 -6 13 3 21 1 21 -6 0 -7 -5 -9
-11 -5 -8 4 -8 1 -1 -13 9 -16 8 -20 -5 -20 -23 0 -39 43 -23 62 8 9 8 15 2
15 -13 0 -26 -36 -18 -49 7 -11 -3 -41 -14 -41 -4 0 -19 11 -32 25 -22 22 -27
23 -32 9 -3 -8 -6 -29 -6 -45 0 -17 -5 -40 -12 -52 -7 -12 -13 -31 -15 -42 -3
-16 -1 -17 7 -5 8 12 12 13 19 2 6 -11 10 -10 15 3 9 24 7 32 -4 15 -5 -8 -10
-10 -10 -5 0 6 5 17 10 25 9 13 10 13 10 0 0 -11 2 -12 8 -3 5 8 8 -2 9 -24 1
-26 -2 -32 -9 -22 -8 11 -9 10 -4 -4 3 -10 6 -28 7 -40 0 -12 7 1 14 28 7 28
14 46 15 40 10 -50 13 -76 14 -114 l1 -44 -59 -4 c-39 -3 -70 -12 -90 -26 -28
-20 -31 -27 -28 -65 2 -23 7 -40 12 -37 4 3 6 15 4 28 -2 12 1 7 8 -11 9 -26
15 -31 31 -26 11 4 23 1 28 -7 6 -10 9 -5 9 16 0 21 3 26 9 16 7 -11 9 -11 14
0 3 8 6 2 6 -12 1 -24 5 -26 44 -25 23 0 44 3 47 7 3 4 4 -26 2 -68 -3 -46 0
-79 7 -86 8 -8 11 -8 11 2 0 7 5 9 11 5 6 -3 9 -15 6 -25 -3 -11 -1 -19 4 -19
5 0 9 5 9 10 0 18 25 6 32 -15 5 -17 6 -15 7 8 1 15 6 27 11 27 7 0 10 -148 9
-427 -1 -257 -5 -409 -9 -380 -11 65 -17 67 -28 15 -8 -33 -10 -37 -11 -15 -1
19 -6 27 -18 27 -15 0 -16 -2 -3 -10 23 -14 -17 -25 -50 -13 -15 5 -36 6 -48
2 -12 -5 -29 -6 -37 -2 -9 3 -24 -2 -35 -12 -11 -10 -26 -15 -36 -11 -10 4
-21 1 -25 -5 -4 -7 -14 -9 -25 -4 -27 11 -48 12 -56 1 -4 -6 -13 -4 -23 4 -14
11 -17 10 -22 -8 -3 -12 -10 -22 -15 -22 -5 0 -7 4 -3 9 9 16 -32 23 -71 12
-23 -6 -45 -6 -61 0 -34 13 -43 11 -43 -6 0 -17 -36 -21 -42 -4 -3 9 -14 9
-41 0 -29 -10 -41 -10 -52 -1 -15 13 -88 8 -196 -12 -41 -7 -55 -14 -55 -26 0
-54 -6 -69 -26 -79 -28 -14 -61 -25 -68 -23 -2 1 -7 -7 -11 -17 -4 -10 -8 108
-9 262 -1 154 -3 303 -5 330 -7 114 -12 1286 -5 1360 3 44 8 67 10 50 2 -27 3
-28 7 -6 4 19 7 21 14 10 7 -11 9 -11 9 4 0 9 4 17 9 17 6 0 6 -14 0 -34 -6
-22 -6 -50 1 -78 5 -23 10 -68 11 -98 l2 -55 7 65 7 65 3 -65 c2 -54 4 -59 9
-30 l7 35 7 -28 c4 -15 5 -32 2 -37 -3 -4 0 -19 5 -32 10 -22 10 -22 7 5 -3
15 0 30 4 33 5 3 9 -7 10 -23 1 -39 14 -70 23 -55 4 7 4 17 0 23 -16 26 -21
75 -8 86 16 15 28 -9 12 -25 -12 -12 -1 -55 13 -47 5 4 9 11 9 16 0 6 -5 7
-11 3 -7 -4 -10 -1 -7 6 9 27 24 18 58 -35 19 -29 36 -52 39 -50 2 3 -1 11 -7
18 -7 8 -9 17 -5 20 3 4 -15 34 -41 68 -26 33 -52 72 -57 87 -10 26 -10 26 10
8 12 -11 25 -15 33 -10 11 6 11 5 0 -8 -10 -12 -9 -18 3 -28 8 -7 15 -9 15 -5
0 4 7 1 17 -6 15 -13 15 -12 4 9 -6 12 -8 22 -4 22 4 1 -3 10 -16 20 -13 11
-19 20 -15 20 5 0 -4 11 -20 25 -16 14 -26 25 -21 25 4 0 2 7 -5 15 -13 16
-35 10 -24 -6 3 -5 11 -6 17 -2 7 4 5 -2 -3 -13 -8 -10 -10 -16 -6 -12 10 9
36 -9 36 -23 0 -5 -11 -2 -25 7 -14 9 -23 19 -20 22 2 3 0 11 -6 19 -6 7 -8
13 -4 13 5 0 0 10 -11 23 l-19 22 23 -19 c30 -26 28 -5 -3 24 -13 12 -22 26
-20 31 3 4 -1 10 -7 12 -7 3 -8 6 -3 6 6 1 31 -26 55 -59 25 -33 49 -60 53
-60 5 0 5 5 1 12 -4 7 -3 8 4 4 6 -4 9 -12 6 -19 -2 -7 7 -24 21 -37 14 -13
25 -19 25 -13 0 5 -9 18 -20 28 -11 10 -17 22 -14 27 3 5 -16 35 -43 66 -57
66 -77 95 -50 73 16 -13 25 -2 10 13 -8 8 -9 13 -12 44 -1 15 -3 15 -11 2 -9
-13 -10 -13 -10 0 0 8 4 21 9 29 7 10 11 5 16 -18 7 -31 38 -61 63 -61 12 0
12 3 2 15 -6 8 -10 22 -8 32 3 14 8 10 25 -17 13 -21 31 -36 43 -37 12 -1 28
-10 36 -20 12 -15 15 -16 23 -3 5 8 7 19 5 25 -3 5 6 -3 20 -18 14 -15 26 -22
26 -15 1 10 4 9 13 -2 21 -27 47 -21 54 12 l6 30 13 -23 c14 -26 9 -43 -9 -33
-8 5 -8 3 0 -6 7 -8 19 -15 28 -16 13 -2 13 2 0 33 -17 40 -20 67 -4 40 6 -9
15 -14 21 -11 6 4 8 3 5 -4 -4 -5 -4 -18 0 -28 6 -17 7 -17 13 0 5 14 11 11
33 -21 l28 -38 -6 30 -6 30 18 -33 c9 -18 23 -30 29 -28 7 3 15 -3 18 -12 2
-9 2 1 -1 22 -4 28 -2 37 6 32 6 -4 11 -17 11 -29 0 -27 19 -61 21 -37 0 8 5
4 10 -10 7 -21 8 -19 5 11 -6 51 14 68 31 28 7 -17 10 -36 6 -43 -3 -6 -3 -8
2 -4 4 4 15 2 23 -4 8 -7 6 2 -6 22 -12 18 -19 37 -16 42 3 4 2 14 -3 21 -4 6
-8 17 -8 23 0 7 -29 38 -65 69 -74 66 -89 85 -63 80 10 -2 19 -4 21 -5 1 -2 6
-3 11 -4 5 0 13 -4 17 -8 4 -4 13 -3 19 2 8 7 21 3 41 -12 16 -12 24 -15 17
-8 -9 10 -9 18 -1 34 7 12 13 27 14 34 1 8 6 17 10 20 4 4 4 -5 2 -20 -3 -16
-1 -28 3 -28 5 0 11 -11 15 -25 8 -33 30 -51 30 -24 0 10 -5 19 -10 19 -5 0
-6 3 -3 6 4 4 13 1 21 -5 12 -10 14 -8 9 11 -3 16 -2 19 5 10 5 -8 13 -13 18
-12 5 1 10 -4 12 -12 2 -9 0 -8 -7 2 -6 8 -11 10 -11 4 0 -16 27 -37 34 -26
10 16 -41 109 -82 149 -23 22 -62 51 -89 64 l-48 24 -584 3 c-383 1 -588 -1
-595 -8 -5 -5 -17 -10 -26 -9 -10 0 -9 3 5 9 16 7 13 9 -17 9 -31 1 -38 -3
-38 -18 0 -10 -11 -26 -25 -35 -13 -9 -31 -29 -39 -44 -8 -15 -32 -38 -55 -50
-35 -20 -41 -28 -40 -55 1 -31 1 -31 9 -7 6 19 8 11 9 -32 1 -32 3 -58 5 -58
3 0 16 4 30 10 19 7 26 6 26 -3 0 -8 4 -7 10 3 8 13 10 12 10 -2 0 -19 20 -20
32 -3 5 6 8 4 9 -5 1 -8 5 -1 10 15 5 17 6 -101 2 -270 -3 -165 -7 -645 -8
-1066 -1 -422 -5 -771 -9 -778 -4 -6 -1 -11 6 -11 10 0 10 -2 0 -9 -14 -9 -19
-71 -7 -90 3 -6 1 -11 -4 -11 -6 0 -11 5 -11 11 0 8 -4 8 -15 -1 -16 -14 -35
-6 -35 16 0 8 -10 14 -25 14 -14 0 -24 -5 -22 -11 1 -6 -17 -12 -39 -14 -23
-2 -51 -8 -62 -14 -11 -6 -27 -8 -35 -6 -7 3 -20 -1 -27 -10 -7 -8 -9 -15 -4
-15 5 0 2 -4 -6 -9 -18 -12 -73 -2 -83 16 -10 17 -41 17 -56 -1 -9 -11 -9 -15
1 -20 7 -3 -5 -5 -27 -4 -45 1 -76 -9 -88 -29 -4 -7 -18 -13 -30 -13 -35 1
-87 -12 -87 -20 0 -5 -16 -3 -36 3 -27 8 -37 8 -43 -2 -21 -33 -31 130 -36
589 -2 267 -9 550 -14 630 -6 80 -10 269 -11 420 0 151 0 296 0 321 -1 53 30
103 51 82 13 -13 42 -6 33 8 -6 11 9 12 20 2 10 -11 36 -12 36 -2 0 5 4 9 9 9
4 0 6 -12 4 -27 l-4 -28 16 30 15 30 -6 -29 c-5 -27 -4 -28 12 -15 10 8 15 9
11 2 -4 -6 -3 -14 3 -18 10 -6 15 34 11 83 -1 12 2 22 7 22 5 0 8 -20 7 -45
-1 -25 2 -45 7 -45 8 0 11 20 8 58 -1 12 3 22 8 22 6 0 8 -10 4 -22 -3 -14 -2
-19 6 -14 8 5 12 -1 13 -16 l1 -23 7 24 c4 14 12 26 19 27 7 1 8 0 2 -3 -15
-7 -12 -20 5 -20 8 0 15 5 15 11 0 6 5 4 10 -4 7 -11 10 -5 11 25 1 39 2 39 9
10 l8 -30 1 30 2 30 15 -27 c8 -16 17 -28 20 -28 2 0 0 9 -6 20 -7 14 -7 20 0
20 5 0 10 6 10 14 0 7 8 20 18 27 14 11 15 11 5 -1 -7 -8 -13 -23 -12 -34 0
-21 0 -21 9 -1 5 11 9 14 9 7 1 -8 7 -12 14 -9 6 2 10 14 9 27 -3 18 0 21 13
16 9 -3 19 -6 22 -6 3 0 0 -7 -7 -15 -7 -8 -8 -15 -2 -15 5 0 15 6 21 14 19
22 -38 40 -107 32 -54 -6 -212 -38 -259 -51 -19 -6 -21 -4 -16 15 4 16 8 18
14 8 7 -10 9 -9 9 5 0 10 12 29 26 42 17 15 26 35 26 57 1 18 3 27 5 21 3 -7
9 -13 14 -13 6 0 7 5 4 10 -3 6 0 10 7 10 9 0 9 3 -2 10 -12 8 -12 10 5 11 13
0 15 3 6 6 -11 5 -11 7 0 15 10 7 9 8 -6 4 -11 -3 -46 -8 -77 -12 -66 -7 -78
4 -59 57 9 26 9 29 -3 20 -11 -9 -16 -9 -22 0 -4 7 -3 9 3 6 11 -7 23 14 23
40 0 30 -27 -12 -45 -69 -16 -51 -20 -55 -37 -45 -14 9 -18 21 -16 47 3 29 0
35 -17 36 -16 1 -20 -5 -19 -25 0 -15 -5 -28 -15 -32 -11 -4 -15 -17 -12 -50
l3 -44 -30 29 -30 28 -29 -29 -28 -29 -33 19 c-18 11 -35 17 -37 15 -3 -3 -7
-27 -10 -54 -6 -48 -6 -48 8 -19 8 17 12 37 9 45 -3 8 -2 12 3 8 4 -4 10 -24
12 -45 2 -21 13 -47 25 -58 11 -11 18 -14 14 -7 -4 6 -2 12 3 12 6 0 11 -9 11
-20 0 -11 5 -20 11 -20 5 0 8 -4 5 -9 -3 -5 1 -14 9 -21 13 -11 14 -8 11 16
-2 16 -1 21 1 12 2 -9 11 -22 19 -28 8 -7 14 -19 14 -26 0 -8 7 -14 16 -14 8
0 12 -5 9 -10 -4 -6 -3 -9 2 -8 4 1 18 -3 30 -10 l22 -12 1 -441 c0 -243 3
-445 5 -450 3 -4 7 -272 9 -596 3 -323 2 -580 -1 -570 -4 15 -12 17 -56 11
-29 -4 -59 -10 -67 -14 -9 -5 -41 5 -85 26 -38 19 -80 34 -92 34 -12 0 -25 5
-28 11 -5 7 -14 5 -28 -4 -23 -15 -113 -17 -135 -3 -7 4 -17 4 -23 0 -6 -3
-15 -1 -19 7 -5 7 -21 14 -36 16 -15 2 -36 9 -46 14 -14 7 -23 7 -33 -1 -8 -6
-22 -9 -32 -6 -12 4 -24 -1 -33 -14 -9 -12 -26 -20 -45 -20 -23 0 -27 -3 -15
-10 12 -8 10 -10 -10 -10 -28 0 -69 -25 -99 -59 -14 -16 -21 -19 -22 -10 -1 8
-5 3 -9 -11 -5 -15 -9 41 -10 140 -1 91 -3 208 -5 260 -3 61 -1 88 5 75 8 -18
9 -17 9 8 1 16 5 26 11 22 6 -3 10 2 10 11 0 16 1 16 14 -2 14 -19 3 -39 -16
-28 -4 3 -8 -3 -8 -12 0 -10 3 -14 7 -11 3 4 12 2 20 -4 10 -9 13 -7 14 7 1
11 5 6 9 -11 7 -26 8 -24 9 20 1 33 4 45 10 36 7 -11 10 -10 14 5 4 16 5 16 6
-3 0 -12 -3 -25 -9 -28 -5 -3 -9 -16 -9 -28 1 -20 2 -20 6 -3 6 24 33 53 33
36 0 -7 6 -10 14 -7 8 3 17 -1 20 -9 8 -22 7 -26 -4 -19 -6 4 -7 -1 -3 -11 4
-12 8 -14 11 -5 3 8 8 7 19 -6 13 -16 13 -16 2 7 -7 13 -12 32 -13 42 -2 28
-92 115 -141 135 l-46 18 2 48 c2 31 7 47 16 47 7 0 13 4 13 9 0 5 8 12 18 16
14 5 15 4 5 -6 -15 -15 -17 -33 -3 -24 6 3 10 1 10 -5 0 -6 4 -9 9 -5 6 3 6
17 1 35 -5 18 -5 30 1 30 5 0 9 -6 9 -12 0 -7 9 -24 20 -38 l19 -25 10 28 c13
35 13 37 1 37 -5 0 -10 -12 -10 -27 0 -21 -3 -24 -9 -14 -6 9 -6 22 -1 32 5 9
6 19 3 23 -12 11 20 6 37 -6 9 -7 5 -2 -9 11 -22 21 -31 22 -83 17 l-58 -5 3
33 c1 22 6 32 15 29 8 -4 10 1 6 13 -3 11 1 8 9 -6 9 -14 13 -29 10 -34 -4 -5
-1 -6 4 -3 18 11 -12 81 -36 85 l-21 3 1 531 c1 379 4 527 12 519 7 -7 16 -4
29 11 l18 21 0 -28 c0 -47 8 -24 14 43 4 37 2 61 -3 58 -5 -3 -12 1 -15 10 -4
9 -13 14 -21 10 -18 -6 -18 -6 -15 163 1 85 6 131 15 145 8 12 15 25 17 31 2
5 7 9 12 7 5 -2 5 5 1 15 -4 10 -8 27 -11 37 -3 17 -1 16 19 -5 21 -22 22 -22
26 -4 2 11 -2 21 -8 23 -6 2 -11 10 -11 18 0 9 5 12 12 8 7 -4 8 -3 4 5 -4 6
0 14 9 18 10 3 21 0 25 -7 6 -9 9 -9 15 0 5 8 12 7 26 -6 17 -15 24 -13 20 9
0 4 3 7 8 7 5 0 12 8 14 18 4 14 5 14 6 -3 1 -11 6 -27 12 -35 9 -13 10 -12 5
3 -3 9 -1 17 4 17 6 0 10 -5 10 -12 0 -6 3 -9 6 -5 9 8 34 -18 34 -36 0 -18
27 -30 33 -14 2 6 13 12 25 12 12 0 21 4 19 10 -1 5 -4 9 -7 8 -3 -1 -6 7 -7
18 -2 23 -42 64 -73 74 -13 4 -31 14 -38 22 -10 10 -17 11 -22 4 -4 -7 -11 -2
-19 13 -14 25 -7 51 10 41 5 -4 9 -1 9 5 0 6 4 9 9 5 5 -3 12 -2 15 3 2 4 -31
9 -74 10 -60 1 -79 -1 -83 -12 -4 -10 4 -18 21 -25 18 -6 21 -10 9 -10 -10 -1
-29 10 -43 24 -29 30 -36 31 -32 8 2 -14 -3 -17 -21 -15 -21 3 -23 1 -19 -32
4 -39 0 -43 -22 -23 -10 8 -10 6 1 -8 8 -11 17 -38 18 -60 2 -22 8 -43 14 -47
7 -4 8 -8 2 -8 -6 0 -10 -15 -9 -32 1 -24 -22 -397 -26 -415 0 -2 -7 -3 -15
-3 -8 0 -15 -5 -15 -11 0 -5 -4 -7 -10 -4 -13 8 -13 2 2 -30 6 -14 16 -25 21
-25 6 0 8 -199 6 -540 l-4 -539 -25 -6 c-14 -3 -59 -25 -100 -49 -52 -30 -77
-40 -82 -32 -5 7 -8 5 -8 -5 0 -9 -7 -22 -15 -29 -10 -9 -15 -9 -15 -1 0 6 5
11 10 11 6 0 10 6 10 14 0 8 6 21 14 28 8 8 16 23 18 34 2 10 10 18 17 16 9
-2 10 4 6 19 -5 13 -3 19 3 15 6 -4 8 3 4 16 -5 21 -4 22 14 8 12 -9 10 -4 -5
13 -24 27 -43 39 -23 14 7 -8 8 -18 1 -27 -9 -13 -10 -13 -8 0 1 8 -1 23 -6
33 -12 28 3 33 28 9 28 -26 34 -27 34 -6 0 10 -13 22 -29 28 -15 6 -28 14 -28
19 0 4 -4 5 -10 2 -6 -3 -7 1 -4 9 3 9 10 14 15 11 4 -3 6 4 4 15 -2 11 0 20
6 20 13 0 11 27 -3 36 -8 5 -9 2 -5 -9 9 -24 0 -21 -14 4 -7 13 -7 19 -1 15 6
-3 13 -2 17 4 3 5 2 10 -4 10 -6 0 -13 11 -17 25 -6 24 -24 35 -24 15 0 -26
-9 -36 -62 -69 -21 -12 -38 -19 -39 -14 -1 4 -9 -17 -19 -47 -11 -31 -20 -46
-21 -35 -4 36 -5 40 -22 73 -10 17 -22 32 -27 32 -6 0 -10 5 -10 11 0 8 4 9
13 0 25 -20 27 1 3 33 -35 47 -42 61 -25 51 11 -7 11 -5 -1 9 -13 17 -16 9
-31 -83 -14 -84 -21 -106 -42 -125 -14 -13 -23 -27 -20 -30 3 -3 1 -11 -5 -18
-6 -7 -12 -17 -14 -23 -1 -5 -7 -9 -13 -7 -16 5 -66 55 -77 77 -10 18 -10 19
6 6 15 -12 17 -12 14 0 -2 8 -9 19 -17 25 -8 6 -12 20 -9 32 4 13 -1 27 -13
38 -10 9 -16 21 -13 25 18 30 -61 -16 -132 -77 -28 -24 -57 -44 -65 -44 -12 0
-12 2 0 9 7 5 11 13 7 19 -3 6 -2 13 4 17 6 4 8 11 4 16 -3 5 0 16 6 24 7 8 9
15 6 15 -4 0 0 10 8 22 17 24 20 39 9 37 -21 -3 -26 2 -13 12 12 8 10 9 -7 4
-24 -7 -33 9 -10 18 7 4 8 6 1 6 -6 1 -17 -6 -24 -14 -10 -12 -10 -15 0 -15
14 0 4 -14 -11 -16 -5 -1 -12 -2 -15 -3 -4 0 -1 -7 6 -15 6 -8 19 -12 28 -9
14 6 15 5 2 -9 -14 -15 -16 -16 -27 -1 -16 21 -16 21 -52 -60 -17 -37 -36 -67
-42 -67 -7 0 -9 3 -6 6 3 4 1 16 -4 27 -6 11 -12 31 -14 44 -1 14 -15 37 -30
52 -15 14 -25 19 -23 11 3 -8 1 -23 -3 -32 -6 -10 -5 -19 1 -23 6 -4 8 -11 5
-16 -4 -5 -2 -9 3 -9 6 0 12 -15 15 -32 3 -18 8 -44 13 -57 l7 -24 -35 26
c-49 38 -59 35 -46 -10 5 -21 14 -42 20 -48 7 -7 8 -3 4 12 -4 12 -2 24 5 29
8 4 9 3 5 -5 -4 -6 -1 -23 8 -36 20 -30 20 -35 1 -35 -8 0 -15 -4 -15 -10 0
-5 -6 -10 -13 -10 -23 0 -39 -42 -28 -70 5 -14 10 -19 10 -11 1 7 7 11 15 8
10 -4 12 0 9 14 -6 20 11 26 23 8 4 -8 9 -7 15 2 5 9 9 10 9 3 0 -7 7 -14 14
-17 11 -4 13 -1 10 11 -3 9 2 4 11 -11 14 -25 19 -27 33 -15 15 11 15 11 5 -3
-15 -19 1 -40 26 -32 13 4 14 3 1 -5 -8 -6 -18 -8 -24 -5 -5 4 -7 -1 -3 -10 3
-9 2 -19 -3 -22 -5 -3 -6 -15 -1 -28 5 -13 5 -78 0 -147 -4 -69 -13 -197 -19
-285 -6 -88 -13 -173 -15 -190 -2 -16 -6 -91 -10 -165 -4 -74 -9 -146 -10
-159 -2 -31 -33 -53 -59 -44 -12 3 -30 7 -42 9 -26 2 -64 26 -64 38 0 6 -7 1
-15 -10 -15 -19 -15 -19 -34 4 -23 26 -29 27 -52 6 -16 -14 -18 -12 -29 23 -7
21 -19 46 -28 56 -14 15 -13 17 3 17 18 0 18 1 -1 15 -10 8 -28 14 -39 15 -16
0 -17 -2 -5 -10 12 -8 12 -10 -4 -16 -10 -4 -21 -3 -25 2 -9 13 -34 11 -38 -3
-2 -6 1 -15 8 -19 8 -4 9 -3 5 4 -4 7 -1 12 7 12 7 0 14 -6 14 -12 0 -7 3 -27
7 -44 5 -24 3 -31 -9 -31 -9 0 -15 9 -15 24 0 14 -4 21 -10 18 -5 -3 -10 -25
-10 -48 0 -31 -3 -38 -10 -27 -8 12 -10 10 -11 -10 l-1 -25 -8 25 -8 25 -2
-25 c-2 -19 -3 -21 -7 -7 -4 15 -13 18 -47 16 -23 -2 -48 1 -54 5 -7 4 -24 5
-38 2 -31 -8 -32 -36 0 -36 13 0 26 -7 29 -14 4 -10 1 -13 -7 -10 -7 3 -21 -3
-31 -13 -13 -13 -17 -14 -13 -3 2 8 -1 21 -9 28 -7 7 -13 24 -13 38 0 19 -5
24 -27 25 l-28 1 30 8 c17 4 24 8 18 9 -7 0 -13 8 -13 16 0 9 -9 15 -22 15
-17 0 -19 -3 -9 -9 40 -25 -57 -20 -106 6 -30 16 -35 16 -43 3 -7 -10 -12 -12
-17 -4 -5 7 -16 8 -28 3 -19 -7 -19 -8 3 -8 12 -1 22 -6 22 -12 0 -7 -10 -9
-25 -7 -28 6 -29 4 -15 -23 9 -16 5 -24 -22 -49 -32 -29 -55 -40 -43 -20 4 6
-7 10 -25 10 -21 0 -29 -4 -24 -12 4 -6 3 -8 -4 -5 -13 9 -42 -2 -42 -15 0 -5
9 -6 20 -3 24 8 26 -1 5 -21 -8 -9 -15 -11 -15 -5 0 6 -11 11 -25 11 -29 0
-33 -14 -7 -30 16 -11 16 -11 -2 -6 -17 6 -17 5 -5 -11 12 -15 12 -16 -4 -10
-14 5 -16 3 -8 -12 6 -10 7 -21 4 -25 -3 -3 -1 -6 6 -6 9 0 7 -5 -3 -16 -10
-10 -29 -14 -53 -12 l-38 4 45 11 c40 10 42 11 15 13 l-30 2 30 8 30 8 -30 1
c-16 1 -37 6 -45 11 -11 7 -7 10 20 11 31 2 32 2 7 6 -16 3 -34 0 -40 -5 -8
-5 -21 -4 -37 4 l-25 14 33 0 c17 0 32 5 32 11 0 6 -8 8 -19 4 -23 -7 -39 14
-20 26 17 10 6 21 -23 23 -17 1 -23 7 -23 26 -1 14 -4 30 -8 37 -5 8 0 17 13
25 26 17 26 48 0 55 -20 5 -21 11 -16 112 3 58 8 171 11 251 7 188 24 467 31
505 3 17 11 41 17 54 8 16 9 25 2 28 -7 2 -8 29 -4 79 4 42 11 159 15 260 4
102 11 187 15 190 5 3 9 27 9 55 0 37 4 49 15 49 8 0 15 5 15 11 0 5 5 7 10 4
6 -3 10 -11 10 -16 0 -6 -4 -8 -9 -4 -18 10 -21 -13 -4 -26 14 -12 16 -12 8 0
-6 11 -4 13 9 8 14 -6 17 -3 12 10 -4 11 1 8 14 -7 11 -14 20 -20 20 -15 0 13
70 16 70 3 0 -5 4 -7 9 -4 5 4 14 -6 19 -21 l10 -28 1 32 c1 26 4 31 19 26 14
-5 15 -3 5 8 -7 7 -13 27 -12 44 0 16 3 24 6 18 2 -7 9 -13 14 -13 4 0 6 7 2
16 -4 12 0 14 23 9 21 -4 17 -1 -11 11 -36 14 -108 19 -174 12 -17 -2 -25 3
-28 17 -9 46 -10 64 -4 63 19 -2 22 4 10 20 -11 14 -11 15 1 5 21 -20 32 -15
20 7 -6 11 -9 24 -6 29 3 5 -2 15 -11 22 -15 12 -16 12 -10 -4 4 -11 3 -16 -3
-12 -6 3 -10 1 -10 -5 0 -6 -5 -8 -10 -5 -6 4 -8 11 -5 16 3 5 -1 6 -9 3 -9
-3 -16 -13 -16 -21 0 -8 -5 -11 -10 -8 -6 4 -8 16 -5 28 5 20 5 20 -5 4 -8
-12 -10 -40 -6 -75 5 -43 2 -62 -9 -77 -15 -19 -17 -18 -68 37 -56 60 -131
106 -143 87 -3 -6 -1 -15 6 -19 7 -4 9 -13 5 -21 -6 -9 -3 -11 9 -6 9 4 14 3
11 -2 -3 -5 -1 -12 4 -15 5 -4 12 2 14 11 3 11 5 8 6 -9 0 -16 5 -28 11 -28 5
0 7 7 4 15 -5 11 -2 13 10 9 9 -3 14 -10 11 -14 -3 -4 1 -13 8 -19 10 -8 14
-7 14 4 0 8 -5 11 -10 8 -6 -3 -7 -1 -3 6 11 17 23 5 36 -34 6 -19 16 -33 21
-30 5 4 9 2 9 -4 0 -6 6 -8 14 -5 8 3 17 0 22 -7 4 -8 3 -10 -4 -5 -12 7 -16
-10 -12 -49 l2 -20 -17 20 c-16 20 -16 20 -5 -2 10 -22 7 -27 -13 -24 -5 1 -6
-3 -2 -9 5 -8 11 -8 21 1 11 9 15 8 20 -5 3 -9 9 -14 13 -12 12 8 11 -92 -4
-264 -19 -224 -26 -299 -30 -324 -11 -74 -38 -453 -51 -716 -3 -69 -8 -141 -9
-160 -2 -19 -4 -41 -4 -49 -1 -7 -7 -11 -15 -8 -7 3 -19 0 -25 -6 -8 -8 -11
-8 -11 1 0 11 13 16 33 13 5 -1 6 3 2 8 -4 7 -15 7 -33 1 -24 -9 -25 -9 -9 4
16 13 16 14 -10 21 l-28 7 34 12 33 12 -26 12 c-15 7 -40 12 -56 12 -22 0 -28
4 -23 15 3 9 -2 24 -12 35 -16 18 -20 18 -51 5 l-33 -14 26 50 c23 42 25 53
15 69 -7 12 -8 20 -2 20 5 0 10 5 10 10 0 20 -26 9 -63 -26 -20 -20 -34 -41
-30 -47 3 -6 1 -7 -5 -3 -7 4 -17 16 -23 28 -7 13 -7 18 -1 14 6 -3 13 -2 17
4 3 5 1 10 -6 10 -8 0 -7 5 2 17 10 11 11 17 3 20 -7 2 -10 12 -7 22 2 9 -2
23 -9 29 -21 17 -54 -9 -68 -54 -10 -28 -16 -35 -35 -32 -14 2 -34 -7 -49 -21
-14 -14 -26 -20 -26 -15 0 5 -5 2 -11 -6 -9 -13 -10 -13 -6 1 3 9 0 23 -6 30
-10 11 -9 11 6 0 12 -9 17 -10 17 -2 0 6 -7 14 -15 17 -11 5 -12 11 -4 25 6
12 6 25 1 36 -8 14 -11 13 -17 -7 -6 -18 -9 -20 -16 -9 -7 12 -9 11 -9 -1 0
-13 -1 -13 -10 0 -6 9 -10 10 -10 3 0 -7 8 -17 18 -23 14 -10 13 -10 -9 -6
-18 4 -26 1 -26 -9 0 -8 4 -15 9 -15 4 0 8 -9 8 -19 0 -11 6 -22 13 -24 7 -3
6 -6 -5 -6 -9 -1 -20 -6 -24 -13 -5 -7 -2 -8 7 -3 10 6 11 5 4 -3 -6 -6 -29
-12 -53 -14 -30 -2 -41 -7 -37 -16 5 -14 -9 -8 -36 15 -14 12 -17 37 -18 151
-1 126 -12 368 -29 664 -6 99 -5 115 7 105 10 -9 9 -2 -3 22 -17 33 -17 34 0
27 17 -6 17 -6 1 12 -18 20 -23 72 -7 72 6 0 10 -12 10 -27 0 -23 2 -25 11
-13 9 12 10 11 6 -6 -3 -13 1 -21 9 -21 8 0 14 4 14 9 0 5 5 6 12 2 7 -5 9 -2
5 8 -3 9 1 24 8 35 13 17 16 14 38 -37 l25 -55 -4 45 c-2 25 -10 67 -18 95 -9
27 -13 51 -11 54 3 2 5 -2 5 -10 0 -11 2 -11 10 1 8 13 10 12 10 -2 0 -10 4
-18 10 -18 5 0 7 15 4 33 -4 28 -3 29 6 9 5 -13 17 -31 27 -40 16 -16 16 -16
10 1 -8 21 9 23 21 1 8 -14 12 -14 31 7 l22 24 -7 -29 c-6 -27 -6 -28 16 -16
18 9 20 14 9 21 -7 4 -10 11 -7 15 11 10 35 -19 30 -36 -4 -13 -3 -13 11 -2
13 11 15 10 10 -10 -4 -18 -3 -20 6 -8 9 13 11 12 12 -5 0 -11 3 -14 6 -7 2 6
9 10 14 6 5 -3 9 3 9 13 0 14 2 15 9 4 5 -8 7 -20 4 -28 -6 -16 9 -17 24 -2 9
9 14 5 19 -14 4 -17 11 -24 18 -20 6 4 5 -1 -3 -11 -13 -15 -15 -16 -23 -2 -5
9 -6 21 -3 26 3 6 2 10 -4 10 -17 0 -24 -22 -10 -31 8 -5 11 -9 7 -9 -5 0 0
-8 10 -18 15 -16 18 -16 30 -2 10 13 11 11 6 -12 -8 -36 12 -37 20 -1 5 17 3
29 -6 34 -10 7 -10 9 0 9 7 0 17 -12 22 -26 6 -14 15 -22 21 -19 6 4 10 1 8
-6 -3 -25 1 -40 9 -35 5 3 16 -11 26 -30 9 -20 12 -33 6 -29 -5 3 -10 1 -10
-4 0 -6 5 -11 10 -11 6 0 15 -10 20 -22 5 -14 9 -17 10 -8 1 11 4 9 11 -5 7
-15 7 -11 3 14 -8 45 -58 121 -131 201 -46 50 -59 71 -56 89 5 32 13 40 13 13
0 -24 16 -38 22 -20 3 8 11 4 24 -10 l19 -23 6 38 6 38 3 -40 2 -40 13 40 c8
25 14 32 15 20 l1 -20 10 20 c7 15 8 13 3 -12 -3 -19 1 -43 10 -60 17 -32 21
-18 6 24 -10 26 -9 27 5 8 14 -18 15 -17 9 15 -8 42 -22 62 -37 53 -6 -3 -7
-1 -3 6 4 6 0 14 -8 17 -20 8 -20 28 -1 44 8 7 12 16 9 21 -3 5 -1 9 5 9 5 0
15 -8 20 -17 10 -17 10 -17 11 1 0 15 3 16 14 7 11 -9 18 -8 30 4 15 15 16 15
18 -7 0 -13 4 0 8 27 7 49 7 50 9 10 1 -31 4 -37 12 -25 8 12 10 9 6 -12 -2
-16 0 -28 4 -28 5 0 9 10 10 23 0 21 1 21 9 2 6 -15 9 -8 12 30 l4 50 4 -55 3
-55 7 50 c5 32 3 55 -4 64 -9 12 -8 13 3 6 11 -6 13 -4 8 8 -3 9 0 23 8 31 8
7 11 17 7 21 -4 5 -2 5 5 1 6 -3 14 -2 18 4 4 6 -5 10 -20 10 -15 0 -24 -4
-20 -10 3 -5 -1 -10 -9 -10 -9 0 -16 -4 -16 -10 0 -5 -6 -8 -12 -6 -7 1 -10 1
-5 -1 13 -8 7 -21 -13 -26 -11 -3 -18 -2 -15 3 3 4 -3 11 -12 14 -9 4 -20 1
-25 -6 -6 -10 -8 -9 -8 3 0 17 -96 53 -113 42 -6 -3 -7 -1 -3 5 5 9 -48 19
-139 25 -17 1 -20 6 -16 31 4 30 5 30 11 7 6 -25 30 -42 30 -21 0 6 5 8 10 5
6 -3 10 -1 10 5 0 6 5 8 10 5 6 -3 10 4 11 17 1 21 2 21 7 3 8 -24 32 -31 32
-10 0 20 -4 30 -10 28 -3 -1 -7 10 -8 23 -1 18 2 23 11 18 9 -5 9 -4 0 7 -17
17 -16 24 4 45 17 16 13 17 -82 11 -55 -4 -109 -8 -120 -10 -15 -1 -20 3 -18
18 2 31 31 122 32 103 1 -10 9 -16 21 -15 23 1 25 10 9 39 -8 15 -8 19 0 14
16 -10 14 1 -5 29 -12 19 -14 28 -5 38 6 8 7 18 3 22 -4 5 -1 5 5 1 9 -5 11
-2 7 7 -3 10 -17 14 -37 12 -18 -1 -38 3 -46 9 -11 9 -13 7 -7 -10 5 -17 -18
-84 -29 -84 -5 0 0 24 8 37 12 20 4 75 -13 81 -24 9 -42 31 -35 42 3 5 1 10
-6 10 -8 0 -7 5 2 17 12 15 12 16 -1 8 -8 -5 -20 -10 -26 -11 -6 -1 -26 -17
-45 -36 -46 -47 -67 -54 -78 -25 -6 14 -4 27 3 36 8 11 8 13 0 8 -7 -4 -15 0
-18 9 -8 22 -8 26 4 19 6 -4 7 1 3 11 -4 10 -8 13 -10 7 -6 -17 -54 -5 -83 20
-14 13 -19 15 -11 5 7 -10 10 -18 6 -18 -4 0 -2 -7 5 -15 7 -9 10 -18 6 -22
-3 -3 -6 0 -6 8 0 11 -2 11 -10 -1 -5 -8 -10 -10 -11 -5 -7 48 -5 62 9 73 14
11 14 12 -4 13 -10 1 -29 3 -41 4 -16 2 -27 -7 -38 -29 -12 -22 -15 -25 -12
-8 3 12 1 23 -4 23 -5 1 -15 2 -21 3 -19 3 -29 -4 -22 -15 3 -6 12 -5 22 3 15
12 16 11 3 -5 -9 -12 -21 -15 -35 -11 -19 6 -19 5 -7 -10 8 -9 11 -19 7 -23
-3 -3 -6 0 -6 7 0 7 -3 10 -7 7 -3 -4 -12 1 -20 11 -12 15 -13 14 -8 -15 4
-18 2 -34 -5 -38 -10 -6 -8 -55 6 -148 3 -21 1 -27 -8 -21 -10 6 -10 4 0 -8
10 -13 10 -18 1 -24 -8 -5 -9 -3 -4 6 5 8 4 11 -3 7 -5 -4 -8 -16 -5 -27 8
-30 -4 -25 -67 30 -31 27 -60 47 -64 43 -3 -3 -6 -1 -6 5 0 16 -79 72 -102 72
-12 0 -18 -7 -18 -22 0 -19 -2 -20 -10 -8 -5 8 -10 11 -11 5 -7 -70 -6 -106 3
-111 6 -4 8 1 4 14 -4 11 -2 23 4 27 5 3 10 -1 10 -9 0 -9 5 -16 10 -16 12 0
12 -2 0 39 -5 20 -6 31 -1 25 15 -15 24 -61 13 -68 -6 -3 -8 -15 -5 -26 3 -11
9 -17 15 -14 5 3 4 12 -3 20 -8 10 -8 14 0 14 11 0 15 -13 12 -37 -1 -7 3 -13
8 -13 5 0 13 -10 17 -22 l8 -23 7 25 c7 23 7 23 8 -7 1 -18 6 -33 13 -33 6 0
8 -3 5 -6 -9 -10 32 -64 48 -64 8 0 17 -5 20 -10 4 -7 -2 -9 -18 -5 -21 6 -26
2 -31 -21 -5 -19 -10 -24 -15 -15 -6 10 -10 9 -15 -4 -10 -26 -7 -42 5 -25 8
12 10 12 7 1 -2 -8 -11 -15 -20 -17 -13 -1 -14 4 -7 35 5 20 9 39 9 44 0 8
-142 7 -185 -2 -20 -4 -26 -9 -17 -14 6 -5 12 -16 11 -25 0 -14 -2 -13 -10 3
-7 15 -8 6 -6 -32 2 -29 0 -53 -4 -53 -5 0 -9 24 -9 53 0 41 -4 54 -15 54 -9
0 -11 -4 -6 -11 5 -6 5 -20 1 -31 -7 -19 -7 -19 -18 1 -6 12 -8 25 -4 29 4 4
-19 -6 -50 -21 -31 -15 -54 -32 -51 -37 3 -6 1 -7 -5 -3 -13 8 -59 -30 -49
-41 4 -3 7 -2 7 4 0 5 7 10 15 10 12 0 14 -7 10 -28 -3 -15 -1 -30 4 -34 6 -3
11 -16 11 -28 0 -13 8 -34 17 -47 10 -14 17 -26 15 -27 -1 -2 -2 -9 -2 -15 0
-7 5 -5 11 4 5 10 9 24 7 32 -2 8 0 15 5 15 24 2 26 0 16 -25 -5 -15 -7 -29
-4 -32 3 -3 5 1 6 9 1 8 5 3 9 -11 l8 -25 2 25 c1 23 2 24 11 5 8 -18 8 -18 6
4 -1 13 4 26 11 28 7 3 12 -4 12 -18 0 -12 3 -20 6 -16 12 12 -6 56 -20 51
-11 -4 -13 0 -9 15 5 20 5 20 24 -2 l18 -22 1 25 c1 25 1 25 10 3 5 -13 17
-23 25 -23 9 0 13 -4 10 -10 -3 -5 -1 -10 5 -10 6 0 15 10 20 23 10 22 10 22
7 -2 -1 -18 -15 -32 -51 -51 -27 -15 -53 -36 -58 -46 -9 -18 -8 -18 6 0 16 19
16 19 18 -5 0 -13 3 -37 5 -54 2 -16 4 -38 5 -47 2 -12 6 -14 14 -7 8 7 14 6
17 -3 4 -9 6 -7 6 4 1 16 46 33 84 31 9 0 17 4 17 10 0 6 3 7 6 4 4 -4 1 -13
-5 -21 -10 -12 -9 -14 8 -9 10 3 22 15 26 26 6 22 6 22 15 2 l9 -20 1 20 1 20
9 -20 c5 -11 9 -16 9 -11 1 6 8 1 16 -10 9 -12 14 -14 15 -6 0 7 5 10 10 7 6
-3 10 -1 10 5 0 6 5 8 10 5 6 -3 10 0 10 7 1 8 6 6 15 -6 15 -19 15 -19 16 5
1 23 1 23 14 -5 12 -29 13 -29 20 -7 9 30 24 10 17 -24 -2 -13 3 -36 11 -52
11 -19 21 -91 31 -217 8 -104 18 -192 23 -195 4 -3 9 -24 10 -46 2 -22 7 -41
12 -43 6 -2 7 -10 4 -19 -4 -10 -2 -14 5 -10 7 5 11 -72 11 -272 0 -242 -2
-280 -15 -285 -14 -5 -14 -8 0 -22 20 -19 12 -34 -17 -33 -21 0 -21 1 -2 9
l20 9 -20 2 c-11 1 -26 2 -32 2 -7 -1 -14 9 -14 21 -1 15 -3 13 -8 -9 -5 -21
-3 -36 8 -49 15 -18 15 -19 -1 -13 -10 3 -19 0 -22 -9 -10 -27 -27 -3 -24 34
3 30 -1 37 -17 39 -11 2 -35 6 -52 9 -20 4 -33 2 -33 -4 0 -5 -11 -13 -25 -16
-28 -7 -32 -21 -11 -33 8 -4 16 -24 18 -43 2 -27 8 -35 23 -36 34 -2 36 -3 24
-25 -9 -18 -8 -24 5 -31 9 -5 14 -13 11 -19 -9 -14 -25 -11 -25 6 0 19 -19 19
-26 0 -4 -8 -10 -12 -16 -9 -11 7 -39 -27 -31 -39 2 -4 14 -5 26 -2 20 6 21 5
5 -8 -10 -8 -15 -17 -11 -20 3 -4 -2 -7 -13 -8 -10 0 -14 -3 -7 -5 14 -6 73
23 73 36 0 6 4 10 10 10 14 0 70 61 70 76 0 23 36 36 50 18 11 -12 10 -17 -5
-28 -11 -8 -15 -18 -10 -26 5 -8 4 -11 -3 -6 -6 3 -13 2 -17 -4 -9 -14 8 -12
41 5 40 21 54 19 49 -6 -3 -17 0 -20 15 -16 19 5 20 0 19 -81 -1 -59 -4 -79
-9 -62 -4 14 -8 19 -9 11 -1 -11 -4 -11 -14 3 -15 20 -54 18 -49 -3 2 -8 -4
-10 -18 -6 -16 5 -20 2 -20 -19 0 -14 -5 -26 -11 -26 -5 0 -7 -5 -4 -11 5 -7
13 -5 25 6 12 11 20 13 25 6 3 -6 1 -11 -4 -11 -6 0 -11 -6 -11 -14 0 -8 -7
-16 -15 -20 -8 -3 -15 0 -15 6 0 6 -3 8 -6 5 -4 -4 -1 -13 6 -22 15 -18 -2
-45 -28 -45 -21 0 -12 -6 21 -14 24 -6 27 -4 27 20 0 17 6 28 20 31 11 3 20 9
20 14 0 12 56 40 64 32 8 -9 -14 -33 -30 -33 -8 0 -13 -6 -12 -12 2 -7 -7 -14
-20 -16 -14 -2 -27 -14 -33 -30 -5 -15 -14 -35 -20 -46 -8 -14 -8 -21 1 -26 8
-5 7 -9 -5 -14 -23 -9 -27 -8 -19 5 4 6 -4 5 -17 -2 l-24 -14 28 -3 c26 -3 37
-25 17 -37 -5 -3 -10 -13 -10 -21 0 -17 41 -19 57 -3 13 13 56 2 48 -12 -4 -5
0 -9 8 -9 7 0 19 -11 25 -25 15 -32 15 -35 2 -35 -5 0 -9 5 -7 12 2 13 -39 38
-65 38 -29 0 -20 -16 15 -28 l32 -10 -32 -1 c-53 -2 -38 -20 20 -23 l52 -4
-62 -8 c-65 -9 -86 -26 -32 -26 20 0 28 -4 23 -12 -5 -8 4 -9 32 -5 23 4 33 3
25 -2 -11 -7 -10 -11 5 -20 16 -9 17 -10 2 -11 -9 0 -18 4 -20 9 -1 4 -23 10
-48 13 -25 3 -37 3 -27 1 21 -5 21 -10 3 -29 -9 -9 -17 -10 -21 -4 -3 5 -15
10 -26 10 -22 0 -65 39 -61 57 5 23 -20 25 -49 4 -30 -23 -49 -21 -49 5 0 20
-36 18 -52 -4 -7 -10 -25 -17 -41 -17 -27 0 -28 2 -22 33 6 31 5 33 -14 23
-10 -6 -21 -16 -23 -22 -3 -9 -10 -9 -26 0 -13 7 -35 10 -50 8 l-27 -4 28 -2
c29 -1 38 -21 10 -22 -10 0 -4 -6 14 -12 38 -14 52 -27 31 -27 -9 0 -15 -8
-14 -17 1 -14 -5 -17 -24 -15 -14 2 -31 9 -37 14 -9 7 -13 7 -13 -1 0 -6 5
-11 11 -11 6 0 8 -8 4 -19 -4 -13 0 -23 11 -29 14 -8 14 -12 3 -30 -17 -26
-44 -34 -75 -20 -20 9 -24 19 -24 54 0 24 4 45 9 48 5 3 7 15 4 25 -6 23 -43
36 -43 15 0 -8 8 -14 18 -15 13 0 14 -2 2 -6 -8 -3 -19 -11 -23 -17 -6 -7 -7
-6 -4 4 2 8 -2 30 -9 48 -12 29 -12 37 1 55 8 12 15 34 15 49 0 31 17 36 50
16 25 -16 38 -3 22 23 -10 16 -9 24 4 44 16 25 14 29 -18 26 -10 -1 -18 4 -18
13 0 17 -78 33 -107 22 -15 -6 -15 -8 -3 -16 11 -7 12 -10 2 -10 -7 0 -10 -5
-6 -12 5 -7 3 -8 -6 -3 -8 5 -18 1 -26 -9 -8 -12 -26 -18 -48 -18 -28 0 -36
-4 -37 -19 -1 -10 -3 -23 -4 -29 -1 -5 -3 -14 -4 -20 -2 -18 -31 -11 -31 8 0
14 -7 17 -40 14 -35 -4 -40 -1 -40 16 0 31 -17 36 -24 7 -4 -14 -11 -25 -16
-25 -15 0 -22 20 -11 33 6 8 6 18 1 27 -7 11 -11 12 -25 0 -9 -7 -13 -20 -10
-29 5 -13 4 -14 -6 -3 -7 6 -18 12 -23 12 -6 0 -4 -5 4 -10 9 -6 11 -13 5 -17
-16 -13 -16 -33 0 -27 8 4 13 10 10 14 -3 5 4 6 15 3 24 -6 17 -23 -10 -23
-26 0 -34 -18 -18 -37 9 -12 9 -15 1 -9 -9 5 -13 -1 -13 -23 0 -18 7 -34 18
-40 15 -9 15 -10 -5 -11 -21 0 -22 3 -21 103 1 93 3 103 22 114 11 7 15 12 8
13 -7 0 -10 5 -7 10 4 6 11 8 16 5 5 -4 9 -1 9 4 0 6 -8 11 -17 11 -15 0 -16
2 -3 10 12 8 11 10 -6 10 -12 0 -24 6 -27 13 -11 28 -16 3282 -6 3265 7 -10 9
-9 9 5 0 13 -9 17 -40 17 l-40 0 0 -222z m4723 158 c4 -10 1 -13 -8 -9 -8 3
-12 9 -9 14 7 12 11 11 17 -5z m2084 -28 c-3 -8 -6 -5 -6 6 -1 11 2 17 5 13 3
-3 4 -12 1 -19z m860 -30 c-3 -7 -5 -2 -5 12 0 14 2 19 5 13 2 -7 2 -19 0 -25z
m-870 -13 c0 -8 -5 -15 -11 -15 -6 0 -3 -5 7 -11 9 -5 17 -19 17 -30 0 -11 5
-17 10 -14 6 4 10 3 9 -2 -1 -4 -1 -30 0 -58 1 -38 4 -47 12 -35 8 12 10 8 6
-15 -3 -16 -1 -39 3 -50 6 -14 9 -16 10 -5 2 8 2 18 1 23 0 4 3 7 8 7 14 0 22
-30 8 -31 -9 0 -9 -2 0 -6 10 -4 13 -212 13 -991 0 -543 -3 -996 -6 -1007 -6
-23 -54 -54 -100 -65 -25 -6 -35 -3 -48 12 -14 16 -20 17 -32 8 -11 -10 -17
-10 -28 -1 -12 10 -17 8 -26 -8 -6 -12 -14 -20 -18 -20 -4 1 -9 1 -12 -1 -3
-1 -16 -3 -30 -6 -81 -14 -130 -26 -135 -35 -4 -5 -11 -9 -16 -9 -6 0 -7 5 -3
12 4 7 3 8 -4 4 -7 -4 -23 1 -36 11 l-25 18 -1 265 c-2 286 -2 949 0 1521 1
196 5 370 10 385 4 16 9 21 9 12 1 -22 24 -23 46 -2 8 9 22 14 30 11 7 -3 19
1 26 9 8 10 15 12 23 4 7 -7 14 -3 24 12 7 13 11 16 8 6 -9 -32 9 -29 20 4 7
18 13 26 13 17 1 -21 36 -31 66 -19 13 5 26 6 29 3 3 -4 6 8 6 25 0 18 4 32
10 32 5 0 7 -8 5 -17 -3 -10 0 -6 7 8 12 24 14 25 30 9 9 -8 22 -27 27 -40 7
-19 10 -20 10 -7 1 10 5 16 10 12 16 -9 23 15 9 32 -16 20 -18 62 -3 56 7 -2
12 -10 12 -18z m271 -40 c-3 -3 -9 2 -12 12 -6 14 -5 15 5 6 7 -7 10 -15 7
-18z m571 -28 c1 -5 -3 -5 -9 -2 -5 3 -10 16 -9 28 0 21 1 21 9 2 5 -11 9 -24
9 -28z m-1442 -44 c-2 -16 -4 -5 -4 22 0 28 2 40 4 28 2 -13 2 -35 0 -50z
m1081 42 c-3 -3 -9 2 -12 12 -6 14 -5 15 5 6 7 -7 10 -15 7 -18z m-664 -11 c3
-8 2 -12 -4 -9 -6 3 -10 10 -10 16 0 14 7 11 14 -7z m-384 -20 c0 -8 -5 -12
-10 -9 -6 4 -8 11 -5 16 9 14 15 11 15 -7z m1143 -74 c5 -27 4 -31 -4 -17 -6
9 -14 15 -18 13 -4 -3 -8 0 -8 7 0 7 -3 19 -5 27 -3 8 -3 12 -1 8 11 -20 21
-5 13 18 -14 37 -11 44 4 9 7 -16 16 -46 19 -65z m124 -12 c-3 -8 -6 -5 -6 6
-1 11 2 17 5 13 3 -3 4 -12 1 -19z m50 -60 c-3 -7 -5 -2 -5 12 0 14 2 19 5 13
2 -7 2 -19 0 -25z m60 10 c-3 -8 -6 -5 -6 6 -1 11 2 17 5 13 3 -3 4 -12 1 -19z
m-563 -24 c3 -8 2 -12 -4 -9 -6 3 -10 10 -10 16 0 14 7 11 14 -7z m-1547 -31
c-3 -10 -5 -4 -5 12 0 17 2 24 5 18 2 -7 2 -21 0 -30z m-80 -5 c-3 -8 -6 -5
-6 6 -1 11 2 17 5 13 3 -3 4 -12 1 -19z m1630 -35 c-3 -10 -5 -2 -5 17 0 19 2
27 5 18 2 -10 2 -26 0 -35z m20 -40 c-3 -10 -5 -4 -5 12 0 17 2 24 5 18 2 -7
2 -21 0 -30z m26 -76 c-11 -18 -23 32 -16 66 l7 32 8 -44 c4 -24 5 -48 1 -54z
m64 78 c0 -8 -4 -15 -9 -15 -10 0 -11 14 -1 23 9 10 10 9 10 -8z m-1521 -51
c-4 -9 -9 -15 -11 -12 -3 3 -3 13 1 22 4 9 9 15 11 12 3 -3 3 -13 -1 -22z
m-96 -7 c0 -2 -9 -12 -20 -22 -17 -16 -20 -16 -20 -2 0 8 8 18 18 20 9 3 18 5
20 6 1 0 2 -1 2 -2z m-4300 -134 c0 -19 -13 -9 -16 12 -1 8 2 13 7 9 5 -3 9
-12 9 -21z m6916 -65 l-11 -53 -3 39 c-4 42 2 66 16 66 5 0 4 -24 -2 -52z
m-6810 4 c1 -9 5 -28 9 -42 4 -16 1 -13 -9 9 -16 34 -22 70 -9 57 4 -3 8 -14
9 -24z m7064 -2 c6 -11 8 -20 6 -20 -3 0 -10 9 -16 20 -6 11 -8 20 -6 20 3 0
10 -9 16 -20z m-332 -13 c8 -10 6 -13 -7 -13 -10 0 -18 6 -18 13 0 7 4 13 7
13 4 0 12 -6 18 -13z m43 -43 l-9 -39 -1 41 c-1 22 2 44 6 48 12 12 14 -8 4
-50z m-7014 14 c-3 -7 -5 -2 -5 12 0 14 2 19 5 13 2 -7 2 -19 0 -25z m151 -23
c-3 -3 -9 2 -12 12 -6 14 -5 15 5 6 7 -7 10 -15 7 -18z m6733 8 c12 -14 12
-16 0 -8 -11 6 -13 4 -8 -9 4 -10 3 -15 -3 -11 -9 6 -15 45 -6 45 2 0 10 -8
17 -17z m-6776 -2 c-3 -5 4 -16 15 -24 20 -14 20 -14 -6 -14 -16 0 -21 3 -14
7 9 5 9 9 1 14 -10 7 -6 26 5 26 3 0 3 -4 -1 -9z m-370 -21 c3 -5 1 -10 -4
-10 -6 0 -11 5 -11 10 0 6 2 10 4 10 3 0 8 -4 11 -10z m585 -7 c0 -7 -4 -13
-8 -13 -4 0 -9 -12 -10 -27 -1 -15 -8 -33 -15 -40 -9 -10 -12 -5 -11 23 1 20
7 40 15 45 12 8 12 10 -1 19 -12 7 -10 9 8 7 12 0 22 -7 22 -14z m-550 3 c0
-3 -4 -8 -10 -11 -5 -3 -10 -1 -10 4 0 6 5 11 10 11 6 0 10 -2 10 -4z m712
-38 c-8 -8 -9 -4 -5 13 4 13 8 18 11 10 2 -7 -1 -18 -6 -23z m-672 2 c6 -11 9
-20 7 -20 -2 0 -12 9 -22 20 -10 11 -13 20 -7 20 6 0 16 -9 22 -20z m-1720 0
c0 -5 -4 -10 -10 -10 -5 0 -10 5 -10 10 0 6 5 10 10 10 6 0 10 -4 10 -10z
m9337 -57 c-2 -16 -4 -5 -4 22 0 28 2 40 4 28 2 -13 2 -35 0 -50z m-9544 33
c-10 -13 -20 -22 -22 -20 -2 2 1 10 7 17 7 8 9 17 5 20 -3 4 1 7 11 7 16 0 16
-2 -1 -24z m200 -23 c-4 -11 -2 -14 5 -9 7 4 15 0 18 -9 6 -13 9 -14 16 -3 5
8 6 4 3 -13 -5 -20 -1 -30 13 -40 11 -8 21 -23 23 -33 2 -11 9 -18 14 -15 6 2
9 7 8 12 -4 9 11 9 20 1 3 -4 0 -13 -8 -21 -8 -8 -15 -20 -15 -26 0 -7 8 -3
17 8 12 16 14 16 10 3 -3 -10 -2 -20 3 -23 6 -4 10 1 10 9 0 9 9 16 20 16 14
0 20 -7 20 -22 0 -12 3 -19 6 -15 4 3 14 -1 23 -10 15 -15 16 -15 19 0 2 10 8
14 14 11 6 -4 5 2 -1 15 -14 25 0 28 22 4 12 -14 15 -43 16 -125 0 -64 -3
-108 -9 -108 -17 0 -25 5 -22 13 1 4 -12 7 -30 7 -43 0 -148 -62 -225 -133
-42 -40 -72 -27 -53 23 1 3 1 10 0 15 -14 65 -8 89 9 33 8 -27 9 -21 6 33 -2
36 -5 70 -6 75 -1 5 3 22 9 37 15 35 15 40 0 31 -8 -5 -9 -2 -5 11 4 9 2 24
-4 31 -9 11 -8 15 4 20 9 3 18 12 21 20 4 10 2 13 -7 8 -6 -4 -4 2 6 13 9 11
14 23 10 28 -5 5 9 -1 29 -12 l36 -21 -20 34 c-11 18 -18 39 -15 46 2 7 0 22
-5 32 -6 10 -14 31 -18 47 -6 21 -5 27 5 23 8 -3 11 -13 8 -21z m2178 4 c-10
-9 -11 -8 -5 6 3 10 9 15 12 12 3 -3 0 -11 -7 -18z m-390 -4 c8 -9 9 -14 2
-10 -6 4 -13 1 -16 -5 -3 -7 -4 -3 -4 10 1 26 1 26 18 5z m19 -39 c0 -8 -5
-12 -10 -9 -6 4 -8 11 -5 16 9 14 15 11 15 -7z m577 -26 c-3 -7 -5 -2 -5 12 0
14 2 19 5 13 2 -7 2 -19 0 -25z m-2224 -8 c3 -11 1 -18 -4 -14 -5 3 -9 12 -9
20 0 20 7 17 13 -6z m1614 -83 c6 1 9 -6 6 -17 -3 -11 -7 -20 -10 -20 -11 0
-33 73 -32 107 1 36 2 35 13 -17 7 -30 17 -54 23 -53z m660 84 c0 -11 -5 -18
-9 -15 -4 3 -5 11 -1 19 7 21 12 19 10 -4z m6361 -80 c-15 -6 -20 7 -12 31 l8
23 6 -25 c3 -14 2 -27 -2 -29z m-6408 -4 c0 -5 -4 -5 -10 -2 -5 3 -10 14 -10
23 0 15 2 15 10 2 5 -8 10 -19 10 -23z m46 -15 c-12 -11 -18 7 -10 30 l8 23 4
-23 c2 -13 1 -26 -2 -30z m-2489 -4 c-3 -7 -5 -2 -5 12 0 14 2 19 5 13 2 -7 2
-19 0 -25z m9299 -38 c1 -16 -2 -27 -7 -24 -14 8 -9 54 5 54 1 0 2 -13 2 -30z
m-7418 -5 c-3 -3 -9 2 -12 12 -6 14 -5 15 5 6 7 -7 10 -15 7 -18z m-1881 -48
c1 -39 1 -40 -9 -14 -8 23 -6 57 4 57 2 0 4 -19 5 -43z m1653 39 c0 -3 -4 -8
-10 -11 -5 -3 -10 -1 -10 4 0 6 5 11 10 11 6 0 10 -2 10 -4z m95 -22 c-8 -9
-15 -20 -15 -26 0 -6 -3 -8 -7 -5 -9 10 18 58 29 51 4 -3 1 -12 -7 -20z m-122
-38 c8 -51 -3 -39 -13 14 -4 23 -4 38 0 33 4 -4 10 -25 13 -47z m61 38 c3 -8
2 -12 -4 -9 -6 4 -10 -5 -10 -20 0 -17 4 -24 12 -19 7 4 8 3 4 -4 -4 -7 -11
-12 -15 -12 -13 0 -19 46 -9 64 11 20 14 20 22 0z m145 -40 c1 -6 -6 -11 -14
-11 -16 0 -19 15 -8 43 6 16 7 16 14 -2 4 -10 8 -24 8 -30z m858 24 c-3 -8 -6
-5 -6 6 -1 11 2 17 5 13 3 -3 4 -12 1 -19z m-980 -10 c-3 -8 -6 -5 -6 6 -1 11
2 17 5 13 3 -3 4 -12 1 -19z m186 6 c-3 -8 -10 -12 -16 -11 -7 1 -11 -3 -10
-9 1 -6 -5 -11 -13 -11 -18 0 -18 3 4 25 20 21 42 25 35 6z m7214 -16 c-3 -8
-6 -5 -6 6 -1 11 2 17 5 13 3 -3 4 -12 1 -19z m-7618 -31 l-2 -32 -6 35 c-6
32 -7 34 -18 15 -7 -11 -13 -15 -13 -9 0 14 22 34 32 28 4 -3 7 -20 7 -37z
m161 11 c0 -18 -2 -20 -9 -8 -6 8 -7 18 -5 22 9 14 14 9 14 -14z m991 -15
c-12 -20 -14 -14 -5 12 4 9 9 14 11 11 3 -2 0 -13 -6 -23z m-1124 -35 c-3 -8
-6 -5 -6 6 -1 11 2 17 5 13 3 -3 4 -12 1 -19z m1633 2 c0 -5 -5 -10 -11 -10
-5 0 -7 5 -4 10 3 6 8 10 11 10 2 0 4 -4 4 -10z m-1169 -27 c13 -16 12 -17 -3
-4 -17 13 -22 21 -14 21 2 0 10 -8 17 -17z m-557 -19 c-4 -38 -14 -42 -14 -6
0 18 4 32 9 32 4 0 7 -12 5 -26z m83 -16 c-3 -7 -5 -2 -5 12 0 14 2 19 5 13 2
-7 2 -19 0 -25z m1040 10 c-3 -8 -6 -5 -6 6 -1 11 2 17 5 13 3 -3 4 -12 1 -19z
m-2253 -22 c-2 -6 3 -20 11 -31 15 -19 16 -18 10 15 -4 26 -3 30 4 15 14 -29
13 -93 -1 -101 -8 -5 -9 0 -6 14 4 14 2 20 -4 16 -6 -4 -20 -8 -32 -8 -11 -1
-20 -7 -18 -14 1 -7 -2 -12 -8 -12 -24 0 -7 30 23 39 17 5 24 10 15 10 -12 1
-18 9 -18 24 0 18 -2 19 -10 7 -6 -9 -10 -10 -10 -3 0 6 5 15 10 18 6 3 10 15
10 27 0 17 3 18 14 8 8 -6 13 -17 10 -24z m152 22 c4 -7 3 -8 -4 -4 -8 5 -12
-1 -12 -16 -1 -21 -1 -22 -11 -4 -9 14 -8 20 2 27 18 11 17 11 25 -3z m1246
-18 c3 -17 1 -33 -4 -36 -4 -3 -8 11 -8 30 0 44 6 47 12 6z m-2099 0 c-5 -19
-23 -29 -23 -12 0 7 20 32 26 32 1 0 0 -9 -3 -20z m3144 -12 c-3 -7 -5 -2 -5
12 0 14 2 19 5 13 2 -7 2 -19 0 -25z m6560 10 c-3 -8 -6 -5 -6 6 -1 11 2 17 5
13 3 -3 4 -12 1 -19z m-7700 -24 c-4 -15 -5 -14 -6 4 -1 15 -5 21 -13 16 -7
-5 -8 -3 -3 5 10 18 28 -2 22 -25z m378 6 c-21 -16 -42 -30 -47 -30 -11 0 7
19 42 42 42 28 45 20 5 -12z m783 -37 c-1 -21 2 -51 7 -67 5 -19 4 -27 -2 -23
-15 9 -24 62 -16 97 8 41 13 38 11 -7z m6262 -20 c-11 -17 -11 -17 -6 0 3 10
7 28 7 40 2 22 2 22 6 0 2 -12 -1 -30 -7 -40z m-9412 26 c3 -11 1 -11 -7 1 -9
12 -11 10 -12 -10 0 -23 -1 -23 -9 -5 -13 29 -12 33 7 31 9 -2 19 -9 21 -17z
m632 6 c0 -8 -2 -15 -4 -15 -2 0 -6 7 -10 15 -3 8 -1 15 4 15 6 0 10 -7 10
-15z m2457 -42 c-3 -10 -5 -4 -5 12 0 17 2 24 5 18 2 -7 2 -21 0 -30z m-777
17 c0 -5 -2 -10 -4 -10 -3 0 -8 5 -11 10 -3 6 -1 10 4 10 6 0 11 -4 11 -10z
m7201 -7 c13 -16 12 -17 -3 -4 -10 7 -18 15 -18 17 0 8 8 3 21 -13z m-9484
-45 c-3 -7 -5 -2 -5 12 0 14 2 19 5 13 2 -7 2 -19 0 -25z m1993 28 c0 -2 -8
-10 -17 -17 -16 -13 -17 -12 -4 4 13 16 21 21 21 13z m-1333 -12 c-3 -3 -12
-4 -19 -1 -8 3 -5 6 6 6 11 1 17 -2 13 -5z m1863 -8 c0 -3 -4 -8 -10 -11 -5
-3 -10 -1 -10 4 0 6 5 11 10 11 6 0 10 -2 10 -4z m-2484 -43 c20 -27 16 -38
-6 -18 -20 18 -26 35 -14 35 4 0 13 -8 20 -17z m2454 -3 c2 18 4 20 7 7 2 -10
12 -16 21 -15 14 3 18 -9 24 -67 4 -38 12 -113 17 -165 29 -268 44 -969 22
-955 -5 3 -12 1 -15 -4 -3 -5 1 -11 9 -15 8 -3 15 -16 15 -30 0 -17 -7 -25
-25 -28 -30 -6 -34 11 -5 19 11 3 20 9 20 14 0 16 -63 14 -68 -2 -2 -5 -10 -9
-18 -9 -8 0 -19 -10 -24 -22 -7 -18 -9 -8 -9 39 -1 34 4 65 9 68 16 10 12 33
-7 37 -15 3 -15 4 1 21 15 15 15 17 2 17 -12 0 -16 12 -17 53 0 28 -2 63 -4
77 -2 25 -9 230 -21 670 -6 215 -5 226 14 246 11 11 23 31 28 45 l8 24 7 -25
7 -25 2 25z m-2413 -22 c-3 -8 -6 -5 -6 6 -1 11 2 17 5 13 3 -3 4 -12 1 -19z
m1910 -30 c-3 -7 -5 -2 -5 12 0 14 2 19 5 13 2 -7 2 -19 0 -25z m3306 -1 c-3
-5 -10 -4 -15 1 -6 6 -7 16 -3 22 6 9 9 9 16 -1 4 -7 5 -17 2 -22z m-5437 -3
c-4 -9 -9 -15 -11 -12 -3 3 -3 13 1 22 4 9 9 15 11 12 3 -3 3 -13 -1 -22z
m234 -19 c0 -5 -5 -3 -10 5 -5 8 -10 20 -10 25 0 6 5 3 10 -5 5 -8 10 -19 10
-25z m597 2 c6 -71 -37 -130 -51 -72 -4 15 -11 23 -17 19 -7 -4 -7 1 0 15 7
12 10 25 7 30 -3 4 7 6 22 3 15 -3 24 -1 20 3 -6 6 7 35 16 35 0 0 2 -15 3
-33z m8790 11 c-3 -8 -6 -5 -6 6 -1 11 2 17 5 13 3 -3 4 -12 1 -19z m71 -39
c-13 -8 -37 17 -38 40 0 10 8 7 25 -9 18 -17 22 -26 13 -31z m-9441 9 c-3 -8
-6 -5 -6 6 -1 11 2 17 5 13 3 -3 4 -12 1 -19z m2273 -140 c0 -85 -3 -127 -10
-123 -6 4 -7 12 -3 18 4 7 -2 5 -12 -3 -10 -8 -16 -10 -12 -3 4 6 2 24 -4 40
-12 31 -22 113 -14 113 3 0 10 -10 15 -22 7 -19 9 -19 9 -5 1 11 5 15 13 11 7
-4 8 -3 4 5 -4 6 -12 9 -17 6 -5 -4 -9 -2 -9 4 0 5 -3 18 -6 28 -6 16 -5 16
10 -2 l16 -20 -6 20 c-3 11 -11 31 -17 44 -9 19 -9 25 1 28 6 3 9 10 5 16 -3
7 3 3 15 -7 20 -18 22 -28 22 -148z m2310 130 c0 -12 -3 -18 -7 -14 -10 10
-11 46 -1 40 4 -3 8 -15 8 -26z m-4800 12 c0 -5 -5 -10 -11 -10 -5 0 -7 5 -4
10 3 6 8 10 11 10 2 0 4 -4 4 -10z m5143 -6 c-7 -3 -9 -12 -6 -20 4 -11 9 -9
22 8 14 17 18 18 18 5 0 -9 -5 -13 -10 -10 -6 4 -8 -1 -4 -11 4 -10 10 -30 13
-44 4 -15 12 -34 17 -42 9 -13 9 -13 -3 -2 -8 7 -20 27 -27 45 l-11 32 -1 -33
-1 -33 -31 23 c-30 23 -30 23 -10 39 13 11 19 24 15 33 -4 11 -1 16 12 15 11
0 14 -3 7 -5z m-30 -19 c-4 -14 -30 -14 -30 0 0 7 7 12 16 10 9 -1 15 -6 14
-10z m-4406 -14 c0 -11 -5 -18 -9 -15 -4 3 -5 11 -1 19 7 21 12 19 10 -4z
m4863 -2 c12 -8 12 -9 -5 -7 -11 1 -27 -2 -35 -7 -13 -8 -13 -7 -1 8 16 20 21
20 41 6z m-5673 -46 c-3 -10 -5 -4 -5 12 0 17 2 24 5 18 2 -7 2 -21 0 -30z
m5193 6 c0 -5 -9 -9 -20 -9 -17 0 -19 2 -8 14 13 14 28 12 28 -5z m450 1 c0
-5 -8 -10 -17 -10 -15 0 -16 2 -3 10 19 12 20 12 20 0z m23 -5 c-3 -9 -8 -14
-10 -11 -3 3 -2 9 2 15 9 16 15 13 8 -4z m51 -1 c3 -8 2 -12 -4 -9 -6 3 -10
10 -10 16 0 14 7 11 14 -7z m-5657 -26 c-3 -8 -6 -5 -6 6 -1 11 2 17 5 13 3
-3 4 -12 1 -19z m1043 0 c0 -19 -2 -20 -10 -8 -13 19 -13 30 0 30 6 0 10 -10
10 -22z m4150 -34 c0 -12 6 -24 13 -27 6 -2 9 -7 6 -11 -20 -21 -64 39 -52 71
5 12 3 14 -7 8 -9 -6 -11 -4 -6 4 11 18 46 -16 46 -45z m-313 3 c0 -9 -4 -17
-9 -17 -4 0 -8 6 -8 14 0 8 -3 23 -7 33 -6 16 -5 16 8 3 9 -8 16 -23 16 -33z
m512 6 c-15 -18 -1 -35 24 -28 19 5 19 4 -3 -9 -23 -14 -23 -15 -5 -16 l20 -1
-20 -9 c-18 -8 -18 -9 -2 -9 10 -1 16 -5 12 -10 -3 -5 -1 -12 4 -16 5 -3 14 3
20 12 6 10 11 14 11 9 0 -4 -14 -26 -31 -48 -29 -36 -32 -38 -44 -21 -13 19
-16 155 -2 146 4 -2 7 1 7 6 0 6 -6 11 -12 11 -9 0 -8 3 2 10 18 11 33 -9 19
-27z m346 9 c-3 -3 -11 0 -18 7 -9 10 -8 11 6 5 10 -3 15 -9 12 -12z m-5504
-6 c16 9 10 -13 -8 -27 -14 -12 -17 -12 -21 0 -3 10 -9 7 -18 -10 -14 -24 -14
-24 -8 6 4 23 3 26 -5 15 -6 -8 -11 -10 -11 -4 0 21 14 24 38 8 23 -15 24 -15
18 8 -3 12 -3 17 0 10 3 -6 10 -10 15 -6z m5402 -1 c-3 -9 -8 -14 -10 -11 -3
3 -2 9 2 15 9 16 15 13 8 -4z m-650 -10 c-3 -9 -8 -14 -10 -11 -3 3 -2 9 2 15
9 16 15 13 8 -4z m-4069 -35 c-5 -5 -10 3 -11 18 -1 22 0 24 9 8 6 -10 6 -22
2 -26z m4345 -2 c14 -16 22 -28 18 -28 -12 0 -57 48 -57 61 0 7 3 9 8 4 4 -6
18 -22 31 -37z m223 0 c-10 -22 -10 -21 -9 9 1 19 6 28 11 23 6 -6 5 -18 -2
-32z m30 17 c-2 -14 -6 -25 -8 -25 -2 0 -4 11 -4 25 0 14 4 25 9 25 4 0 6 -11
3 -25z m-158 -35 c1 -23 0 -43 -4 -45 -3 -2 -15 12 -28 31 -12 19 -18 34 -13
34 6 0 15 -8 21 -17 11 -17 11 -17 6 -1 -3 10 -1 20 5 23 5 4 6 12 3 18 -4 7
-4 9 1 5 4 -4 8 -26 9 -48z m-5074 -19 c0 -11 -3 -11 -15 -1 -8 7 -12 17 -8
23 4 6 0 8 -10 4 -10 -3 -17 -2 -17 2 0 32 49 4 50 -28z m296 13 c-4 -9 -9
-15 -11 -12 -3 3 -3 13 1 22 4 9 9 15 11 12 3 -3 3 -13 -1 -22z m4921 -16 c-3
-8 -6 -5 -6 6 -1 11 2 17 5 13 3 -3 4 -12 1 -19z m-4913 -29 c-3 -5 -10 -7
-15 -4 -5 4 -9 0 -9 -7 0 -10 -3 -9 -10 2 -6 9 -5 17 2 21 15 9 40 0 32 -12z
m4645 -15 c1 -1 1 -7 0 -13 -3 -6 -16 -2 -34 10 l-30 20 30 -7 c17 -4 32 -8
34 -10z m94 -22 c10 -18 17 -37 14 -44 -3 -8 -9 -1 -16 15 -15 39 -21 34 -10
-9 6 -19 9 -46 7 -59 -5 -38 -27 -16 -37 38 -5 31 -5 44 2 40 6 -3 7 -1 3 5
-4 7 -14 12 -22 12 -8 0 -13 4 -9 10 3 5 12 7 19 4 8 -3 17 0 22 7 4 7 3 10
-4 5 -6 -3 -13 -2 -16 3 -4 5 2 8 11 7 10 -2 26 -17 36 -34z m-4913 8 c0 -5
-5 -10 -11 -10 -5 0 -7 5 -4 10 3 6 8 10 11 10 2 0 4 -4 4 -10z m2117 -47 c-1
-25 -3 -40 -5 -34 -2 6 -3 13 -2 17 1 4 -4 11 -12 15 -10 7 -10 9 0 9 18 0 15
21 -5 36 -17 12 -16 13 4 8 19 -5 21 -12 20 -51z m2496 7 c4 0 12 -11 17 -24
6 -18 20 -27 45 -32 20 -3 34 -9 31 -11 -4 -4 -64 9 -152 32 -1 0 -5 15 -9 33
-5 25 -3 32 9 32 9 0 16 6 16 13 0 6 8 0 18 -15 9 -16 20 -28 25 -28z m-4981
-22 c-9 -35 -18 -26 -19 20 -2 44 -1 46 11 23 7 -13 11 -32 8 -43z m-34 -5 c6
-28 7 -54 2 -63 -7 -11 -10 -3 -10 25 0 22 -3 50 -6 63 -4 12 -4 22 -1 22 3 0
10 -21 15 -47z m1252 16 c0 -16 -4 -28 -9 -25 -8 5 -3 56 5 56 2 0 4 -14 4
-31z m4127 -1 c-3 -8 -6 -5 -6 6 -1 11 2 17 5 13 3 -3 4 -12 1 -19z m-5422
-28 c-20 -22 -31 -20 -22 5 4 8 14 15 23 15 16 0 16 -2 -1 -20z m5385 -20 c0
-16 -4 -30 -10 -30 -5 0 -10 14 -10 30 0 17 5 30 10 30 6 0 10 -13 10 -30z
m-5423 -22 c-3 -7 -5 -2 -5 12 0 14 2 19 5 13 2 -7 2 -19 0 -25z m5067 -3 c-3
-8 -1 -22 5 -32 9 -15 11 -11 12 22 l1 40 10 -45 10 -45 12 30 c12 29 13 29
20 7 4 -12 12 -20 17 -17 5 4 9 -2 9 -12 0 -15 2 -16 10 -3 7 11 10 6 11 -20
1 -32 2 -33 9 -10 8 25 8 25 10 -5 1 -26 3 -27 10 -10 l9 20 0 -20 c1 -16 3
-17 10 -5 6 8 7 19 5 25 -3 5 3 0 14 -12 11 -13 25 -23 31 -23 5 0 15 -8 20
-17 10 -17 10 -16 11 2 1 19 1 19 14 2 11 -15 15 -15 19 -3 3 8 1 16 -6 19 -7
2 -7 6 -1 10 6 3 24 -15 41 -41 26 -41 31 -59 36 -137 3 -57 11 -101 22 -120
13 -23 16 -25 12 -7 -3 12 -1 22 5 22 6 0 7 17 4 42 -6 41 -5 42 10 20 8 -12
13 -26 10 -31 -4 -5 3 -7 14 -4 11 3 20 10 21 17 1 31 20 -45 23 -98 14 -205
18 -388 8 -382 -6 3 -12 -4 -15 -16 -4 -20 -4 -19 -6 5 0 15 4 27 9 27 6 0 10
5 10 10 0 6 -12 10 -27 10 -14 0 -34 7 -43 15 -14 13 -19 13 -36 0 -18 -14
-18 -14 6 -15 23 0 23 -1 8 -17 -12 -11 -21 -13 -30 -6 -7 5 -26 6 -43 2 -16
-3 -23 -7 -15 -8 8 -1 21 -5 29 -10 12 -8 12 -11 0 -23 -8 -8 -21 -17 -29 -21
-10 -3 -8 -6 7 -6 13 -1 28 8 35 19 15 24 28 26 28 4 0 -10 6 -13 19 -9 12 4
21 0 25 -11 5 -14 9 -14 23 -3 20 17 16 17 36 -2 12 -13 16 -33 14 -83 -1 -36
-5 -66 -8 -66 -9 0 -35 33 -42 53 -9 24 -47 23 -47 -2 0 -30 -25 -45 -59 -33
-18 6 -32 7 -38 1 -6 -6 -19 -6 -32 -1 -20 7 -21 10 -8 20 8 7 19 12 23 11 19
-3 34 2 34 11 0 6 -7 10 -15 10 -8 0 -15 9 -15 19 0 11 -6 23 -12 28 -14 9
-82 33 -83 30 0 -1 -6 -9 -13 -18 -10 -13 -10 -22 -1 -43 7 -14 16 -26 21 -26
18 0 6 -16 -22 -28 -31 -14 -41 -42 -15 -42 9 0 12 -6 8 -17 -4 -11 -8 -12
-11 -5 -2 7 -8 12 -13 12 -4 0 -6 -7 -3 -15 4 -9 0 -15 -10 -15 -9 0 -17 8
-17 18 -1 14 -2 15 -6 1 -6 -23 -95 -22 -91 1 4 17 -43 60 -65 60 -11 0 -13 6
-9 23 5 21 5 21 -12 4 -10 -10 -16 -23 -13 -30 2 -6 0 -21 -4 -32 -5 -11 -6
65 -3 175 4 107 8 198 10 201 2 4 8 135 14 291 6 156 15 297 19 314 5 16 10
21 10 12 1 -9 6 -20 13 -24 6 -4 8 -3 4 4 -3 6 -2 13 3 16 5 4 12 -4 14 -16 4
-20 4 -19 6 5 0 15 -4 27 -10 27 -6 0 -8 9 -4 20 5 15 3 18 -9 14 -9 -3 -16
-2 -16 4 0 15 23 21 37 10 6 -5 9 -16 7 -23z m-4046 0 c-3 -3 -9 2 -12 12 -6
14 -5 15 5 6 7 -7 10 -15 7 -18z m-388 -22 c-11 -17 -11 -17 -6 0 3 10 6 24 7
30 0 9 2 9 5 0 3 -7 0 -20 -6 -30z m1975 17 c4 -6 -1 -7 -12 -3 -15 6 -16 4
-6 -8 14 -18 25 -102 13 -94 -5 3 -8 19 -8 36 1 17 -3 34 -8 37 -16 12 -16 42
0 42 8 0 18 -4 21 -10z m2652 4 c-3 -3 -12 -4 -19 -1 -8 3 -5 6 6 6 11 1 17
-2 13 -5z m33 -4 c0 -5 -5 -10 -11 -10 -5 0 -7 5 -4 10 3 6 8 10 11 10 2 0 4
-4 4 -10z m53 -15 c-7 -21 -12 -19 -10 4 0 11 5 18 9 15 4 -3 5 -11 1 -19z
m-4133 5 c0 -5 -5 -10 -11 -10 -5 0 -7 5 -4 10 3 6 8 10 11 10 2 0 4 -4 4 -10z
m-1308 -50 c-9 -24 -9 -24 -14 7 -2 18 -1 30 4 27 4 -3 9 1 9 8 1 8 3 7 6 -3
2 -8 0 -26 -5 -39z m5709 23 c-8 -15 -10 -15 -11 -2 0 17 10 32 18 25 2 -3 -1
-13 -7 -23z m329 17 c8 12 10 9 10 -12 0 -24 -4 -28 -30 -28 -23 0 -30 5 -30
19 0 22 21 33 33 17 5 -8 10 -6 17 4z m-5845 -9 c3 -5 1 -12 -5 -16 -5 -3 -10
1 -10 9 0 18 6 21 15 7z m5270 -1 c3 -5 1 -10 -4 -10 -6 0 -11 5 -11 10 0 6 2
10 4 10 3 0 8 -4 11 -10z m-4965 -43 c0 -26 -15 -12 -25 23 -7 22 -6 23 9 11
9 -7 16 -23 16 -34z m5475 33 c3 -5 1 -10 -4 -10 -6 0 -11 5 -11 10 0 6 2 10
4 10 3 0 8 -4 11 -10z m-5396 -27 c11 -21 9 -23 -14 -23 -25 0 -29 13 -10 36
6 7 11 11 11 10 1 0 7 -11 13 -23z m918 5 c-3 -8 -6 -5 -6 6 -1 11 2 17 5 13
3 -3 4 -12 1 -19z m3 -58 c0 -11 4 -20 10 -20 10 0 6 -863 -5 -1035 -3 -49 -6
-102 -7 -116 -1 -21 -6 -25 -22 -21 -17 4 -19 2 -8 -9 15 -16 16 -29 1 -29 -5
0 -7 5 -3 12 5 7 3 8 -6 3 -10 -6 -8 -12 8 -25 23 -19 39 -88 27 -117 -5 -10
-7 -27 -6 -38 2 -17 0 -17 -8 -5 -9 13 -11 12 -11 -3 0 -11 -4 -15 -12 -11 -8
5 -9 2 -5 -9 20 -48 20 -52 4 -32 -13 15 -16 16 -17 5 0 -12 -2 -13 -9 -1 -5
7 -14 10 -21 6 -9 -6 -9 -3 -1 12 6 11 8 23 5 26 -3 3 -7 12 -8 20 -1 9 -14
28 -30 43 -22 23 -29 26 -37 14 -11 -19 -11 -37 0 -44 4 -3 12 -25 16 -48 9
-55 15 -116 8 -101 -2 7 -11 9 -19 6 -7 -3 -11 -10 -7 -17 4 -6 -1 -5 -10 3
-9 7 -15 16 -13 20 3 4 -6 8 -19 9 -13 1 -30 3 -37 4 -9 2 -12 -6 -10 -26 2
-22 0 -27 -12 -23 -11 4 -13 1 -9 -10 4 -11 2 -14 -5 -9 -8 5 -12 0 -12 -13 0
-12 -5 -21 -11 -21 -6 0 -10 12 -8 28 1 15 -1 34 -4 42 -6 17 -61 617 -77 840
-14 210 -24 470 -17 470 4 0 13 -12 22 -27 15 -27 16 -27 10 -3 -5 22 -4 23 5
7 7 -10 9 -24 7 -32 -6 -14 9 -15 30 -2 6 4 13 1 16 -5 3 -9 7 -7 12 5 6 15
10 14 31 -15 17 -23 24 -27 24 -14 0 9 7 24 15 32 13 14 15 13 16 -8 1 -17 3
-18 6 -5 2 9 9 15 14 12 5 -4 9 3 9 14 0 11 5 23 10 26 6 4 10 -9 10 -32 1
-38 1 -38 15 -13 l14 25 1 -25 c0 -19 2 -22 9 -10 6 8 8 17 6 20 -1 3 4 11 13
19 13 13 14 12 10 -12 -3 -14 -1 -32 3 -39 7 -10 9 -8 9 5 0 17 1 17 16 3 8
-9 19 -16 24 -16 13 0 25 23 23 45 -2 11 6 2 17 -20 l20 -40 -3 50 c-4 49 -4
50 -58 77 -106 54 -111 58 -97 75 10 13 10 17 1 20 -7 3 -12 14 -12 26 1 18 2
19 6 4 5 -20 30 -17 25 3 -3 11 0 11 12 0 14 -11 16 -9 17 16 0 16 3 23 6 15
4 -10 10 -5 19 15 l13 29 -5 -35 c-3 -26 -2 -31 6 -20 5 8 10 26 11 40 1 21 2
22 6 5 9 -36 23 -41 23 -7 0 18 5 32 10 32 6 0 10 -9 10 -20z m-263 -22 c-3
-8 -6 -5 -6 6 -1 11 2 17 5 13 3 -3 4 -12 1 -19z m4763 -20 c0 24 21 11 27
-18 3 -16 8 -30 12 -30 14 0 17 -121 11 -395 -2 -99 -5 -162 -7 -141 -3 29 -7
36 -14 25 -7 -11 -9 -9 -9 9 0 12 -5 22 -11 22 -7 0 -9 -9 -5 -24 4 -18 1 -25
-15 -29 -12 -3 -18 -10 -14 -16 3 -6 12 -8 18 -5 7 4 8 3 4 -2 -5 -5 -14 -9
-20 -9 -7 -1 -11 -6 -9 -13 1 -7 -2 -12 -7 -12 -16 0 -24 21 -13 32 17 17 -7
60 -30 52 -10 -3 -18 -1 -18 5 0 6 -16 11 -35 11 -24 0 -35 5 -35 15 0 20 -36
38 -61 30 -15 -5 -17 -10 -9 -20 8 -10 5 -17 -13 -31 -30 -25 -43 -46 -23 -38
20 8 20 -3 0 -23 -10 -10 -13 -25 -9 -44 4 -15 2 -36 -4 -46 -8 -14 -10 1 -11
60 0 45 4 77 10 77 6 0 10 5 10 11 0 5 -4 8 -8 5 -5 -3 -7 9 -5 27 2 25 1 28
-6 12 -5 -13 -11 30 -16 129 -6 120 -5 150 6 157 11 6 11 11 1 21 -15 15 -16
50 0 66 9 9 9 18 0 37 -16 35 -15 43 3 19 8 -10 15 -27 15 -37 0 -10 6 -17 12
-15 7 3 21 -6 31 -19 10 -13 23 -20 29 -17 7 4 8 2 4 -4 -4 -7 -3 -12 3 -12 6
0 14 -12 17 -26 5 -19 9 -22 15 -13 6 11 9 10 15 -4 3 -9 11 -17 16 -17 6 0 8
7 4 15 -3 8 -1 15 3 15 5 0 14 -12 20 -27 9 -25 10 -24 5 12 l-5 40 21 -40
c11 -22 18 -32 15 -22 -3 12 -1 16 7 11 8 -5 9 3 5 27 -5 24 -4 30 3 19 7 -11
10 -11 10 -2 0 7 -28 41 -63 75 -35 34 -61 61 -59 60 3 -2 11 5 19 15 8 9 12
11 8 5 -3 -7 -3 -18 1 -25 5 -8 10 -6 15 8 7 17 8 17 8 -4 1 -13 5 -21 10 -18
5 4 12 0 14 -6 3 -7 6 11 6 40 1 40 -2 51 -11 46 -9 -5 -9 -2 1 9 17 21 16 21
18 -4 1 -12 7 -27 14 -33 9 -8 10 -4 7 17 -3 15 -1 30 3 33 5 3 9 -8 9 -25 0
-16 5 -33 11 -37 8 -4 8 -8 0 -13 -6 -4 -3 -11 9 -19 25 -15 28 3 5 34 -12 18
-12 26 -2 48 l12 26 12 -27 c7 -16 12 -22 13 -15z m-490 7 c0 -8 -2 -15 -4
-15 -2 0 -6 7 -10 15 -3 8 -1 15 4 15 6 0 10 -7 10 -15z m4107 -17 c-3 -8 -6
-5 -6 6 -1 11 2 17 5 13 3 -3 4 -12 1 -19z m-9120 -20 c-3 -7 -5 -2 -5 12 0
14 2 19 5 13 2 -7 2 -19 0 -25z m810 0 c-3 -8 -6 -5 -6 6 -1 11 2 17 5 13 3
-3 4 -12 1 -19z m4580 7 c0 -8 -4 -12 -9 -9 -5 3 -6 10 -3 15 9 13 12 11 12
-6z m-4916 -28 c-10 -9 -11 -8 -5 6 3 10 9 15 12 12 3 -3 0 -11 -7 -18z m-220
-31 c5 3 9 -2 9 -11 0 -9 4 -13 10 -10 6 4 9 -9 9 -32 -1 -21 4 -51 10 -66 6
-16 11 -46 11 -68 0 -22 7 -54 16 -71 14 -28 18 -30 28 -16 10 14 12 11 13
-18 1 -19 6 -40 12 -47 14 -18 16 -1031 1 -1022 -5 3 -10 -1 -10 -10 0 -10 -4
-13 -12 -8 -21 13 -37 12 -32 -2 4 -10 -1 -12 -17 -8 -18 5 -21 3 -16 -11 4
-11 3 -15 -4 -10 -6 3 -21 1 -34 -6 -14 -7 -31 -9 -42 -5 -10 5 -21 8 -25 7
-16 -3 -19 116 -16 718 3 598 4 635 21 632 12 -2 17 4 18 20 l2 23 4 -22 c2
-13 9 -23 14 -23 9 0 12 15 10 60 0 14 2 19 5 12 3 -6 10 -10 15 -6z m74 -33
c-7 -35 -8 -36 -16 -15 -6 15 -4 30 3 42 17 27 22 17 13 -27z m8475 43 c0 -11
-19 -15 -25 -6 -3 5 1 10 9 10 9 0 16 -2 16 -4z m-8331 -58 c-1 -40 -3 -47 -8
-28 -4 14 -7 32 -5 40 1 8 3 21 3 28 1 6 3 12 6 12 3 0 5 -24 4 -52z m8196 33
c3 -5 1 -12 -5 -16 -5 -3 -10 1 -10 9 0 18 6 21 15 7z m-8157 -39 c8 -22 8
-31 1 -26 -7 4 -9 -3 -7 -17 2 -16 9 -23 20 -21 24 4 31 -28 34 -168 2 -69 5
-150 8 -180 10 -106 16 -186 21 -290 3 -58 12 -169 20 -247 23 -225 30 -389
16 -397 -6 -4 -11 -2 -11 3 0 6 -20 11 -45 11 -25 0 -45 -4 -45 -9 0 -8 -67 2
-74 11 -9 10 -13 759 -4 764 6 4 6 10 -1 17 -6 6 -11 18 -10 26 0 11 3 10 9
-4 l9 -20 2 20 c1 12 5 6 9 -15 l7 -35 2 33 c1 24 5 31 14 26 8 -6 8 -3 -2 9
-7 9 -11 24 -7 33 3 8 1 25 -6 37 -12 22 -19 62 -10 52 3 -3 11 0 17 5 9 8 18
2 34 -22 11 -18 21 -27 21 -19 0 16 -47 73 -53 63 -2 -4 -2 -1 -1 5 2 7 -6 29
-18 48 -21 37 -20 53 4 39 13 -8 43 -16 36 -9 -1 2 -6 3 -9 2 -13 -4 -35 30
-37 58 l-2 30 21 -32 c20 -32 39 -43 39 -23 0 6 -5 10 -11 10 -5 0 -8 4 -5 9
3 5 -1 12 -10 15 -10 4 -13 13 -9 28 5 18 4 19 -4 8 -5 -8 -13 -12 -16 -9 -3
4 1 12 10 19 12 10 16 8 25 -11 7 -17 8 11 4 96 -3 66 -4 118 -2 115 3 -3 10
-20 16 -38z m-821 -44 c-3 -7 -5 -2 -5 12 0 14 2 19 5 13 2 -7 2 -19 0 -25z
m412 -8 c2 23 3 24 11 5 13 -30 12 -522 0 -530 -7 -5 -8 -11 -1 -19 6 -7 9
-69 6 -156 -2 -80 -4 -260 -4 -400 -1 -154 -5 -249 -10 -241 -7 11 -10 9 -14
-10 -2 -13 -5 2 -6 34 -1 36 3 57 10 57 8 0 8 4 1 13 -12 14 -19 159 -27 552
-13 641 -14 728 -5 719 4 -5 10 -22 13 -39 3 -24 5 -21 7 15 l3 45 7 -35 c6
-29 8 -31 9 -10z m-326 5 c-3 -9 -8 -14 -10 -11 -3 3 -2 9 2 15 9 16 15 13 8
-4z m7653 -124 c-4 -5 -1 -12 4 -14 6 -3 5 -4 -2 -3 -15 3 -23 26 -8 26 6 0 9
-4 6 -9z m-7049 -98 c-3 -10 -5 -2 -5 17 0 19 2 27 5 18 2 -10 2 -26 0 -35z
m2398 -81 c-3 -3 -11 0 -18 7 -9 10 -8 11 6 5 10 -3 15 -9 12 -12z m188 3 c-3
-9 -8 -14 -10 -11 -3 3 -2 9 2 15 9 16 15 13 8 -4z m3634 -1 c-3 -3 -12 -4
-19 -1 -8 3 -5 6 6 6 11 1 17 -2 13 -5z m-3950 -90 c-11 -11 -82 -10 -82 1 0
6 17 9 38 8 26 -1 35 2 31 10 -5 9 -3 9 6 0 8 -7 11 -16 7 -19z m-157 -14 c0
-5 -4 -10 -10 -10 -5 0 -10 5 -10 10 0 6 5 10 10 10 6 0 10 -4 10 -10z m-2043
-42 c-3 -7 -5 -2 -5 12 0 14 2 19 5 13 2 -7 2 -19 0 -25z m2175 -7 c-10 -29 1
-55 11 -29 3 7 6 3 6 -9 1 -13 -2 -23 -7 -23 -11 0 -33 40 -27 50 3 5 0 12 -6
16 -8 4 -9 3 -5 -4 10 -17 -3 -15 -21 3 -14 14 -13 15 11 11 18 -3 29 0 33 10
11 28 15 5 5 -25z m315 17 c-3 -8 -6 -5 -6 6 -1 11 2 17 5 13 3 -3 4 -12 1
-19z m-441 -31 c-2 -7 -5 -3 -6 8 l-1 20 -9 -20 c-8 -20 -9 -20 -9 1 -1 11 2
24 6 28 9 9 26 -22 19 -37z m33 -4 c0 -65 2 -74 12 -68 5 4 9 1 9 -4 0 -6 -8
-11 -17 -11 -33 0 -44 -15 -22 -29 12 -7 18 -8 14 -2 -3 7 2 11 14 11 14 0 21
-6 21 -19 0 -15 -5 -18 -22 -13 -16 4 -19 2 -13 -9 5 -8 0 -7 -12 4 -20 17
-38 23 -29 9 2 -4 1 -14 -5 -22 -6 -10 -9 11 -9 62 0 69 2 76 19 71 14 -3 20
2 24 26 9 42 16 39 16 -6z m465 10 c6 -15 -10 -18 -19 -3 -4 6 -11 8 -16 4 -5
-3 -6 -10 -3 -16 4 -7 2 -8 -5 -4 -8 6 -9 12 -2 20 14 17 39 16 45 -1z m2370
2 c-4 -8 -8 -15 -10 -15 -2 0 -4 7 -4 15 0 8 4 15 10 15 5 0 7 -7 4 -15z m62
-1 c-4 -9 -2 -13 5 -8 8 4 9 -1 4 -15 -4 -12 -2 -21 4 -21 6 0 11 -4 11 -10 0
-17 -14 -10 -33 16 -19 25 -17 54 4 54 6 0 8 -7 5 -16z m-3036 -20 c0 -8 -6
-14 -14 -14 -9 0 -12 7 -9 20 6 22 23 18 23 -6z m-180 6 c0 -5 -4 -10 -9 -10
-6 0 -13 5 -16 10 -3 6 1 10 9 10 9 0 16 -4 16 -10z m2937 -42 c-3 -7 -5 -2
-5 12 0 14 2 19 5 13 2 -7 2 -19 0 -25z m-3012 12 c3 -5 1 -10 -4 -10 -6 0
-11 5 -11 10 0 6 2 10 4 10 3 0 8 -4 11 -10z m2025 -46 c0 -8 -4 -12 -10 -9
-5 3 -10 13 -10 21 0 8 5 12 10 9 6 -3 10 -13 10 -21z m1080 5 c0 -5 -4 -9
-10 -9 -5 0 -10 7 -10 16 0 8 5 12 10 9 6 -3 10 -10 10 -16z m-1043 -51 c-3
-7 -5 -2 -5 12 0 14 2 19 5 13 2 -7 2 -19 0 -25z m1088 22 c3 -5 2 -10 -4 -10
-5 0 -13 5 -16 10 -3 6 -2 10 4 10 5 0 13 -4 16 -10z m-1105 -21 c0 -5 -4 -9
-10 -9 -5 0 -10 7 -10 16 0 8 5 12 10 9 6 -3 10 -10 10 -16z m-1835 -9 c-9
-15 23 -24 38 -11 11 8 13 2 12 -29 -3 -58 -3 -60 -22 -59 -11 0 -13 3 -5 6 6
2 12 9 12 14 0 6 -7 6 -19 0 -10 -6 -21 -7 -25 -4 -10 11 -7 93 5 93 5 0 7 -5
4 -10z m265 0 c0 -5 -5 -10 -11 -10 -5 0 -7 5 -4 10 3 6 8 10 11 10 2 0 4 -4
4 -10z m1083 3 c-7 -2 -19 -2 -25 0 -7 3 -2 5 12 5 14 0 19 -2 13 -5z m57 -34
c0 -5 11 -9 25 -9 14 0 25 -3 25 -7 0 -5 -22 -8 -48 -8 -45 0 -47 1 -38 21 10
20 36 22 36 3z m-1438 -68 c-5 -3 -12 -13 -15 -21 -3 -9 -6 -3 -6 13 -1 16 3
26 9 22 5 -3 9 2 8 12 0 10 0 27 2 38 2 11 5 2 7 -19 3 -21 0 -42 -5 -45z
m-3557 59 c-3 -5 -12 -10 -18 -10 -7 0 -6 4 3 10 19 12 23 12 15 0z m3745 0
c-8 -5 -19 -10 -25 -10 -5 0 -3 5 5 10 8 5 20 10 25 10 6 0 3 -5 -5 -10z
m2730 -19 c0 -6 -4 -13 -10 -16 -5 -3 -10 1 -10 9 0 9 5 16 10 16 6 0 10 -4
10 -9z m-2113 -17 c-3 -3 -12 -4 -19 -1 -8 3 -5 6 6 6 11 1 17 -2 13 -5z m100
-31 c-3 -10 -5 -4 -5 12 0 17 2 24 5 18 2 -7 2 -21 0 -30z m5380 17 c-17 -13
-36 -18 -63 -16 -21 2 -48 5 -59 6 -37 2 47 27 98 28 l48 1 -24 -19z m-6192
-41 c-8 -13 -65 -38 -65 -29 0 5 9 11 19 15 12 3 18 12 15 20 -4 10 0 12 15 8
11 -3 18 -9 16 -14z m-88 -50 c-15 -24 -23 -24 -23 -1 0 10 8 19 18 19 15 2
16 -1 5 -18z m-152 1 c3 -5 1 -10 -4 -10 -6 0 -11 5 -11 10 0 6 2 10 4 10 3 0
8 -4 11 -10z m1676 -13 c-10 -9 -11 -8 -5 6 3 10 9 15 12 12 3 -3 0 -11 -7
-18z m-1284 -19 c-3 -8 -6 -5 -6 6 -1 11 2 17 5 13 3 -3 4 -12 1 -19z m5338 6
c25 -6 35 -29 35 -83 0 -42 -24 -63 -58 -50 -18 7 -27 6 -36 -6 -7 -10 -31
-17 -71 -19 -44 -2 -61 -7 -63 -18 -3 -16 -31 -28 -67 -28 -18 0 -20 7 -22 58
-1 55 0 59 27 69 23 9 28 8 23 -3 -4 -10 0 -12 13 -7 10 4 15 2 11 -4 -3 -5 0
-10 8 -10 8 0 14 3 13 6 -4 38 5 53 40 67 20 8 51 22 67 29 17 8 36 12 43 10
8 -3 24 -8 37 -11z m-9078 -56 c-2 -13 -4 -5 -4 17 -1 22 1 32 4 23 2 -10 2
-28 0 -40z m3542 -22 c5 -13 12 -59 16 -102 3 -44 9 -88 12 -99 3 -11 2 -17
-2 -13 -5 4 -14 51 -22 105 -7 53 -16 105 -19 115 -8 27 5 22 15 -6z m35 -21
l-7 -29 -9 24 c-11 29 -2 58 13 43 6 -6 7 -22 3 -38z m-187 13 c2 -18 0 -20
-7 -8 -12 18 -13 30 -2 30 4 0 9 -10 9 -22z m1124 13 c-8 -5 -20 -7 -28 -4
-21 8 -15 13 15 13 20 0 23 -3 13 -9z m4132 2 c-13 -2 -33 -2 -45 0 -13 2 -3
4 22 4 25 0 35 -2 23 -4z m-5126 -35 c-3 -8 -6 -5 -6 6 -1 11 2 17 5 13 3 -3
4 -12 1 -19z m4903 7 c0 -8 5 -15 10 -15 6 0 10 -7 10 -16 0 -11 -8 -14 -32
-12 -25 2 -34 8 -36 25 -3 19 6 27 41 32 4 0 7 -6 7 -14z m350 -30 c-6 -15
-13 -25 -17 -22 -3 4 0 21 8 38 16 39 24 24 9 -16z m-2517 28 c-7 -2 -21 -2
-30 0 -10 3 -4 5 12 5 17 0 24 -2 18 -5z m2077 -13 c0 -5 -6 -10 -12 -11 -10
0 -10 -2 0 -6 17 -7 15 -23 -3 -23 -15 0 -21 31 -8 43 10 10 23 8 23 -3z m-53
-32 c-3 -7 -5 -2 -5 12 0 14 2 19 5 13 2 -7 2 -19 0 -25z m-8377 -25 c0 -39
-16 -25 -17 14 -1 24 2 32 8 22 5 -8 9 -24 9 -36z m3445 26 c-4 -5 -15 -9 -26
-9 -10 0 -19 -5 -19 -12 0 -6 -2 -9 -5 -6 -10 9 6 37 23 41 22 5 34 -2 27 -14z
m3624 5 c10 -9 -35 -3 -49 6 -11 8 -7 9 15 4 17 -4 32 -8 34 -10z m1291 1 c0
-18 -1 -18 -36 0 l-29 15 33 0 c22 0 32 -5 32 -15z m-4773 -32 c-3 -10 -5 -4
-5 12 0 17 2 24 5 18 2 -7 2 -21 0 -30z m170 15 c-3 -8 -6 -5 -6 6 -1 11 2 17
5 13 3 -3 4 -12 1 -19z m53 -8 c0 -5 -5 -10 -11 -10 -5 0 -7 5 -4 10 3 6 8 10
11 10 2 0 4 -4 4 -10z m2634 -21 c8 -43 8 -59 -3 -59 -5 0 -12 16 -15 36 -8
42 -29 41 -36 -2 -3 -18 -11 -30 -22 -30 -24 -2 -33 32 -14 52 9 8 16 20 16
25 0 5 15 9 34 9 30 0 34 -4 40 -31z m629 24 c-7 -2 -21 -2 -30 0 -10 3 -4 5
12 5 17 0 24 -2 18 -5z m-3446 -25 c-3 -8 -6 -5 -6 6 -1 11 2 17 5 13 3 -3 4
-12 1 -19z m4494 -19 c-12 -12 -25 -18 -29 -14 -3 3 -2 9 4 13 6 4 14 16 18
26 5 15 9 17 18 8 9 -9 6 -17 -11 -33z m-4444 9 c-3 -8 -6 -5 -6 6 -1 11 2 17
5 13 3 -3 4 -12 1 -19z m5353 18 c0 -3 -4 -8 -10 -11 -5 -3 -10 -1 -10 4 0 6
5 11 10 11 6 0 10 -2 10 -4z m-8933 -73 c-2 -16 -4 -5 -4 22 0 28 2 40 4 28 2
-13 2 -35 0 -50z m6221 39 c3 -20 -1 -22 -40 -21 -30 2 -34 3 -15 6 25 4 32
13 28 36 -1 5 4 7 11 5 7 -3 14 -14 16 -26z m1182 12 c0 -8 -4 -12 -10 -9 -5
3 -10 10 -10 16 0 5 5 9 10 9 6 0 10 -7 10 -16z m-7441 -51 c-1 -44 -3 -51 -8
-28 -6 29 -3 85 5 85 2 0 3 -26 3 -57z m2754 30 c-7 -2 -19 -2 -25 0 -7 3 -2
5 12 5 14 0 19 -2 13 -5z m3395 -30 c2 -13 9 -23 17 -23 7 0 16 -6 18 -12 3
-7 6 -1 6 14 1 25 4 27 34 25 27 -2 33 -7 35 -30 4 -34 22 -36 22 -1 0 59 63
-5 68 -68 2 -32 -11 -35 -42 -10 -17 13 -40 17 -97 16 -50 0 -79 4 -87 13 -7
7 -9 13 -5 13 4 0 8 16 8 35 0 21 -5 35 -12 35 -7 0 -13 5 -13 11 0 21 45 4
48 -18z m-3433 7 c3 -5 1 -10 -4 -10 -6 0 -11 5 -11 10 0 6 2 10 4 10 3 0 8
-4 11 -10z m5279 -5 c-4 -8 -13 -15 -20 -15 -12 0 -12 3 -2 15 17 19 29 19 22
0z m-4449 -33 c-3 -3 -11 0 -18 7 -9 10 -8 11 6 5 10 -3 15 -9 12 -12z m2432
-49 c-3 -10 -5 -4 -5 12 0 17 2 24 5 18 2 -7 2 -21 0 -30z m-3507 18 c0 -5
-11 -11 -25 -13 -14 -3 -25 -3 -25 -1 0 3 34 19 48 22 1 1 2 -3 2 -8z m3920
-10 c0 -10 -7 -24 -15 -31 -13 -10 -15 -9 -15 12 0 14 3 28 7 31 12 13 23 7
23 -12z m-4276 -22 c-3 -5 -10 -7 -15 -3 -5 3 -7 10 -3 15 3 5 10 7 15 3 5 -3
7 -10 3 -15z m-1987 -21 c-3 -7 -5 -2 -5 12 0 14 2 19 5 13 2 -7 2 -19 0 -25z
m3440 -20 c-3 -7 -5 -2 -5 12 0 14 2 19 5 13 2 -7 2 -19 0 -25z m2225 -55 c0
-43 3 -70 5 -60 3 10 17 20 34 24 16 3 32 9 34 13 3 5 14 6 25 3 15 -4 20 0
20 13 0 15 2 16 9 5 14 -22 41 -5 42 26 l2 28 4 -26 c3 -22 8 -25 29 -21 30 6
31 -6 2 -18 -16 -6 -6 -7 34 -3 46 4 60 2 74 -12 14 -14 15 -21 6 -36 -17 -27
-15 -36 10 -42 12 -4 20 -9 16 -12 -3 -3 -17 0 -31 6 -21 9 -30 9 -42 -1 -13
-11 -14 -10 -10 3 8 20 -12 32 -30 17 -12 -10 -20 -9 -40 4 -14 9 -25 24 -25
32 0 10 -6 14 -15 10 -8 -3 -15 -1 -15 5 0 6 -8 3 -17 -7 -17 -16 -18 -16 -21
-1 -4 18 -14 22 -26 10 -4 -4 -17 -8 -29 -8 -16 0 -25 -9 -33 -33 -16 -51 -24
-27 -24 76 0 53 3 93 6 90 3 -4 6 -41 6 -85z m151 57 c3 -11 1 -23 -4 -26 -5
-3 -9 6 -9 20 0 31 6 34 13 6z m111 9 c-3 -6 -17 -8 -30 -5 -16 4 -26 1 -33
-11 -10 -17 -10 -17 -11 0 0 10 -4 15 -10 12 -5 -3 -10 -1 -10 4 0 6 22 11 51
11 33 0 48 -4 43 -11z m-134 -13 c0 -15 -37 -32 -47 -22 -4 3 2 6 12 6 10 0
16 3 13 6 -3 3 -23 2 -44 -2 -32 -6 -35 -8 -19 -15 18 -7 19 -8 1 -8 -12 -1
-16 -6 -12 -17 3 -8 2 -12 -4 -9 -6 3 -10 16 -10 29 0 22 16 29 103 45 4 0 7
-5 7 -13z m297 -38 c-3 -7 -5 -2 -5 12 0 14 2 19 5 13 2 -7 2 -19 0 -25z
m-110 0 c-3 -8 -6 -5 -6 6 -1 11 2 17 5 13 3 -3 4 -12 1 -19z m60 0 c-3 -8 -6
-5 -6 6 -1 11 2 17 5 13 3 -3 4 -12 1 -19z m-456 -8 c-8 -4 -21 -5 -30 -2 -12
5 -10 8 9 12 29 8 40 3 21 -10z m-2641 6 c0 -2 -11 -6 -25 -8 -14 -3 -25 -1
-25 3 0 5 11 9 25 9 14 0 25 -2 25 -4z m2575 -12 c-9 -9 -19 -13 -23 -10 -3 4
0 11 8 16 24 15 33 11 15 -6z m-38 -56 c-2 -13 -4 -3 -4 22 0 25 2 35 4 23 2
-13 2 -33 0 -45z m-64 27 c-3 -9 -8 -14 -10 -11 -3 3 -2 9 2 15 9 16 15 13 8
-4z m-2113 0 c0 -9 -52 -55 -61 -55 -12 0 -11 17 1 41 9 17 60 28 60 14z
m-360 -15 c0 -5 -2 -10 -4 -10 -3 0 -8 5 -11 10 -3 6 -1 10 4 10 6 0 11 -4 11
-10z m-270 -21 c0 -5 -10 -9 -21 -9 -18 0 -19 2 -9 15 12 15 30 12 30 -6z
m640 1 c0 -5 -2 -10 -4 -10 -3 0 -8 5 -11 10 -3 6 -1 10 4 10 6 0 11 -4 11
-10z m2503 -47 c-7 -44 -13 -56 -13 -25 0 16 -6 22 -22 22 -21 0 -21 0 -2 -15
10 -8 17 -15 14 -15 -3 -1 -24 -2 -46 -4 -31 -2 -41 1 -37 11 3 7 -2 13 -11
13 -9 0 -16 6 -16 13 0 26 25 37 81 37 l58 0 -6 -37z m212 27 c-28 -12 -37
-12 -30 0 3 6 16 10 28 9 21 0 21 -1 2 -9z m-575 -26 c0 -8 -4 -12 -10 -9 -5
3 -10 10 -10 16 0 5 5 9 10 9 6 0 10 -7 10 -16z m-2803 -16 c-3 -8 -6 -5 -6 6
-1 11 2 17 5 13 3 -3 4 -12 1 -19z m3253 3 c0 -5 -11 -8 -24 -7 -13 0 -22 4
-19 9 6 10 43 9 43 -2z m317 -53 c-3 -8 -6 -5 -6 6 -1 11 2 17 5 13 3 -3 4
-12 1 -19z m-39 -2 c-7 -7 -19 -11 -27 -8 -10 4 -13 0 -9 -16 4 -12 2 -22 -3
-22 -5 0 -9 11 -9 24 0 23 5 26 53 35 4 0 2 -5 -5 -13z m75 -17 c-9 -9 -12 -7
-10 9 1 14 5 18 11 12 7 -7 6 -14 -1 -21z m-4439 -11 c7 -5 4 -8 -6 -8 -12 0
-18 7 -17 23 0 15 2 17 6 7 3 -8 11 -18 17 -22z m3826 28 c0 -3 -4 -8 -10 -11
-5 -3 -10 -1 -10 4 0 6 5 11 10 11 6 0 10 -2 10 -4z m65 -14 c-3 -3 -11 0 -18
7 -9 10 -8 11 6 5 10 -3 15 -9 12 -12z m-3110 -2 c-3 -5 -11 -10 -16 -10 -6 0
-7 5 -4 10 3 6 11 10 16 10 6 0 7 -4 4 -10z m2982 -27 c-3 -10 -5 -4 -5 12 0
17 2 24 5 18 2 -7 2 -21 0 -30z m-3864 20 c-7 -2 -21 -2 -30 0 -10 3 -4 5 12
5 17 0 24 -2 18 -5z m3920 -38 c-7 -21 -13 -19 -13 6 0 11 4 18 10 14 5 -3 7
-12 3 -20z m417 10 c-7 -8 -16 -15 -21 -15 -5 0 -6 7 -3 15 4 8 13 15 21 15
13 0 13 -3 3 -15z m-387 -10 c-3 -9 -8 -14 -10 -11 -3 3 -2 9 2 15 9 16 15 13
8 -4z m437 1 c0 -2 -11 -6 -25 -8 -13 -3 -22 -1 -19 3 5 9 44 13 44 5z m-2451
-42 c10 -9 -35 -3 -49 6 -11 8 -7 9 15 4 17 -4 32 -8 34 -10z m2364 -1 c-7 -2
-19 -2 -25 0 -7 3 -2 5 12 5 14 0 19 -2 13 -5z m32 -3 c3 -5 1 -10 -4 -10 -6
0 -11 5 -11 10 0 6 2 10 4 10 3 0 8 -4 11 -10z m-3508 -27 c-15 -4 -16 -7 -5
-20 12 -15 10 -15 -11 -4 -19 10 -21 15 -10 22 8 5 21 8 29 8 10 -1 9 -3 -3
-6z m3404 -16 c-10 -9 -11 -8 -5 6 3 10 9 15 12 12 3 -3 0 -11 -7 -18z m-3311
9 c0 -3 -4 -8 -10 -11 -5 -3 -10 -1 -10 4 0 6 5 11 10 11 6 0 10 -2 10 -4z
m70 -6 c0 -5 -11 -10 -25 -10 -14 0 -25 5 -25 10 0 6 11 10 25 10 14 0 25 -4
25 -10z m3215 -10 c-3 -5 -10 -10 -16 -10 -5 0 -9 5 -9 10 0 6 7 10 16 10 8 0
12 -4 9 -10z m-3170 -20 c-3 -5 -11 -10 -16 -10 -6 0 -7 5 -4 10 3 6 11 10 16
10 6 0 7 -4 4 -10z m3139 -5 c7 -18 -29 -21 -40 -3 -4 7 -3 8 4 4 7 -4 12 -2
12 3 0 16 17 13 24 -4z m-1943 -4 c-12 -8 -12 -12 -2 -25 16 -20 3 -20 -23 -1
-22 17 -13 35 17 35 17 0 19 -2 8 -9z m1856 -43 c-3 -8 -6 -5 -6 6 -1 11 2 17
5 13 3 -3 4 -12 1 -19z m-137 -24 c-56 -17 -64 -17 -25 1 17 8 39 14 50 14 11
0 0 -7 -25 -15z m17 -20 c-3 -3 -12 -4 -19 -1 -8 3 -5 6 6 6 11 1 17 -2 13 -5z
m-140 -66 c-3 -8 -6 -5 -6 6 -1 11 2 17 5 13 3 -3 4 -12 1 -19z m-2047 2 c0
-5 -5 -10 -11 -10 -5 0 -7 5 -4 10 3 6 8 10 11 10 2 0 4 -4 4 -10z m-15 -22
c5 -4 0 -6 -12 -6 -13 1 -19 7 -16 15 3 8 8 10 12 6 3 -4 10 -11 16 -15z
m-1072 5 c-7 -2 -19 -2 -25 0 -7 3 -2 5 12 5 14 0 19 -2 13 -5z m4447 -37 c0
-2 -11 -6 -25 -8 -13 -3 -22 -1 -19 3 5 9 44 13 44 5z m-90 -26 c0 -5 -9 -10
-20 -10 -12 0 -20 -7 -21 -17 0 -12 -2 -13 -6 -5 -3 7 1 19 7 27 14 17 40 20
40 5z m-3475 -20 c-11 -5 -27 -9 -35 -9 -9 0 -8 4 5 9 11 5 27 9 35 9 9 0 8
-4 -5 -9z m3415 1 c0 -6 -4 -13 -10 -16 -5 -3 -10 1 -10 9 0 9 5 16 10 16 6 0
10 -4 10 -9z m-171 -70 c10 -7 7 -9 -12 -8 -14 1 -23 5 -20 10 6 9 15 9 32 -2z
m-116 -8 c-7 -2 -21 -2 -30 0 -10 3 -4 5 12 5 17 0 24 -2 18 -5z m64 1 c-3 -3
-12 -4 -19 -1 -8 3 -5 6 6 6 11 1 17 -2 13 -5z m-117 -18 c0 -3 -4 -8 -10 -11
-5 -3 -10 -1 -10 4 0 6 5 11 10 11 6 0 10 -2 10 -4z m-163 -22 c-3 -3 -12 -4
-19 -1 -8 3 -5 6 6 6 11 1 17 -2 13 -5z m-1607 -908 c0 -2 -7 -6 -15 -10 -8
-3 -15 -1 -15 4 0 6 7 10 15 10 8 0 15 -2 15 -4z m670 -46 c0 -5 -5 -10 -11
-10 -5 0 -7 5 -4 10 3 6 8 10 11 10 2 0 4 -4 4 -10z"/>
<path d="M4285 4389 c-4 -5 -4 -13 -1 -16 3 -4 6 0 6 8 0 11 2 11 10 -1 6 -9
10 -10 10 -3 0 17 -17 25 -25 12z"/>
<path d="M6842 3950 c0 -14 2 -19 5 -12 2 6 2 18 0 25 -3 6 -5 1 -5 -13z"/>
<path d="M7251 3294 c0 -11 3 -14 6 -6 3 7 2 16 -1 19 -3 4 -6 -2 -5 -13z"/>
<path d="M7195 3270 c-3 -5 -16 -10 -28 -11 -21 0 -21 -1 2 -10 26 -10 34 -7
37 16 3 17 -2 19 -11 5z"/>
<path d="M7246 3065 c-3 -8 -1 -15 4 -15 6 0 10 7 10 15 0 8 -2 15 -4 15 -2 0
-6 -7 -10 -15z"/>
<path d="M3051 2454 c0 -11 3 -14 6 -6 3 7 2 16 -1 19 -3 4 -6 -2 -5 -13z"/>
<path d="M2955 2380 c-3 -5 -1 -10 4 -10 6 0 11 5 11 10 0 6 -2 10 -4 10 -3 0
-8 -4 -11 -10z"/>
<path d="M7563 3608 c4 -10 2 -18 -3 -18 -6 0 -10 -5 -10 -11 0 -8 5 -8 15 1
12 10 15 10 15 0 0 -8 3 -11 6 -7 3 3 -2 16 -11 29 -11 15 -15 17 -12 6z"/>
<path d="M7345 3320 c-3 -5 -1 -10 4 -10 6 0 11 5 11 10 0 6 -2 10 -4 10 -3 0
-8 -4 -11 -10z"/>
<path d="M2300 2359 c0 -5 5 -7 10 -4 6 3 10 8 10 11 0 2 -4 4 -10 4 -5 0 -10
-5 -10 -11z"/>
<path d="M2599 3382 c5 -10 18 -25 27 -33 16 -13 16 -12 6 8 -15 28 -15 36 1
27 6 -4 9 -3 4 1 -4 5 -17 10 -28 12 -16 2 -18 0 -10 -15z"/>
<path d="M2600 3281 c0 -7 -6 -9 -12 -6 -7 4 1 -6 17 -21 17 -15 29 -32 27
-37 -1 -4 2 -6 8 -2 13 8 14 6 -15 45 -14 19 -25 28 -25 21z"/>
<path d="M4698 3253 c6 -2 18 -2 25 0 6 3 1 5 -13 5 -14 0 -19 -2 -12 -5z"/>
<path d="M4500 3010 c0 -5 -7 -7 -15 -4 -22 9 -18 -13 4 -25 16 -9 19 -7 19
14 0 14 -2 25 -4 25 -2 0 -4 -4 -4 -10z"/>
<path d="M6874 2335 c1 -13 8 -20 24 -21 17 -1 18 -1 3 3 -11 2 -22 12 -24 21
-3 12 -4 11 -3 -3z"/>
<path d="M6930 2345 c0 -10 11 -15 35 -15 24 0 35 5 35 15 0 10 -11 15 -35 15
-24 0 -35 -5 -35 -15z"/>
<path d="M6960 2310 c0 -5 7 -10 16 -10 8 0 12 5 9 10 -3 6 -10 10 -16 10 -5
0 -9 -4 -9 -10z"/>
<path d="M6727 2289 c8 -8 16 -8 30 0 16 9 14 10 -11 11 -22 0 -27 -3 -19 -11z"/>
<path d="M3250 5986 c0 -8 -3 -21 -6 -29 -3 -8 2 -17 11 -21 13 -5 15 -1 11
17 -3 12 -3 17 0 10 3 -7 11 -10 19 -7 10 4 16 -6 21 -32 6 -33 8 -35 19 -20
11 14 13 13 19 -15 3 -17 6 -46 6 -65 0 -18 4 -35 9 -38 5 -4 7 3 4 14 -7 28
6 92 18 85 5 -4 6 -11 3 -17 -4 -7 -2 -8 4 -4 9 5 9 12 0 26 -7 10 -16 16 -20
14 -9 -6 -11 8 -8 44 1 12 -3 22 -9 22 -6 0 -11 7 -11 15 0 11 -12 15 -45 15
-32 0 -45 -4 -45 -14z"/>
<path d="M3367 5977 c6 -28 39 -74 48 -65 4 3 -3 16 -14 27 -12 12 -21 23 -21
26 0 3 0 12 0 20 0 8 -4 15 -9 15 -4 0 -6 -10 -4 -23z"/>
<path d="M3560 5961 c0 -22 5 -43 10 -46 6 -4 10 8 10 30 0 22 4 34 10 30 6
-3 10 -1 10 6 0 8 3 9 13 0 8 -6 17 -8 20 -4 4 3 14 0 23 -8 16 -13 16 -12 6
7 -8 15 -22 21 -56 23 l-46 2 0 -40z"/>
<path d="M2980 5975 c-7 -8 -16 -13 -20 -10 -5 3 -11 -4 -15 -15 -4 -11 -10
-18 -15 -15 -5 3 -8 -9 -8 -26 l1 -31 14 23 c14 23 14 19 -1 -29 -5 -16 -4
-22 5 -20 12 3 14 -9 18 -92 1 -18 4 -21 10 -12 4 8 7 27 5 42 -2 16 1 32 6
35 6 4 5 17 -4 33 -11 22 -12 31 -2 45 7 9 15 15 17 12 3 -2 5 7 5 20 0 14 -4
25 -9 25 -5 0 -4 7 3 15 7 8 10 15 7 15 -2 0 -10 -7 -17 -15z m3 -44 c-4 -3
-11 -10 -15 -15 -4 -4 -6 1 -5 12 1 12 6 18 15 15 7 -3 10 -9 5 -12z"/>
<path d="M3281 5934 c0 -11 3 -14 6 -6 3 7 2 16 -1 19 -3 4 -6 -2 -5 -13z"/>
<path d="M7605 5930 c-3 -6 1 -7 9 -4 18 7 21 14 7 14 -6 0 -13 -4 -16 -10z"/>
<path d="M7525 5908 c-16 -12 -26 -17 -21 -10 6 10 1 10 -25 -1 -24 -10 -35
-22 -43 -51 -6 -21 -14 -34 -18 -30 -5 4 -8 0 -8 -10 0 -10 5 -14 11 -10 6 3
16 0 21 -7 6 -9 7 -3 3 19 -8 37 7 43 23 10 11 -22 11 -21 6 5 -4 17 -2 27 6
27 6 0 8 -4 5 -10 -3 -5 3 -10 14 -10 12 0 21 4 21 9 0 6 9 8 20 6 14 -3 18 0
13 8 -12 19 -12 36 -1 44 7 3 8 1 4 -5 -4 -7 -2 -12 4 -12 6 0 8 -5 4 -12 -4
-6 -3 -8 4 -4 5 3 12 1 14 -5 2 -6 10 1 18 16 12 23 12 28 0 36 -8 5 -20 7
-27 4 -6 -2 -13 1 -15 6 -2 6 -17 0 -33 -13z m62 -20 c-3 -8 -6 -5 -6 6 -1 11
2 17 5 13 3 -3 4 -12 1 -19z"/>
<path d="M2976 5891 c-4 -6 -2 -11 4 -11 6 0 8 -4 5 -10 -3 -5 -1 -10 4 -10
13 0 14 10 2 29 -6 9 -11 10 -15 2z"/>
<path d="M8760 5864 c-12 -19 -21 -37 -18 -39 2 -2 14 14 26 36 28 49 22 52
-8 3z"/>
<path d="M2917 5821 c-4 -17 -3 -21 5 -13 5 5 8 16 6 23 -3 8 -7 3 -11 -10z"/>
<path d="M8616 5813 c7 -37 14 -42 14 -10 0 14 -4 28 -9 32 -6 3 -8 -6 -5 -22z"/>
<path d="M7852 5805 c0 -16 2 -22 5 -12 2 9 2 23 0 30 -3 6 -5 -1 -5 -18z"/>
<path d="M8761 5814 c0 -11 3 -14 6 -6 3 7 2 16 -1 19 -3 4 -6 -2 -5 -13z"/>
<path d="M9295 5811 c3 -5 1 -13 -5 -16 -6 -4 -10 -14 -9 -23 3 -34 -3 -46
-11 -22 l-8 25 0 -25 c-1 -41 15 -119 18 -90 1 14 2 32 1 41 -1 9 4 21 11 27
10 8 13 4 15 -19 1 -16 7 -37 12 -47 9 -13 10 -11 6 13 -2 17 -7 56 -10 88 -4
31 -11 57 -16 57 -6 0 -8 -4 -4 -9z"/>
<path d="M931 5701 c-8 -5 -9 -11 -3 -15 5 -3 12 1 16 9 6 17 6 18 -13 6z"/>
<path d="M1051 5674 c0 -11 3 -14 6 -6 3 7 2 16 -1 19 -3 4 -6 -2 -5 -13z"/>
<path d="M1004 5664 c3 -9 6 -18 6 -20 0 -2 9 -4 21 -4 11 0 18 -4 14 -9 -3
-5 0 -13 6 -17 7 -4 9 -3 5 4 -3 6 -1 14 5 17 7 5 0 14 -18 26 -34 23 -47 24
-39 3z"/>
<path d="M10285 5650 c10 -11 20 -20 23 -20 3 0 -3 9 -13 20 -10 11 -20 20
-23 20 -3 0 3 -9 13 -20z"/>
<path d="M974 5603 c-12 -29 -11 -62 3 -67 15 -6 18 25 3 40 -7 7 -2 10 13 10
27 0 34 -28 11 -47 -13 -10 -13 -15 1 -35 9 -14 11 -25 5 -29 -6 -3 -10 0 -10
8 0 8 -9 22 -20 32 -20 18 -20 17 -17 -76 2 -52 9 -104 16 -114 11 -17 12 -14
8 23 -3 23 -1 42 4 42 5 0 9 9 9 20 0 22 25 27 34 8 4 -7 4 -3 2 9 -2 13 1 26
6 30 6 3 9 2 6 -3 -3 -5 0 -15 8 -22 10 -9 14 -9 14 -1 0 8 4 8 13 1 9 -8 16
-6 24 8 13 20 0 30 -38 30 -12 0 -17 5 -14 10 4 6 -5 20 -20 31 -17 14 -23 25
-17 33 5 6 12 23 16 37 5 22 2 28 -17 33 -32 8 -34 8 -43 -11z"/>
<path d="M840 5602 c0 -5 7 -9 15 -9 8 0 12 4 9 9 -3 4 -9 8 -15 8 -5 0 -9 -4
-9 -8z"/>
<path d="M10796 5585 c8 -37 14 -45 14 -19 0 10 -5 26 -10 34 -8 11 -9 7 -4
-15z"/>
<path d="M1078 5578 c-21 -6 -38 -14 -38 -19 0 -4 7 -5 17 -2 11 4 14 3 9 -6
-4 -6 -2 -25 6 -41 10 -23 20 -30 40 -30 27 0 46 16 33 28 -4 4 -10 1 -12 -6
-4 -9 -10 -7 -23 9 -11 12 -24 18 -31 13 -8 -4 -9 -3 -5 5 5 7 16 9 29 5 12
-4 32 -7 45 -6 17 1 22 -3 22 -24 0 -14 -4 -23 -10 -19 -5 3 -10 -2 -10 -11 0
-10 -3 -14 -7 -11 -11 12 -32 -27 -32 -58 l1 -30 13 35 c12 34 31 41 48 17 5
-7 6 -1 2 13 l-6 25 15 -25 c9 -14 15 -19 16 -12 0 6 5 12 11 12 6 0 9 -6 7
-12 -7 -20 16 -36 44 -31 l25 5 -26 26 c-16 16 -29 23 -33 17 -4 -5 -8 0 -8
13 0 13 -4 20 -10 17 -6 -4 -8 -11 -5 -16 4 -5 2 -9 -4 -9 -22 0 -27 77 -6 92
6 5 3 8 -7 8 -9 0 -18 4 -20 10 -1 5 -14 7 -27 3 -23 -6 -23 -7 -5 -14 18 -7
17 -8 -3 -8 -13 -1 -23 4 -23 10 0 6 -7 9 -15 5 -8 -3 -15 -1 -15 4 0 6 6 10
14 10 8 0 18 5 21 10 3 6 5 10 3 9 -2 -1 -20 -6 -40 -11z m172 -158 c0 -5 -2
-10 -4 -10 -3 0 -8 5 -11 10 -3 6 -1 10 4 10 6 0 11 -4 11 -10z"/>
<path d="M857 5563 c3 -7 6 -13 8 -13 2 0 5 6 8 13 3 8 -1 14 -8 14 -7 0 -11
-6 -8 -14z"/>
<path d="M10140 5556 c0 -22 3 -27 11 -19 8 8 8 16 0 30 -9 16 -10 14 -11 -11z"/>
<path d="M925 5560 c-5 -9 -4 -11 3 -6 7 4 12 3 12 -3 0 -5 -4 -13 -10 -16 -5
-3 -10 -12 -9 -18 0 -8 3 -7 6 2 4 10 7 10 13 1 5 -9 9 -8 13 3 8 21 -17 55
-28 37z"/>
<path d="M1210 5557 c0 -8 7 -17 15 -21 8 -3 15 -3 15 0 0 3 -7 12 -15 20 -13
13 -15 13 -15 1z"/>
<path d="M1041 5524 c0 -11 3 -14 6 -6 3 7 2 16 -1 19 -3 4 -6 -2 -5 -13z"/>
<path d="M862 5510 c0 -14 2 -19 5 -12 2 6 2 18 0 25 -3 6 -5 1 -5 -13z"/>
<path d="M10150 5513 c0 -4 5 -15 10 -23 8 -13 10 -13 10 2 0 9 -4 20 -10 23
-5 3 -10 3 -10 -2z"/>
<path d="M838 5473 c7 -3 16 -2 19 1 4 3 -2 6 -13 5 -11 0 -14 -3 -6 -6z"/>
<path d="M767 5455 c5 -14 2 -16 -18 -11 -19 6 -21 5 -7 -4 9 -5 24 -7 33 -4
17 7 16 25 -3 32 -8 2 -10 -2 -5 -13z"/>
<path d="M811 5454 c0 -11 3 -14 6 -6 3 7 2 16 -1 19 -3 4 -6 -2 -5 -13z"/>
<path d="M690 5430 c-13 -8 -12 -10 3 -10 9 0 17 5 17 10 0 12 -1 12 -20 0z"/>
<path d="M2350 5436 c0 -2 8 -10 18 -17 15 -13 16 -12 3 4 -13 16 -21 21 -21
13z"/>
<path d="M771 5404 c0 -11 3 -14 6 -6 3 7 2 16 -1 19 -3 4 -6 -2 -5 -13z"/>
<path d="M10340 5416 c0 -2 8 -10 18 -17 15 -13 16 -12 3 4 -13 16 -21 21 -21
13z"/>
<path d="M1135 5400 c-3 -5 -1 -10 4 -10 6 0 11 5 11 10 0 6 -2 10 -4 10 -3 0
-8 -4 -11 -10z"/>
<path d="M1291 5393 c-11 -12 -10 -14 5 -11 12 2 18 -2 16 -10 -1 -8 2 -11 8
-7 8 5 7 12 -2 23 -7 10 -12 18 -13 18 0 1 -6 -5 -14 -13z"/>
<path d="M1180 5386 c0 -13 5 -16 16 -12 12 5 15 2 10 -11 -6 -15 -5 -16 5 -5
10 9 10 15 1 24 -7 7 -12 8 -12 3 0 -6 -5 -3 -10 5 -8 13 -10 12 -10 -4z"/>
<path d="M2350 5396 c0 -2 8 -10 18 -17 15 -13 16 -12 3 4 -13 16 -21 21 -21
13z"/>
<path d="M11399 5383 c-13 -16 -12 -17 4 -4 9 7 17 15 17 17 0 8 -8 3 -21 -13z"/>
<path d="M1255 5380 c3 -5 8 -10 11 -10 2 0 4 5 4 10 0 6 -5 10 -11 10 -5 0
-7 -4 -4 -10z"/>
<path d="M2280 5371 c8 -16 8 -21 -1 -21 -7 0 -10 -2 -7 -5 7 -8 38 5 38 16 0
4 -9 13 -21 19 -19 11 -20 10 -9 -9z"/>
<path d="M2345 5370 c15 -24 14 -57 -1 -57 -8 0 -13 6 -10 12 2 6 -1 12 -8 12
-7 0 -13 -6 -13 -14 0 -7 4 -13 9 -13 4 0 8 -5 8 -11 0 -5 -6 -7 -12 -3 -7 4
-10 4 -6 -1 4 -4 2 -15 -4 -24 -7 -9 -8 -13 -4 -9 11 10 38 -11 30 -23 -3 -5
0 -9 6 -9 6 0 15 -10 21 -22 9 -22 9 -22 4 2 -11 44 -10 55 3 52 7 -1 15 5 18
13 3 8 10 12 15 9 5 -3 9 -1 9 4 0 5 7 9 15 9 8 0 15 -5 15 -11 0 -6 4 -4 9 4
13 20 2 34 -15 19 -11 -9 -14 -9 -14 0 0 7 -5 9 -11 5 -8 -4 -9 3 -4 24 3 16
2 33 -3 36 -6 4 -8 -3 -4 -16 l5 -22 -33 24 c-19 13 -30 18 -25 10z m44 -77
c-7 -7 -14 -11 -17 -8 -3 3 -13 -2 -23 -11 -13 -12 -17 -12 -16 -2 2 7 6 14
11 15 15 3 26 27 20 48 -4 18 -3 17 16 -4 16 -18 18 -27 9 -38z"/>
<path d="M2150 5356 c0 -3 9 -10 20 -16 11 -6 20 -8 20 -6 0 3 -9 10 -20 16
-11 6 -20 8 -20 6z"/>
<path d="M2273 5295 c-7 -22 -7 -35 -1 -35 5 0 7 -4 3 -9 -3 -5 -2 -12 3 -15
4 -2 8 5 9 17 0 12 4 34 8 50 11 40 -10 33 -22 -8z"/>
<path d="M2496 5317 c3 -10 9 -15 12 -12 3 3 0 11 -7 18 -10 9 -11 8 -5 -6z"/>
<path d="M10307 5323 c-4 -3 -7 -13 -7 -22 1 -13 3 -13 11 2 11 19 8 33 -4 20z"/>
<path d="M2180 5310 c0 -6 4 -9 9 -6 5 4 12 1 14 -4 3 -6 4 -5 3 2 -3 15 -26
23 -26 8z"/>
<path d="M4503 5299 c6 -10 16 -15 21 -12 6 4 5 8 -2 11 -7 2 -10 7 -8 11 3 4
-1 8 -8 8 -11 0 -12 -4 -3 -18z"/>
<path d="M4572 5300 c7 -11 17 -20 22 -20 5 0 1 9 -9 20 -10 11 -20 20 -22 20
-2 0 2 -9 9 -20z"/>
<path d="M976 5274 c-4 -14 -5 -28 -3 -31 3 -2 8 8 11 23 4 14 5 28 3 31 -3 2
-8 -8 -11 -23z"/>
<path d="M2200 5269 c0 -5 5 -7 10 -4 6 3 10 8 10 11 0 2 -4 4 -10 4 -5 0 -10
-5 -10 -11z"/>
<path d="M4600 5255 c0 -5 5 -17 10 -25 5 -8 10 -10 10 -5 0 6 -5 17 -10 25
-5 8 -10 11 -10 5z"/>
<path d="M2194 5238 c-4 -7 -4 -10 1 -6 4 4 15 2 24 -5 14 -11 14 -10 2 6 -16
20 -18 21 -27 5z"/>
<path d="M11539 5207 c6 -8 7 -18 3 -23 -4 -5 -3 -6 2 -2 5 4 16 2 25 -4 9 -7
5 0 -8 15 -25 27 -43 39 -22 14z"/>
<path d="M2400 5186 c0 -2 9 -6 20 -9 11 -3 18 -1 14 4 -5 9 -34 13 -34 5z"/>
<path d="M2475 5171 c3 -5 1 -12 -5 -16 -17 -10 -11 -21 12 -22 18 -2 20 0 8
7 -10 7 -11 10 -2 10 17 0 15 17 -4 24 -8 3 -12 2 -9 -3z"/>
<path d="M2516 5113 c8 -57 17 -73 13 -23 -2 19 1 36 6 37 6 1 9 -8 8 -20 -2
-17 0 -16 8 6 12 32 12 32 -19 42 -23 7 -23 6 -16 -42z"/>
<path d="M2566 5123 c-8 -21 -8 -23 9 -23 9 0 15 -6 14 -12 -3 -24 1 -38 11
-38 5 0 7 6 4 14 -4 11 0 13 15 9 12 -3 21 -10 21 -15 0 -6 6 -8 14 -5 8 3 17
1 20 -6 3 -9 5 -8 5 1 1 14 -48 59 -85 78 -18 10 -24 9 -28 -3z"/>
<path d="M3935 5111 c-3 -5 -1 -12 5 -16 5 -3 10 1 10 9 0 18 -6 21 -15 7z"/>
<path d="M4875 5110 c3 -5 1 -10 -5 -10 -6 0 -8 -5 -4 -11 5 -8 9 -8 14 1 5 8
11 3 19 -16 l11 -29 -5 28 c-4 21 -2 27 6 21 8 -4 9 -3 5 5 -4 6 -12 9 -17 6
-5 -4 -9 -1 -9 4 0 6 -5 11 -11 11 -5 0 -7 -4 -4 -10z"/>
<path d="M5478 5018 c-7 -13 -11 -27 -10 -31 3 -9 -25 -39 -32 -35 -2 2 -7 0
-11 -4 -3 -3 9 -5 29 -4 28 1 32 -1 23 -12 -8 -11 -8 -13 4 -11 19 3 50 -10
75 -33 19 -17 21 -17 21 -1 0 10 -7 26 -15 36 -17 19 -3 24 17 5 10 -11 11
-10 6 5 -4 9 -11 17 -17 17 -5 0 -7 4 -4 9 10 15 -22 21 -34 6 -6 -8 -18 -11
-26 -8 -12 4 -12 8 3 19 17 12 16 13 -4 7 -25 -6 -29 6 -13 38 6 10 8 19 6 19
-3 0 -11 -10 -18 -22z"/>
<path d="M2033 4965 c-6 -19 -8 -37 -3 -40 7 -4 23 65 16 72 -1 2 -7 -13 -13
-32z"/>
<path d="M5160 4910 c0 -5 5 -10 11 -10 5 0 7 5 4 10 -3 6 -8 10 -11 10 -2 0
-4 -4 -4 -10z"/>
<path d="M2033 4892 c-9 -14 -14 -15 -32 -4 -11 6 -24 12 -28 12 -5 0 1 -6 11
-12 19 -11 19 -11 1 -24 -14 -11 -15 -14 -4 -14 8 0 20 5 27 12 7 7 12 8 12 2
0 -6 7 -19 16 -30 8 -10 13 -13 9 -6 -3 6 -2 12 3 12 16 0 19 23 7 47 -10 19
-12 20 -22 5z m22 -32 c-3 -5 -11 -10 -16 -10 -6 0 -7 5 -4 10 3 6 11 10 16
10 6 0 7 -4 4 -10z"/>
<path d="M5068 4877 c-4 -9 -5 -31 -1 -48 l6 -32 18 34 c22 40 24 62 4 36 -13
-18 -14 -17 -17 5 -3 20 -4 20 -10 5z"/>
<path d="M2160 4871 c0 -6 4 -13 10 -16 6 -3 7 1 4 9 -7 18 -14 21 -14 7z"/>
<path d="M5020 4859 c0 -5 5 -7 10 -4 6 3 10 8 10 11 0 2 -4 4 -10 4 -5 0 -10
-5 -10 -11z"/>
<path d="M2755 4838 c17 -12 42 -35 58 -49 15 -15 27 -24 27 -20 0 11 -76 77
-97 85 -10 3 -4 -4 12 -16z"/>
<path d="M5555 4846 c-47 -20 -67 -44 -55 -65 5 -10 6 -21 2 -25 -3 -4 1 -4
11 0 11 4 17 18 18 38 1 30 1 30 9 6 4 -14 8 -19 9 -11 1 11 5 10 16 -5 11
-15 14 -16 15 -3 0 8 -6 21 -12 29 -7 8 -4 7 8 -3 11 -9 24 -14 29 -10 4 5 5
2 1 -4 -4 -8 -1 -13 8 -13 21 0 30 18 16 35 -9 11 -7 12 9 8 34 -9 24 14 -10
26 -39 13 -37 13 -74 -3z"/>
<path d="M5110 4832 c0 -10 -5 -23 -10 -28 -8 -8 -7 -14 2 -21 10 -9 13 -3 15
28 2 21 0 39 -2 39 -3 0 -5 -8 -5 -18z"/>
<path d="M5047 4823 c-3 -5 -1 -17 4 -28 7 -17 8 -17 8 8 1 27 -4 34 -12 20z"/>
<path d="M1980 4810 c-8 -5 -10 -10 -5 -10 6 0 17 5 25 10 8 5 11 10 5 10 -5
0 -17 -5 -25 -10z"/>
<path d="M1977 4759 c-16 -16 -26 -29 -23 -29 15 0 56 24 60 36 10 25 -9 22
-37 -7z"/>
<path d="M2846 4737 c3 -10 9 -15 12 -12 3 3 0 11 -7 18 -10 9 -11 8 -5 -6z"/>
<path d="M3658 4683 c5 -21 7 -23 10 -9 2 10 0 22 -6 28 -6 6 -7 0 -4 -19z"/>
<path d="M5313 4659 c-12 -12 -7 -39 8 -39 4 0 6 7 3 15 -4 8 -1 15 5 15 6 0
11 5 11 10 0 13 -13 13 -27 -1z"/>
<path d="M3641 4644 c0 -11 3 -14 6 -6 3 7 2 16 -1 19 -3 4 -6 -2 -5 -13z"/>
<path d="M3687 4579 c7 -27 23 -34 23 -11 0 11 -6 22 -14 25 -10 4 -12 0 -9
-14z"/>
<path d="M5523 4570 c6 -16 14 -30 18 -30 4 0 5 -10 2 -22 -4 -19 -3 -20 6 -8
10 13 11 13 11 0 1 -8 7 -28 15 -45 11 -22 13 -24 9 -6 -3 13 -7 29 -8 35 -2
13 -55 106 -61 106 -2 0 2 -13 8 -30z"/>
<path d="M5305 4568 c-4 -10 -4 -26 0 -35 8 -17 8 -17 12 0 3 9 3 25 0 35 -4
16 -4 16 -12 0z"/>
<path d="M6593 4494 c-10 -26 14 -41 35 -20 9 9 13 16 7 15 -22 -4 -36 1 -30
11 3 6 4 10 0 10 -3 0 -8 -7 -12 -16z"/>
<path d="M7260 4465 c13 -14 25 -23 27 -21 6 6 -30 46 -41 46 -5 0 1 -11 14
-25z"/>
<path d="M11342 4470 c0 -14 2 -19 5 -12 2 6 2 18 0 25 -3 6 -5 1 -5 -13z"/>
<path d="M3810 4457 c0 -12 5 -29 10 -37 8 -13 10 -13 10 2 0 9 3 23 6 31 3 8
-2 17 -10 20 -12 5 -16 0 -16 -16z"/>
<path d="M2726 4432 c-3 -6 -1 -14 5 -17 14 -9 20 -2 10 14 -6 8 -11 9 -15 3z"/>
<path d="M5590 4425 c0 -5 5 -17 10 -25 5 -8 10 -10 10 -5 0 6 -5 17 -10 25
-5 8 -10 11 -10 5z"/>
<path d="M7291 4406 c-8 -10 -9 -16 -1 -21 6 -3 8 -10 6 -14 -3 -4 1 -8 9 -8
13 0 13 3 0 17 -11 13 -12 19 -3 28 7 7 9 12 6 12 -3 0 -11 -6 -17 -14z"/>
<path d="M5091 4383 c-1 -12 4 -25 9 -28 12 -7 12 2 0 30 -8 19 -9 19 -9 -2z"/>
<path d="M11432 4355 c3 -29 22 -35 25 -8 2 15 1 15 -7 -2 -9 -18 -10 -17 -7
8 3 15 0 27 -5 27 -5 0 -8 -11 -6 -25z"/>
<path d="M5620 4350 c0 -5 5 -10 11 -10 5 0 7 5 4 10 -3 6 -8 10 -11 10 -2 0
-4 -4 -4 -10z"/>
<path d="M4220 4326 c0 -9 5 -16 10 -16 6 0 10 4 10 9 0 6 -4 13 -10 16 -5 3
-10 -1 -10 -9z"/>
<path d="M4907 4300 c3 -11 7 -20 9 -20 2 0 4 9 4 20 0 11 -4 20 -9 20 -5 0
-7 -9 -4 -20z"/>
<path d="M2735 4290 c-3 -5 -1 -10 4 -10 6 0 11 5 11 10 0 6 -2 10 -4 10 -3 0
-8 -4 -11 -10z"/>
<path d="M1891 4244 c0 -11 3 -14 6 -6 3 7 2 16 -1 19 -3 4 -6 -2 -5 -13z"/>
<path d="M5037 4240 c-9 -34 -8 -48 2 -32 6 10 10 4 15 -19 3 -18 8 -30 11
-28 2 3 -2 27 -9 54 -11 44 -13 47 -19 25z"/>
<path d="M5090 4191 c0 -6 4 -13 10 -16 6 -3 7 1 4 9 -7 18 -14 21 -14 7z"/>
<path d="M7757 4180 c3 -11 10 -20 15 -20 5 0 6 -6 2 -12 -4 -7 2 -5 13 5 11
9 24 14 28 10 5 -5 3 0 -4 10 -14 18 -26 24 -16 8 3 -5 1 -12 -4 -15 -5 -4
-12 3 -16 14 -8 26 -25 26 -18 0z"/>
<path d="M2822 4165 c0 -16 2 -22 5 -12 2 9 2 23 0 30 -3 6 -5 -1 -5 -18z"/>
<path d="M1591 3884 c0 -11 3 -14 6 -6 3 7 2 16 -1 19 -3 4 -6 -2 -5 -13z"/>
<path d="M2001 3804 c0 -11 3 -14 6 -6 3 7 2 16 -1 19 -3 4 -6 -2 -5 -13z"/>
<path d="M7766 3501 c-3 -5 0 -11 8 -14 15 -6 26 1 26 15 0 11 -27 10 -34 -1z"/>
<path d="M7785 3469 c-4 -6 -4 -13 -1 -16 8 -8 36 5 36 17 0 13 -27 13 -35 -1z"/>
<path d="M7823 3431 c-1 -11 5 -22 13 -25 11 -4 15 0 12 16 -4 27 -23 34 -25
9z"/>
<path d="M7768 3433 c-10 -2 -18 -12 -18 -21 0 -15 -2 -15 -10 -2 -7 11 -9 -3
-9 -45 1 -52 3 -55 9 -25 4 19 8 31 9 25 1 -5 8 5 16 23 8 17 19 32 25 32 5 0
10 5 10 10 0 10 -3 11 -32 3z"/>
<path d="M3955 3320 c-10 -11 -13 -20 -8 -20 13 0 38 29 31 35 -3 3 -13 -4
-23 -15z"/>
<path d="M5010 3329 c0 -5 5 -7 10 -4 6 3 10 8 10 11 0 2 -4 4 -10 4 -5 0 -10
-5 -10 -11z"/>
<path d="M4627 3315 c-5 -11 0 -15 16 -15 12 0 18 4 12 8 -5 4 -13 11 -16 15
-4 4 -9 1 -12 -8z"/>
<path d="M5110 3287 c0 -10 8 -17 18 -17 9 0 13 4 7 8 -5 4 -13 11 -17 16 -5
5 -8 2 -8 -7z"/>
<path d="M3880 3245 c-7 -9 -21 -13 -30 -10 -13 4 -19 -1 -22 -19 -7 -34 1
-40 21 -17 9 10 26 23 39 30 12 6 22 16 22 21 0 15 -16 12 -30 -5z"/>
<path d="M4265 3250 c-3 -5 -1 -10 4 -10 6 0 11 5 11 10 0 6 -2 10 -4 10 -3 0
-8 -4 -11 -10z"/>
<path d="M6309 3252 c-2 -5 -15 -13 -28 -17 -17 -5 -22 -4 -16 5 5 8 3 11 -6
8 -8 -2 -18 -14 -24 -26 -5 -12 -14 -22 -20 -23 -5 0 -1 -4 10 -9 19 -8 19 -9
-2 -9 -15 -1 -23 -7 -22 -18 0 -10 3 -13 5 -6 3 7 11 10 19 7 8 -3 20 4 27 15
7 12 18 21 25 21 7 0 12 4 11 9 -2 5 6 16 17 24 11 9 17 18 14 22 -4 3 -9 2
-10 -3z"/>
<path d="M6205 3230 c3 -5 8 -10 11 -10 2 0 4 5 4 10 0 6 -5 10 -11 10 -5 0
-7 -4 -4 -10z"/>
<path d="M1175 3179 c-4 -11 -4 -23 -1 -26 3 -4 6 -1 6 6 0 7 5 9 10 6 6 -3
10 -1 10 5 0 6 4 9 8 6 5 -3 9 1 9 7 0 21 -36 17 -42 -4z"/>
<path d="M3985 3160 c-3 -5 -1 -10 4 -10 6 0 11 5 11 10 0 6 -2 10 -4 10 -3 0
-8 -4 -11 -10z"/>
<path d="M3958 3098 c-21 -42 -29 -78 -17 -78 15 0 10 -27 -7 -34 -8 -3 -13
-10 -10 -15 4 -6 -9 -8 -30 -6 -31 3 -35 1 -31 -16 3 -11 -1 -23 -11 -28 -9
-5 -14 -13 -9 -17 4 -4 15 1 26 10 10 10 25 16 33 15 20 -5 58 20 58 37 0 21
27 29 47 13 15 -12 16 -12 9 6 -5 11 -11 28 -13 38 -3 10 -15 17 -30 17 -25 0
-25 0 -9 26 10 14 16 34 14 45 -2 17 -6 15 -20 -13z"/>
<path d="M4005 3110 c-3 -5 -2 -10 4 -10 5 0 13 5 16 10 3 6 2 10 -4 10 -5 0
-13 -4 -16 -10z"/>
<path d="M3766 3064 c7 -3 10 -25 7 -57 -3 -41 -1 -47 7 -29 5 13 14 20 20 17
6 -4 10 5 10 19 0 35 20 33 21 -1 l1 -28 7 25 c10 32 5 40 -24 40 -13 0 -27 5
-30 10 -3 6 -12 10 -18 9 -8 0 -8 -2 -1 -5z"/>
<path d="M6360 3055 c0 -8 2 -15 4 -15 2 0 6 7 10 15 3 8 1 15 -4 15 -6 0 -10
-7 -10 -15z"/>
<path d="M5517 3034 c6 -16 19 -18 27 -5 3 5 -3 11 -13 14 -14 3 -18 1 -14 -9z"/>
<path d="M3880 3024 c0 -14 3 -15 18 -3 9 7 19 15 21 16 2 2 -5 3 -17 3 -14 0
-22 -6 -22 -16z"/>
<path d="M4018 3033 c7 -3 16 -2 19 1 4 3 -2 6 -13 5 -11 0 -14 -3 -6 -6z"/>
<path d="M4170 3002 c-8 -3 -18 -11 -22 -17 -5 -7 -29 -25 -55 -41 -42 -24
-101 -74 -88 -74 3 0 26 11 52 24 27 14 62 30 78 37 17 8 33 15 36 16 12 7 5
-32 -8 -45 -7 -7 -13 -20 -13 -28 0 -23 28 -16 46 11 9 14 23 25 30 25 8 0 14
4 14 9 0 13 74 20 82 7 4 -6 8 4 8 22 l0 33 -22 -20 c-11 -11 -25 -18 -30 -15
-5 3 -1 12 9 19 17 12 16 14 -10 20 -16 4 -39 3 -53 -4 -32 -14 -32 -14 -36 7
-2 12 -9 17 -18 14z"/>
<path d="M5535 2987 c-40 -15 -39 -14 -24 -30 11 -11 17 -11 41 0 15 8 28 21
28 29 0 16 -4 16 -45 1z"/>
<path d="M5360 2980 c0 -5 5 -10 10 -10 6 0 10 5 10 10 0 6 -4 10 -10 10 -5 0
-10 -4 -10 -10z"/>
<path d="M1245 2969 c-4 -6 -5 -12 -2 -15 2 -3 7 2 10 11 7 17 1 20 -8 4z"/>
<path d="M3797 2953 c-4 -3 -7 -13 -7 -22 1 -13 3 -13 11 2 11 19 8 33 -4 20z"/>
<path d="M4093 2879 c14 -8 22 -8 30 0 8 8 3 11 -18 11 -26 -1 -28 -2 -12 -11z"/>
<path d="M3986 2815 c-11 -8 -15 -15 -9 -15 6 0 16 7 23 15 16 19 11 19 -14 0z"/>
<path d="M841 2744 c0 -11 3 -14 6 -6 3 7 2 16 -1 19 -3 4 -6 -2 -5 -13z"/>
<path d="M3980 2690 c0 -5 4 -10 9 -10 6 0 13 5 16 10 3 6 -1 10 -9 10 -9 0
-16 -4 -16 -10z"/>
<path d="M4180 2690 c0 -5 7 -10 15 -10 8 0 15 5 15 10 0 6 -7 10 -15 10 -8 0
-15 -4 -15 -10z"/>
<path d="M1156 2630 c7 -7 19 -7 35 -1 23 9 22 10 -10 10 -24 1 -32 -2 -25 -9z"/>
<path d="M1080 2580 c0 -5 9 -10 20 -10 11 0 20 5 20 10 0 6 -9 10 -20 10 -11
0 -20 -4 -20 -10z"/>
<path d="M3810 2490 c0 -5 5 -10 11 -10 5 0 7 5 4 10 -3 6 -8 10 -11 10 -2 0
-4 -4 -4 -10z"/>
<path d="M4167 2433 c-12 -11 -8 -23 8 -23 8 0 15 7 15 15 0 16 -12 20 -23 8z"/>
</g>
</svg>
