<svg version="1.1" id="Layer_1" xmlns="http://www.w3.org/2000/svg" xmlns:xlink="http://www.w3.org/1999/xlink" x="0px" y="0px"
	 width="100%" viewBox="0 0 1024 784" enable-background="new 0 0 1024 784" xml:space="preserve">
<path fill="#000000" opacity="1.000000" stroke="none" 
	d="
M391.614929,591.802002 
	C372.896515,593.958862 354.625458,593.122620 336.312256,592.385803 
	C325.191071,591.938293 314.014832,592.921265 302.861633,593.190308 
	C288.391541,593.539307 274.468964,591.133728 260.715088,586.351562 
	C252.407242,583.462830 243.832001,581.313965 235.737106,577.736450 
	C228.857803,574.696106 224.104477,569.666382 221.070129,562.833313 
	C216.363190,552.233887 209.832565,542.848083 201.616653,534.683105 
	C196.804962,529.901245 193.891388,523.844971 190.317093,518.265808 
	C183.326553,507.354156 175.512787,497.020386 169.089020,485.675934 
	C163.816757,476.365051 154.959366,470.434967 144.184738,467.983521 
	C139.307510,466.873871 134.554077,465.340729 129.926361,463.415985 
	C124.261688,461.059998 121.171501,456.800873 119.427216,450.951904 
	C116.338257,440.594025 116.593620,430.199921 118.373055,419.784241 
	C121.541489,401.238251 124.766747,382.696869 128.373123,364.232666 
	C130.583649,352.915131 137.506378,345.702667 148.989944,343.016388 
	C157.891357,340.934143 166.894424,339.365814 175.695129,336.725525 
	C183.803223,334.292999 190.075714,329.477234 194.899429,323.083344 
	C200.782135,315.285706 207.671967,308.593994 215.491028,303.066406 
	C223.296524,297.548401 229.097931,289.808502 237.226639,284.740417 
	C240.416397,282.751678 243.688766,281.406219 247.415405,280.966339 
	C258.658844,279.639191 269.725220,278.884552 281.192047,280.521423 
	C294.661133,282.444061 307.438354,279.744476 318.206848,269.683838 
	C328.292908,260.260712 340.949402,255.244598 354.645966,253.464249 
	C362.641052,252.424973 370.473572,255.279404 378.483582,255.276657 
	C397.005402,255.270355 413.035187,262.424377 428.238770,272.359100 
	C439.974945,280.028076 449.566925,278.696960 459.633453,268.837585 
	C469.300995,259.368988 480.653320,254.533508 494.358429,255.911362 
	C496.258118,256.102325 497.914490,256.661713 499.368927,257.890320 
	C508.947968,265.982086 520.562683,269.378906 532.558167,270.374481 
	C555.501831,272.278748 577.855164,270.009125 599.614258,260.988342 
	C618.258667,253.258820 637.818787,251.182419 657.567566,258.570648 
	C665.204346,261.427612 673.392639,262.575348 681.488586,263.651093 
	C691.795959,265.020691 701.760071,263.213104 711.412048,259.616577 
	C718.229553,257.076233 725.267822,255.941071 732.480225,256.131378 
	C743.117432,256.412018 753.111694,252.628510 763.558533,251.505035 
	C776.358521,250.128555 788.057678,253.346649 799.550293,257.848022 
	C807.473938,260.951538 814.081543,266.241760 820.699097,271.740021 
	C831.828308,280.986755 843.095825,290.058746 853.982117,299.609436 
	C861.122498,305.873779 869.208374,311.582184 874.307800,319.397064 
	C884.999573,335.782379 897.325500,351.504456 896.447266,373.214325 
	C895.876892,387.316956 900.809753,401.121277 902.545166,415.170837 
	C904.757751,433.083832 904.278198,450.700562 896.956970,467.605377 
	C894.620850,472.999542 891.037781,476.841370 885.672913,479.678741 
	C873.485718,486.124268 861.479919,492.955261 849.746155,500.190338 
	C846.180298,502.389069 842.369385,503.142761 838.667969,504.434509 
	C833.460876,506.251678 830.495911,509.865387 828.385925,514.619751 
	C824.339478,523.737488 819.377197,532.768372 816.587402,542.053772 
	C812.000244,557.321167 799.388367,565.399536 790.552124,576.782410 
	C786.920410,581.460632 781.130249,581.799316 775.852356,581.522400 
	C770.257080,581.228821 764.646790,580.362732 759.238281,578.371582 
	C749.826843,574.906555 740.134399,572.346069 729.994324,573.989380 
	C726.275269,574.592041 722.667419,576.157776 719.136780,577.597900 
	C703.871216,583.824341 687.995544,588.391541 672.804810,594.837036 
	C663.971313,598.585083 654.345093,596.650818 645.136841,597.926880 
	C626.430359,600.519409 607.923279,598.533447 589.557678,594.764160 
	C583.420410,593.504517 577.158020,593.986694 571.138123,594.450378 
	C551.782043,595.941406 532.985352,592.071289 514.049194,589.591614 
	C506.626495,588.619690 499.413055,589.772583 492.145721,590.317261 
	C486.824127,590.716064 481.505188,591.263550 476.189575,591.056702 
	C462.146545,590.510071 448.300415,592.241333 434.367706,593.613403 
	C422.964874,594.736389 411.463867,592.548828 400.022491,591.618774 
	C397.336700,591.400452 394.712250,591.353333 391.614929,591.802002 
M251.911911,318.434570 
	C242.248917,318.410583 232.585922,318.375183 222.922913,318.366241 
	C215.508362,318.359344 215.260498,318.561951 215.299530,325.923981 
	C215.382828,341.633362 213.638840,338.307190 227.686600,341.238434 
	C232.431381,342.228485 233.458572,344.252441 233.419327,348.601196 
	C233.241913,368.260864 233.188492,387.924591 233.398987,407.583588 
	C233.510956,418.040985 232.609085,428.502716 234.266388,438.967224 
	C238.538422,465.941437 257.813507,479.432068 280.353668,484.550812 
	C292.760071,487.368225 305.334839,487.308258 317.887085,484.663910 
	C331.921265,481.707275 344.186890,475.846069 353.870209,464.904449 
	C364.049866,453.402008 366.415344,439.451141 366.575043,424.963684 
	C366.859680,399.140594 366.671234,373.312134 366.648651,347.485931 
	C366.646027,344.471771 366.832001,342.352081 370.778839,341.463409 
	C385.990479,338.038361 383.434296,341.747070 383.657196,325.003937 
	C383.661591,324.670807 383.631714,324.336731 383.647064,324.004425 
	C383.823120,320.194153 381.780487,318.441528 378.194489,318.434357 
	C358.533752,318.395020 338.872925,318.408142 319.212128,318.425232 
	C317.222076,318.426971 315.330505,319.037354 315.288879,321.355438 
	C315.190765,326.819611 313.664886,332.678223 315.997284,337.623749 
	C317.675385,341.181824 322.821716,340.048004 326.428833,340.981628 
	C326.751099,341.065033 327.061584,341.197113 327.385956,341.268494 
	C330.952667,342.053314 332.473389,343.960480 332.451416,347.906891 
	C332.296387,375.730774 332.631989,403.559143 332.280701,431.379395 
	C332.108887,444.986816 325.704163,454.950043 311.959320,458.724182 
	C303.491791,461.049225 295.282257,460.753967 286.902588,458.455261 
	C276.598694,455.628693 267.884491,446.002960 267.787659,435.425751 
	C267.516144,405.769836 267.707184,376.109802 267.674469,346.451447 
	C267.671173,343.447449 268.857422,342.140869 271.946228,341.520386 
	C284.887238,338.920929 284.863770,338.804138 284.666748,325.461884 
	C284.577057,319.388367 283.752319,318.491577 277.756531,318.449799 
	C269.435272,318.391785 261.113281,318.431122 251.911911,318.434570 
M475.922211,480.505829 
	C476.628082,483.318268 479.067596,483.352203 481.135040,483.380676 
	C493.128662,483.545959 505.124573,483.549316 517.119690,483.609131 
	C520.233215,483.624664 521.697021,482.062042 521.634888,478.969269 
	C521.598022,477.137238 521.643372,475.303741 521.632202,473.470978 
	C521.574158,463.975494 520.858521,462.800629 511.603760,461.505432 
	C506.970612,460.857056 505.552368,458.989105 505.583923,454.401184 
	C505.755981,429.408752 505.628510,404.414276 505.620361,379.420532 
	C505.613312,357.759308 505.651855,336.098022 505.620239,314.436859 
	C505.609009,306.750916 505.123840,306.338562 497.335602,306.332458 
	C486.171722,306.323700 475.007721,306.292938 463.843964,306.325500 
	C453.454895,306.355804 454.238556,305.462158 454.352325,315.661987 
	C454.490326,328.039032 451.905914,326.983826 466.163208,329.494446 
	C470.174194,330.200745 471.460449,331.802795 471.436371,335.673767 
	C471.370056,346.330750 471.588806,356.989532 471.699127,367.647552 
	C471.711212,368.817261 471.828918,370.017334 470.415527,370.710907 
	C468.679413,370.476074 467.702179,369.018463 466.468018,367.956268 
	C460.126953,362.498779 452.962860,358.577057 444.487518,358.453278 
	C420.289001,358.099884 406.817657,370.955841 399.134918,391.764832 
	C394.428680,404.511932 393.944855,417.784515 394.439484,431.099152 
	C395.034149,447.106934 399.156189,461.896912 410.768158,473.797089 
	C424.853363,488.231903 452.222351,492.444214 468.124420,475.485596 
	C469.518280,473.999084 470.697113,471.871887 473.407745,472.208008 
	C475.179474,474.416718 475.048615,477.199921 475.922211,480.505829 
M761.747253,452.811401 
	C762.297974,454.549316 762.831665,456.292816 763.403625,458.023712 
	C764.127747,460.215637 763.299561,461.352478 761.145203,462.096161 
	C753.353455,464.785736 753.370789,464.839142 753.342590,472.834290 
	C753.336121,474.666595 753.490601,476.513977 753.309570,478.328308 
	C752.888306,482.550598 754.805054,483.753967 758.849792,483.695770 
	C772.173523,483.503998 785.502625,483.725586 798.827942,483.600250 
	C812.556030,483.471161 810.542419,485.707489 810.677307,471.723694 
	C810.747925,464.405853 809.891724,463.348633 802.734436,462.415710 
	C799.705811,462.020935 797.950562,460.755096 796.946289,457.869507 
	C790.287537,438.738342 783.503235,419.650909 776.828552,400.525269 
	C768.125793,375.588623 759.341370,350.678558 750.934937,325.641968 
	C749.111877,320.212402 745.902405,318.342865 740.675842,318.394501 
	C733.347046,318.466919 726.015076,318.498810 718.688171,318.356842 
	C715.279602,318.290802 713.523926,319.872040 712.478577,322.934906 
	C707.827454,336.561829 703.134338,350.174835 698.375793,363.764587 
	C687.449951,394.966980 676.446777,426.142395 665.573853,457.363098 
	C664.574829,460.231567 662.952454,461.759430 660.025879,462.325470 
	C652.449402,463.790863 652.393738,463.926666 652.393616,471.793640 
	C652.393555,473.459442 652.375427,475.125336 652.386047,476.791077 
	C652.426514,483.141083 652.841370,483.596710 659.223206,483.595459 
	C674.200745,483.592529 689.178345,483.526428 704.155884,483.528381 
	C706.159180,483.528625 708.146729,483.225830 708.344482,480.963196 
	C708.792480,475.836487 709.460693,470.568878 707.689697,465.620972 
	C706.437256,462.121948 702.273071,462.923126 699.625732,461.385162 
	C699.209595,461.143433 698.860107,460.786987 698.182739,460.246582 
	C699.752625,454.929535 701.524719,449.584381 702.871887,444.134155 
	C703.770996,440.496765 705.811890,439.516174 709.328064,439.563507 
	C721.319824,439.724792 733.315002,439.624023 745.308899,439.635193 
	C758.070557,439.647064 758.070557,439.652924 761.747253,452.811401 
M627.251465,477.731232 
	C639.477905,471.686707 636.993164,471.825439 632.877258,462.730530 
	C631.921326,460.618103 630.918030,458.524139 630.047546,456.376678 
	C628.585266,452.769165 626.603821,451.638214 622.747864,453.653381 
	C616.536255,456.899567 609.864624,459.143524 602.885437,460.035065 
	C585.320496,462.278839 571.132629,456.992188 567.422913,438.829346 
	C566.233154,433.003632 566.527405,432.569244 572.488525,432.582123 
	C592.481812,432.625275 612.475037,432.646576 632.468323,432.645508 
	C638.651245,432.645172 639.693359,431.643433 639.644714,425.315643 
	C639.573425,416.032715 640.009399,406.796570 637.805725,397.545074 
	C634.415283,383.311523 627.308167,371.953369 614.343689,365.029572 
	C602.082275,358.481171 589.016907,356.828125 575.193604,359.725494 
	C556.862610,363.567719 544.640015,374.487366 537.395569,391.195404 
	C530.654114,406.743530 529.756042,423.152405 532.709167,439.642944 
	C535.284851,454.026031 541.994019,466.424286 554.173279,474.945496 
	C577.531189,491.287659 601.931213,488.952179 627.251465,477.731232 
z"/>
<path fill="#000000" opacity="1.000000" stroke="none" 
	d="
M440.088837,387.820160 
	C450.854340,381.413055 466.396423,386.903870 470.204987,394.979523 
	C471.404236,397.522461 471.865570,399.985626 471.872772,402.632294 
	C471.907990,415.588226 471.989532,428.545410 471.855865,441.500061 
	C471.731873,453.520294 460.174011,462.327637 448.246399,460.093506 
	C434.221771,457.466583 430.496033,448.513062 428.732941,435.436401 
	C427.425720,425.740906 427.763885,415.957397 429.750549,406.370087 
	C431.206085,399.345886 433.685303,392.645935 440.088837,387.820160 
z"/>
<path fill="#000000" opacity="1.000000" stroke="none" 
	d="
M741.261963,388.848816 
	C743.846375,397.267883 746.360657,405.293182 749.062317,413.916565 
	C736.917236,413.916565 725.414612,413.916565 713.101318,413.916565 
	C718.211731,395.209808 724.513916,377.293945 730.234497,359.191803 
	C730.768677,359.240204 731.302856,359.288605 731.837097,359.337006 
	C734.955322,369.042999 738.073608,378.748993 741.261963,388.848816 
z"/>
<path fill="#000000" opacity="1.000000" stroke="none" 
	d="
M571.742615,392.868530 
	C577.454651,384.893219 586.603271,382.868805 595.925781,386.203186 
	C602.507202,388.557129 607.358276,400.534393 606.361938,407.220734 
	C606.012390,409.566803 604.827515,410.331451 602.711426,410.328888 
	C591.894470,410.315826 581.077576,410.295746 570.260620,410.314545 
	C566.968445,410.320282 566.264160,408.372528 566.822815,405.698822 
	C567.743103,401.294495 568.935669,396.961884 571.742615,392.868530 
z"/>
</svg>