<svg version="1.1" id="Layer_1" xmlns="http://www.w3.org/2000/svg" xmlns:xlink="http://www.w3.org/1999/xlink" x="0px" y="0px"
	 width="100%" viewBox="0 0 896 1024" enable-background="new 0 0 896 1024" xml:space="preserve">
<path fill="#000000" opacity="1.000000" stroke="none" 
	d="
M521.101562,707.327637 
	C475.915680,719.262146 435.920837,711.292847 402.380554,678.068481 
	C384.483551,660.339966 372.701538,638.441162 361.654449,616.125854 
	C352.117310,596.860596 343.809265,577.039124 335.012329,557.438843 
	C334.141846,555.499329 333.536316,553.385010 331.539062,551.918335 
	C328.917267,553.528320 329.307892,556.029297 329.395844,558.201477 
	C329.808685,568.398743 332.009003,578.277100 334.806519,588.065002 
	C337.545959,597.649719 341.344940,606.940247 342.606506,616.942993 
	C343.903259,627.224182 340.137543,633.545593 330.412811,637.021851 
	C325.015411,638.951233 319.367218,639.627991 313.745087,640.021484 
	C301.007416,640.913025 288.460754,639.375000 276.277161,635.572937 
	C259.862518,630.450439 248.384674,619.103516 239.042114,605.239319 
	C226.928802,587.263306 218.974030,567.321350 211.645889,547.084290 
	C206.365936,532.503357 201.921631,517.727234 200.140564,502.236053 
	C199.393768,495.740540 199.306366,489.217926 199.775635,482.775787 
	C201.110550,464.449860 197.720581,446.756256 194.419846,428.857269 
	C184.272781,373.832275 190.151123,321.008179 219.404358,272.270996 
	C238.720413,240.089615 266.541565,216.970505 299.749786,200.042648 
	C300.489594,199.665527 301.262024,199.309753 302.060181,199.099106 
	C303.493835,198.720718 305.213379,198.115295 306.119476,199.728577 
	C307.076233,201.432007 305.544678,202.477829 304.381531,203.395142 
	C299.412506,207.313965 294.290070,211.047165 289.440826,215.107544 
	C258.009216,241.425919 237.565430,274.429443 230.607193,314.992340 
	C224.015076,353.421021 230.374573,390.232574 247.117813,425.295288 
	C259.092194,450.371429 275.681183,471.788391 298.186890,488.353394 
	C300.646851,490.164032 303.455231,493.732117 306.354370,491.896973 
	C309.725281,489.763336 306.460999,486.154938 305.720764,483.346619 
	C302.326660,470.470032 298.794006,457.669098 298.369873,444.205780 
	C298.021667,433.150879 300.129913,422.347046 301.031555,411.423553 
	C302.044861,399.147430 302.565094,386.929016 302.176788,374.553650 
	C300.403717,318.046234 317.930115,269.099030 360.450165,230.373566 
	C368.098999,223.407318 376.020294,216.756149 384.667786,211.080963 
	C388.254303,208.727188 388.253326,206.920227 385.858704,203.607956 
	C374.170929,187.441299 370.127441,169.842224 379.829468,151.571106 
	C391.067047,130.408234 408.846985,117.371925 433.109833,114.971107 
	C445.995270,113.696091 457.655518,117.884445 466.487274,127.648293 
	C478.343079,140.755386 485.149139,156.278351 486.251434,174.023315 
	C486.691071,181.100861 483.359741,186.512848 477.375183,190.281693 
	C477.093140,190.459305 476.827118,190.677414 476.523224,190.803070 
	C458.817780,198.123474 442.922729,208.215698 428.565979,220.962997 
	C422.019135,226.775940 414.308624,226.429367 406.642670,222.292313 
	C400.415985,218.931946 400.336823,219.069656 396.115936,224.826233 
	C376.157104,252.046509 362.634247,282.072296 358.675018,315.724365 
	C354.219147,353.598053 361.364349,388.728668 386.825256,418.535736 
	C399.621857,433.516724 415.748871,443.715820 434.815002,448.543762 
	C446.305115,451.453247 454.194214,457.505066 458.378876,468.611633 
	C459.478912,471.531219 461.304260,474.219849 463.049377,476.846527 
	C469.914368,487.179688 476.413849,489.815399 488.588196,487.371094 
	C491.850616,486.716064 495.105286,486.022614 498.364746,485.352783 
	C506.574249,483.665558 514.286804,485.132996 521.478577,489.261566 
	C526.450378,492.115692 531.720520,493.984894 537.316467,495.141144 
	C545.387817,496.808899 552.117065,494.574585 557.632324,488.539337 
	C558.754578,487.311279 559.881348,486.053131 560.784546,484.664734 
	C566.376587,476.069366 574.215881,472.892426 584.472107,472.650238 
	C633.547607,471.491516 674.319275,441.832855 691.770569,395.654816 
	C699.044128,376.408234 702.418518,356.570129 702.592957,336.092438 
	C702.598633,335.425842 702.569275,334.757080 702.613159,334.093079 
	C702.721130,332.459747 702.469482,330.426422 704.632141,330.064362 
	C706.724304,329.714050 707.472656,331.625824 708.001160,333.145203 
	C710.959229,341.649445 712.844604,350.426514 714.299927,359.295319 
	C720.202515,395.266846 718.982971,431.239014 714.450867,467.240051 
	C708.392090,515.367920 697.010071,562.110107 678.349854,606.960938 
	C671.098083,624.390869 662.679688,641.195068 650.417603,655.795532 
	C647.820068,658.888428 645.015686,661.728516 641.684387,663.958618 
	C626.294983,674.261230 609.852051,681.957336 591.274414,684.563904 
	C564.824951,688.274902 548.778503,672.926147 550.311035,646.100952 
	C551.133972,631.695374 555.327393,617.973267 557.176147,603.808411 
	C559.402466,586.750732 560.880554,569.712219 556.680115,552.735962 
	C555.433044,547.696045 553.657715,542.848755 550.179993,538.828430 
	C544.470154,532.227600 537.646301,531.578186 530.836304,537.046631 
	C524.615662,542.041809 521.183411,548.903564 518.648621,556.198425 
	C512.334961,574.367920 512.296143,593.118164 513.984192,611.975647 
	C515.368896,627.444885 518.848450,642.491150 523.215271,657.367004 
	C524.445679,661.558655 526.164246,665.487244 528.118713,669.357056 
	C529.769653,672.626099 531.487122,675.877930 532.875488,679.260315 
	C538.608704,693.227844 535.401733,700.985962 521.101562,707.327637 
M479.812073,495.783600 
	C477.246826,496.886475 478.412933,498.801819 478.972076,500.376984 
	C480.404388,504.411957 483.007660,507.656372 486.479584,510.114349 
	C497.505066,517.919800 509.701691,519.844482 522.586121,516.386719 
	C529.139282,514.628113 534.509888,510.868713 537.308594,503.250946 
	C517.725098,502.455414 499.021667,499.863251 479.812073,495.783600 
z"/>
<path fill="#000000" opacity="1.000000" stroke="none" 
	d="
M472.008301,810.098999 
	C472.653748,808.507385 473.029633,807.201660 473.680481,806.051514 
	C478.139709,798.171570 478.260132,790.420410 474.883820,781.856506 
	C471.408722,773.042053 476.673889,765.701538 486.153564,765.244446 
	C494.463654,764.843689 502.819946,764.932983 511.136505,765.275146 
	C518.271667,765.568726 521.342896,768.495117 523.533752,775.427551 
	C529.097961,793.034607 534.734314,810.618896 540.788879,829.615112 
	C544.468872,820.369629 547.705322,812.310974 550.885620,804.230225 
	C554.970947,793.849792 558.964233,783.432861 563.087158,773.067383 
	C565.808228,766.226257 572.533264,763.161194 578.849854,765.725464 
	C585.457153,768.407654 588.098022,774.672791 585.311768,781.806030 
	C569.621094,821.977600 553.874634,862.127563 538.103577,902.267700 
	C535.785400,908.167908 531.305054,911.378662 526.153992,911.177795 
	C520.917175,910.973511 516.879517,907.624084 514.805603,901.460266 
	C508.061890,881.417175 501.397919,861.347229 494.672516,841.297974 
	C493.569092,838.008423 492.310699,834.770874 491.005005,831.182434 
	C488.409698,832.457153 488.121918,834.744263 487.387085,836.585571 
	C478.808472,858.083130 470.301727,879.609436 461.772705,901.126831 
	C459.086914,907.902649 455.038605,911.243652 449.590820,911.197937 
	C444.182495,911.152588 440.233337,907.614624 437.887970,900.646729 
	C424.928925,862.146851 411.975800,823.644897 399.036194,785.138489 
	C398.453888,783.405640 397.950043,781.639038 397.533844,779.859131 
	C395.903351,772.886169 399.916229,766.482605 407.060577,765.675598 
	C416.835205,764.571411 426.685364,764.745911 436.494263,765.560303 
	C442.544647,766.062500 445.341888,770.173340 446.990967,775.481873 
	C451.729889,790.736633 456.511017,805.978333 461.288849,821.221008 
	C461.974060,823.406921 462.310272,825.765930 464.483429,827.815186 
	C467.657257,822.185974 469.399384,816.156860 472.008301,810.098999 
z"/>
<path fill="#000000" opacity="1.000000" stroke="none" 
	d="
M263.195496,900.053223 
	C259.429260,909.607971 253.642075,913.022705 246.511414,910.193848 
	C242.646729,908.660645 240.530090,905.710510 239.243042,901.854187 
	C228.439728,869.483765 217.576935,837.133240 206.728287,804.777954 
	C204.188538,797.203369 201.473526,789.682922 199.127457,782.049011 
	C196.171570,772.430664 200.951996,766.176880 210.892944,765.480713 
	C218.742065,764.931091 226.536545,765.716370 234.358749,765.612427 
	C242.271469,765.507263 245.600311,767.939148 247.957443,775.393738 
	C252.773102,790.623657 257.468323,805.891663 262.248871,821.132751 
	C263.028259,823.617554 263.410919,826.289551 265.512543,828.824585 
	C270.094666,817.415039 274.519287,806.336060 279.010071,795.283997 
	C279.658600,793.687805 279.016022,792.346680 278.604675,790.938721 
	C277.531494,787.265442 276.240326,783.647888 275.335663,779.935120 
	C273.684296,773.158020 277.534088,766.667969 284.347626,765.790833 
	C294.775177,764.448425 305.320251,764.556824 315.746094,765.893738 
	C320.654388,766.523132 323.186462,770.325134 324.626160,775.003174 
	C329.421692,790.585754 334.373230,806.120422 339.297699,821.663086 
	C339.936554,823.679382 340.766663,825.635071 341.758575,828.288696 
	C344.855408,823.658630 346.018738,818.968445 347.784882,814.584167 
	C353.259857,800.992920 358.522491,787.316284 363.965973,773.712158 
	C366.807983,766.609619 372.678619,763.414185 378.858673,765.359802 
	C386.156189,767.657288 389.184540,774.532959 386.168915,782.256226 
	C376.480743,807.068604 366.747559,831.863464 357.025085,856.662415 
	C351.130463,871.697693 345.234528,886.732483 339.317291,901.758850 
	C336.843994,908.039734 332.552551,911.361267 327.248566,911.191528 
	C321.807495,911.017334 317.935242,907.617981 315.732513,901.037231 
	C308.652893,879.886536 301.601746,858.726196 294.479889,837.589722 
	C293.752655,835.431396 293.365906,833.061340 290.821655,830.418762 
	C281.515686,853.867004 272.421478,876.781616 263.195496,900.053223 
z"/>
<path fill="#000000" opacity="1.000000" stroke="none" 
	d="
M600.057861,869.000000 
	C600.042297,838.683289 600.024658,808.866577 600.012634,779.049866 
	C600.008484,768.671997 603.755981,764.867371 614.147583,764.862244 
	C642.964905,764.847961 671.782166,764.878784 700.599487,764.887573 
	C705.598511,764.889099 710.296204,765.622314 713.314087,770.259766 
	C715.671265,773.881897 716.108521,777.721313 714.151489,781.636536 
	C711.808228,786.324463 707.704956,788.211182 702.691162,788.228882 
	C687.033386,788.284180 671.375366,788.253845 655.717407,788.262939 
	C648.413208,788.267151 648.402710,788.273682 648.399719,795.768372 
	C648.397156,802.264587 648.529236,808.763123 648.391174,815.256165 
	C648.317932,818.698242 649.674194,819.979919 653.107666,819.937805 
	C663.433594,819.811035 673.763672,819.793335 684.089233,819.941711 
	C691.829407,820.052856 696.138306,823.804749 696.367920,830.183411 
	C696.593323,836.444702 693.223694,841.032166 686.899109,841.434631 
	C677.607788,842.025940 668.265686,841.823608 658.945068,841.946106 
	C657.113281,841.970215 655.272583,842.041748 653.450195,841.903748 
	C649.507996,841.605408 648.277832,843.415283 648.313599,847.243530 
	C648.466064,863.566345 648.389771,879.891418 648.389587,896.215637 
	C648.389465,906.644043 644.750366,910.282776 634.290222,910.303589 
	C627.294128,910.317444 620.297668,910.349365 613.302063,910.292114 
	C604.671692,910.221436 600.318848,906.104431 600.141724,897.483521 
	C599.950195,888.158997 600.072571,878.828125 600.057861,869.000000 
z"/>
<path fill="#000000" opacity="1.000000" stroke="none" 
	d="
M614.403076,181.557297 
	C621.061340,166.816849 629.990051,154.549728 645.273254,148.621918 
	C663.086975,141.712585 679.927002,145.118240 694.895447,156.049133 
	C708.770142,166.181320 718.154785,179.700317 720.739624,197.272293 
	C721.793884,204.439774 720.864136,211.335037 718.034790,217.796051 
	C712.506165,230.420776 704.110718,240.889359 692.522339,248.515579 
	C679.199524,257.283173 667.893066,255.346329 657.956360,242.986923 
	C648.112488,230.742950 636.323486,220.914124 622.088623,214.056625 
	C612.579956,209.475937 608.887207,201.662125 611.221130,191.404846 
	C611.955566,188.177414 613.220459,185.070694 614.403076,181.557297 
z"/>
<path fill="#000000" opacity="1.000000" stroke="none" 
	d="
M567.087524,384.857666 
	C564.926147,380.100983 562.667114,375.832153 559.593811,372.057831 
	C557.746765,369.789551 557.219299,367.360382 558.260315,364.604919 
	C561.980652,354.756989 566.080933,345.124207 572.990845,336.963623 
	C582.548462,325.676147 594.561035,323.095612 607.921814,329.555389 
	C615.562134,333.249451 622.148438,338.272034 626.910950,345.362579 
	C639.924805,364.737793 643.220276,385.517914 634.981995,407.579407 
	C630.044128,420.802551 619.374268,427.145630 606.025269,429.141022 
	C595.594299,430.700287 588.116455,425.474945 582.474792,417.172546 
	C575.765259,407.298645 571.934753,396.043365 567.087524,384.857666 
z"/>
<path fill="#000000" opacity="1.000000" stroke="none" 
	d="
M484.093170,318.964661 
	C492.282501,330.176727 494.940002,342.695526 495.349701,355.902313 
	C495.420837,358.195770 494.853729,360.159027 493.124420,361.742218 
	C485.566864,368.661194 480.175842,377.337372 474.003265,385.377960 
	C470.959137,389.343353 467.808380,393.199646 464.187134,396.667084 
	C446.895142,413.224945 422.328949,407.653839 413.744415,385.206787 
	C405.352081,363.262268 413.377960,336.509644 433.123962,320.772339 
	C439.400787,315.769806 446.018280,311.424652 453.931458,309.267792 
	C466.003632,305.977478 475.870300,309.250519 484.093170,318.964661 
z"/>
<path fill="#000000" opacity="1.000000" stroke="none" 
	d="
M497.707886,464.238770 
	C493.523438,461.319305 489.001617,460.090363 484.612091,458.561401 
	C478.080231,456.286163 475.549286,453.360596 475.675110,448.156311 
	C475.789398,443.429443 479.227814,439.655121 485.000519,437.801880 
	C492.001221,435.554382 499.165619,436.243011 506.271362,436.741058 
	C516.557373,437.461975 526.758789,438.933563 536.675781,441.863953 
	C541.588928,443.315735 545.832153,445.817444 548.080017,450.798035 
	C550.490356,456.138550 548.973999,460.454559 543.837646,463.422028 
	C540.372192,465.424103 536.466858,465.324890 532.756897,466.083679 
	C526.086426,467.447998 520.148560,470.069550 515.046631,474.663971 
	C510.893738,478.403717 509.533844,478.169495 506.572815,473.384979 
	C504.337921,469.773773 501.393372,466.914581 497.707886,464.238770 
z"/>
<path fill="#000000" opacity="1.000000" stroke="none" 
	d="
M280.317139,659.299805 
	C295.789429,647.207458 314.885651,653.646606 318.839447,671.949219 
	C321.478668,684.166565 312.531921,696.389038 299.375122,698.540100 
	C287.216064,700.528015 274.952576,691.266174 273.637024,679.193359 
	C272.814545,671.645386 274.710999,665.051208 280.317139,659.299805 
M287.221558,691.432007 
	C295.770477,695.385925 303.363861,694.277893 309.213989,688.222961 
	C314.316376,682.941895 315.604004,674.230591 312.225525,667.848083 
	C308.492737,660.796204 301.745178,657.348083 293.493683,658.275757 
	C286.685089,659.041260 280.813965,664.323486 278.787415,671.507080 
	C276.796021,678.565735 279.686798,685.812561 287.221558,691.432007 
z"/>
<path fill="#000000" opacity="1.000000" stroke="none" 
	d="
M680.658936,750.734985 
	C670.328796,745.884399 664.384216,735.615601 666.102417,726.068848 
	C668.127991,714.815002 675.810364,707.581543 686.962158,706.427917 
	C697.045837,705.384766 706.680481,711.460266 710.327576,721.522095 
	C713.436768,730.099976 711.824707,738.193726 705.719727,744.771057 
	C699.028809,751.979675 690.518372,753.932373 680.658936,750.734985 
M676.664307,716.141296 
	C670.684692,721.828857 669.324585,728.632446 672.295898,736.164734 
	C675.166626,743.442444 681.691895,747.340698 689.679626,747.046204 
	C697.203064,746.768860 703.167847,742.351562 705.848572,735.071960 
	C708.464783,727.967590 705.941772,719.632629 699.770752,714.993286 
	C692.916992,709.840637 684.830261,710.075439 676.664307,716.141296 
z"/>
<path fill="#000000" opacity="1.000000" stroke="none" 
	d="
M305.344849,672.260254 
	C302.748474,673.389099 301.858734,671.434998 300.522766,670.285950 
	C297.621368,667.790771 294.741150,667.946533 292.175507,670.762817 
	C289.615417,673.572998 289.754028,678.581238 292.494141,681.284912 
	C295.163055,683.918274 298.093872,684.172974 300.805573,681.363403 
	C302.190186,679.928833 303.214355,678.079285 305.811157,679.537781 
	C305.995178,683.517822 303.693451,685.819458 300.396057,686.931152 
	C296.202271,688.344971 292.145111,687.759399 288.852966,684.432007 
	C284.938721,680.475830 284.499420,673.066040 287.854645,668.234802 
	C290.591614,664.293823 296.280243,662.706665 300.785431,664.867554 
	C303.702301,666.266724 306.208038,668.185608 305.344849,672.260254 
z"/>
<path fill="#000000" opacity="1.000000" stroke="none" 
	d="
M687.688110,731.755981 
	C683.975647,732.441040 686.019653,735.172546 685.518738,736.989136 
	C685.181274,738.213135 685.521912,739.827332 683.660400,740.026489 
	C681.578186,740.249146 681.076965,738.700378 681.055481,737.166443 
	C680.980957,731.858154 681.038269,726.547607 681.097046,721.238464 
	C681.108154,720.231873 681.477539,719.303345 682.369568,718.660461 
	C684.756531,716.940125 693.993286,718.120300 696.112183,720.431274 
	C698.730591,723.287292 698.135376,726.672791 694.312683,730.813599 
	C694.105896,731.037598 694.051453,731.402161 693.802307,731.996582 
	C694.438843,733.109924 695.194885,734.373962 695.892151,735.669617 
	C696.509338,736.816406 697.520081,737.803528 697.424744,739.548523 
	C695.103455,741.084412 693.682983,739.706238 692.342163,737.869141 
	C690.884460,735.872070 690.040039,733.429810 687.688110,731.755981 
M685.675354,723.843018 
	C685.091370,726.754395 686.514465,727.842102 689.188232,727.446289 
	C690.952820,727.185120 693.128601,726.727051 692.551453,724.260681 
	C691.949768,721.689209 689.582764,722.222961 687.679810,722.358582 
	C687.102722,722.399719 686.559326,722.913940 685.675354,723.843018 
z"/>
</svg>